<svg viewBox="0 0 500 500" xmlns="http://www.w3.org/2000/svg"><g fill="#6e4e60"><path d="M248.07 496c-135.1 0-245-109.91-245-245S113 6 248.07 6s245 109.9 245 245-109.91 245-245 245zm0-483.18C116.73 12.78 9.88 119.62 9.88 251s106.85 238.14 238.19 238.14S486.24 382.29 486.24 251 379.4 12.78 248.07 12.78z"/><path d="M430 295.5a7.54 7.54 0 01-5.38-2.26 7.64 7.64 0 01-2.24-5.38 9.4 9.4 0 01.15-1.48 9.11 9.11 0 01.46-1.46 7.94 7.94 0 01.68-1.29 9.62 9.62 0 01.95-1.18 7.71 7.71 0 016.87-2.06 6.91 6.91 0 011.45.41 6.11 6.11 0 011.29.73 6.39 6.39 0 011.19.92 12 12 0 01.95 1.18 8 8 0 01.69 1.29 7.3 7.3 0 01.42 1.46 6.25 6.25 0 01.15 1.48 7.57 7.57 0 01-2.21 5.38 5 5 0 01-1.19 1 7.09 7.09 0 01-1.29.72 8.4 8.4 0 01-1.45.43 6.61 6.61 0 01-1.49.15m-364-.04a6.85 6.85 0 01-1.49-.15 8.23 8.23 0 01-1.41-.43 7.43 7.43 0 01-1.33-.72 5 5 0 01-1.15-1 7.65 7.65 0 01-2.25-5.38 10.76 10.76 0 01.15-1.48 9.17 9.17 0 01.46-1.46 7.94 7.94 0 01.68-1.29 8.85 8.85 0 011-1.18 8.66 8.66 0 012.48-1.65 6.73 6.73 0 011.41-.41 7.56 7.56 0 019.11 7.47A7.63 7.63 0 0166 295.5m40.07 45.29a6.23 6.23 0 01-1.49-.15 6.17 6.17 0 01-1.45-.42 6.87 6.87 0 01-1.29-.68 7.44 7.44 0 01-2.14-2.14 7 7 0 01-.69-1.3 6.09 6.09 0 01-.41-1.46 6 6 0 01-.15-1.48 7.64 7.64 0 012.21-5.38 7.79 7.79 0 016.9-2.11 9.33 9.33 0 011.41.47 7.58 7.58 0 011.33.68 7.06 7.06 0 011.15 1 7.72 7.72 0 012.25 5.38 8.71 8.71 0 01-.16 1.48 8 8 0 01-.45 1.46 7.61 7.61 0 01-.68 1.3 9.71 9.71 0 01-1 1.18 7.68 7.68 0 01-5.38 2.21m32.81-45.33a6.79 6.79 0 01-1.49-.15 8.67 8.67 0 01-1.45-.43 7.52 7.52 0 01-1.3-.72 6.81 6.81 0 01-1.18-1 7 7 0 01-.92-1.14 5.68 5.68 0 01-.72-1.33 5.84 5.84 0 01-.41-1.41 6.38 6.38 0 01-.16-1.5 7.08 7.08 0 011.29-4.23 10.39 10.39 0 01.92-1.18 9.91 9.91 0 011.18-.92 10.32 10.32 0 011.3-.73 9.69 9.69 0 011.45-.41 7.67 7.67 0 016.87 2.06 6.92 6.92 0 01.95 1.18 9.1 9.1 0 01.73 1.29 6.74 6.74 0 01.41 1.46 6.25 6.25 0 01.15 1.48 8.13 8.13 0 01-.56 2.91 7.7 7.7 0 01-.73 1.33 5.19 5.19 0 01-.95 1.14 7.47 7.47 0 01-5.38 2.26m39.99 45.43a7.68 7.68 0 01-5.38-2.23 7.7 7.7 0 01-1.63-2.5 8 8 0 01-.46-1.46 9 9 0 01-.15-1.49 9.53 9.53 0 01.15-1.5 8.39 8.39 0 01.46-1.42 8.87 8.87 0 01.68-1.34 7.25 7.25 0 01.95-1.17 7.85 7.85 0 0110.8 0 9.3 9.3 0 01.95 1.17 8.07 8.07 0 01.69 1.34 10.67 10.67 0 01.46 1.42 9.47 9.47 0 01.11 1.5 7.58 7.58 0 01-7.63 7.68m145.6-.1a7.55 7.55 0 01-7.62-7.63 7.64 7.64 0 012.21-5.38 6.87 6.87 0 011.18-1 6.33 6.33 0 011.29-.68 11.65 11.65 0 011.41-.47 7.82 7.82 0 016.91 2.11 7.72 7.72 0 012.25 5.38 8.73 8.73 0 01-.15 1.48 8 8 0 01-.46 1.46 6.42 6.42 0 01-.68 1.3 8.85 8.85 0 01-1 1.18 9.68 9.68 0 01-1.13 1 9 9 0 01-1.35.68 7.86 7.86 0 01-2.9.57m32.81-45.29a6.7 6.7 0 01-1.48-.15 8.79 8.79 0 01-1.46-.43 7.91 7.91 0 01-1.3-.72 6.4 6.4 0 01-1.17-1 6 6 0 01-.92-1.14 5.71 5.71 0 01-.73-1.33 6.48 6.48 0 01-.41-1.41 7.48 7.48 0 010-3 6.74 6.74 0 01.41-1.46 6.65 6.65 0 01.73-1.29 6.83 6.83 0 01.92-1.15 8.81 8.81 0 012.47-1.68 7.18 7.18 0 011.46-.41 7.81 7.81 0 013 0 6.73 6.73 0 011.41.41 7.2 7.2 0 011.33.73 5.49 5.49 0 011.15 1 7.06 7.06 0 011 1.15 8.38 8.38 0 01.68 1.29 9.17 9.17 0 01.46 1.46 7.48 7.48 0 010 3 8.93 8.93 0 01-.46 1.41 6.93 6.93 0 01-.68 1.33 6.24 6.24 0 01-1 1.14 5 5 0 01-1.15 1 7.78 7.78 0 01-1.33.72 8.23 8.23 0 01-1.41.43 6.85 6.85 0 01-1.49.15m39.97 45.24a6.23 6.23 0 01-1.49-.15 6.43 6.43 0 01-1.42-.42 8.84 8.84 0 01-1.33-.69 9.57 9.57 0 01-1.14-.95 7.52 7.52 0 01-1-1.18 9.25 9.25 0 01-.72-1.3 9.86 9.86 0 01-.43-1.46 7.42 7.42 0 01-.14-1.48 7.86 7.86 0 013.39-6.34 8 8 0 011.33-.68 8.75 8.75 0 011.42-.47 8.23 8.23 0 013 0 9.2 9.2 0 011.46.47 7.23 7.23 0 011.29.68 7.06 7.06 0 011.15 1 7.53 7.53 0 012.24 5.38 6.2 6.2 0 01-.15 1.48 6.11 6.11 0 01-.42 1.46 6.44 6.44 0 01-.72 1.3 6.92 6.92 0 01-.95 1.18 8.94 8.94 0 01-1.15.95 8 8 0 01-1.29.69 6.77 6.77 0 01-1.46.42 6.15 6.15 0 01-1.48.15M37.46 254.46h149.69v.61H37.46z"/><path d="M35.96 252.96h152.69v3.61H35.96z"/><path d="M256.14 312.56l-8.51-22.41a7.25 7.25 0 00-5.36-4.56l-22.56-4.54-.05-.17L204 229.41a7.2 7.2 0 00-6.94-5.16H37.46v-.61H197a7.82 7.82 0 017.52 5.59l15.66 51.3 22.2 4.46a7.86 7.86 0 015.8 4.94l7.91 20.83 11.33-34.18 16.76-47.66a7.86 7.86 0 017.41-5.28h169.7v.61H291.6a7.26 7.26 0 00-6.84 4.87L268 276.78z"/><path d="M256.24 317l-10-26.36a5.75 5.75 0 00-4.26-3.62l-23.43-4.72-16-52.49a5.72 5.72 0 00-5.51-4.1H36v-3.61h161a9.31 9.31 0 019 6.66l15.39 50.43 21.32 4.29a9.36 9.36 0 016.92 5.88l6.37 16.92 10-30.17 16.76-47.69a9.37 9.37 0 018.83-6.28h171.2v3.61H291.6a5.74 5.74 0 00-5.42 3.86l-16.76 47.67z"/><path d="M293.12 254.46h168.17v.61H293.12z"/><path d="M291.62 252.96h171.17v3.61H291.62z"/></g></svg>