<svg viewBox="0 0 500 500" xmlns="http://www.w3.org/2000/svg"><clipPath id="a"><path d="M441.14 284.05C424.36 422.16 309.61 477 233.33 477s-106.48-45.42-106.48-199.4 65.7-227.17 142-227.17 190.86 80.77 172.29 233.62z"/></clipPath><g fill="#6e4e60"><path d="M250.81 496c-135.09 0-245-109.91-245-245S115.72 6 250.81 6s245 109.91 245 245-109.91 245-245 245zm0-483.18C119.47 12.78 12.63 119.62 12.63 251s106.84 238.14 238.18 238.14S489 382.29 489 251 382.14 12.78 250.81 12.78z"/><path d="M184.69 250.14a1.69 1.69 0 00-.29-.41 2 2 0 00-1.36-.63H183a2 2 0 00-1.33.52l-20.71 19.2a2 2 0 00-.62 1.54l3.28 52.78a37.62 37.62 0 01-20.28 35.73 2 2 0 00-.84 2.63 2 2 0 001.15 1 1.86 1.86 0 001.48-.12 41.5 41.5 0 0022.38-39.44l-3.21-51.85 20-18.57a2 2 0 00.41-2.33zm40.55-59.58a15.27 15.27 0 00-4.05-7.92 4.16 4.16 0 00-2.88-1.32 4 4 0 00-3 1.11l-71.15 66 14.93-32.23 21.16-19.62c15.53-14.39 23.53-28.13 22-37.69l-.1-.62.38-.5a9.72 9.72 0 001.89-7.52 13.43 13.43 0 00-1.38-4.15 17.25 17.25 0 00-2.67-3.77 4.14 4.14 0 00-5.86-.21l-12.08 11.19 1.7-5.29a19.61 19.61 0 001-9.17l-.1-.63.38-.5a9.69 9.69 0 001.89-7.52 15.27 15.27 0 00-4-7.92 4.09 4.09 0 00-2.87-1.32 3.68 3.68 0 00-3 1.11l-18.12 16.79-.58-2.43a17.29 17.29 0 00-1.46-3.91l-.11-.2a4.17 4.17 0 00-2.32-1.86 4.08 4.08 0 00-3.16.27l-69.4 35.74a15.16 15.16 0 00-8.16 14.39l4.08 65.66a1.91 1.91 0 00.65 1.34 2 2 0 001.41.49 2 2 0 001.35-.66 2 2 0 00.49-1.41l-.49-7.87.77-.45a43.18 43.18 0 0017.34-19.09l15.9-34.28 39.61-36.73a10.48 10.48 0 001.12-1l.87-.91 1 .74a15.07 15.07 0 0018.95-1.22l4.85-4.5-1.39 5a33.82 33.82 0 01-2.88 6.83c-3.51 6.39-9.48 13.59-17.26 20.81L134.22 198a1.83 1.83 0 00-.45.61L115 239.47a1.89 1.89 0 00-.06 1.49 2 2 0 001 1.1 1.93 1.93 0 001.49.06 2 2 0 001.11-1l18.86-40.73 37-34.34 1 .69a15.07 15.07 0 0019-1.2l4.8-4.54-1.4 5a33.21 33.21 0 01-2.87 6.82c-3.5 6.39-9.49 13.61-17.31 20.87L156 213.76a2 2 0 00-.45.6l-14.45 31.37a4.13 4.13 0 006.56 4.75l47.59-44.11 1 .69a15 15 0 0019-1.2l4.85-4.47-1.36 4.92c-1.53 5.51-6.27 14.78-20.22 27.72l-6.65 6.16a1.92 1.92 0 00-.63 1.37 1.95 1.95 0 001.88 2 2 2 0 001.4-.51l6.65-6.17c15.52-14.38 23.53-28.12 22-37.69l-.1-.62.38-.5a9.72 9.72 0 001.79-7.51zm-112.77-8.37a1.93 1.93 0 00-.44.6l-15.85 34.44a39.16 39.16 0 01-12.7 15.38l-2.14 1.53L78 180.62A11.25 11.25 0 0184.07 170l41.76-21.56.75.93a15.17 15.17 0 0011.61 5.58h3.67zm39.33-36.76l-8.41 4.33a11.14 11.14 0 01-12.65-1.7l-1.54-1.41L153.7 134l.59 1.49a10.73 10.73 0 01.8 5.21 5.84 5.84 0 01-3.29 4.73zm29.68-9.26l-6.93 6.43a11.12 11.12 0 01-12.65 1.74l-1.85-.94 20.21-18.74 1 1.28a10.91 10.91 0 012.17 4.8 5.75 5.75 0 01-1.95 5.43zm17.15 20.05l-6.93 6.44a11.23 11.23 0 01-7.59 3 11.11 11.11 0 01-5.11-1.26l-1.84-1 20.21-18.74 1 1.28a11 11 0 012.17 4.8 5.8 5.8 0 01-1.91 5.48zm20.83 40.36l-6.94 6.42a11.1 11.1 0 01-7.54 3h-.4a11.18 11.18 0 01-4.71-1.24l-1.83-1 20.19-18.72 1 1.28a11 11 0 012.18 4.8 5.82 5.82 0 01-1.95 5.46zM90.74 371.44l6.83 13.24a2 2 0 003.47-1.8l-6.83-13.23a52.46 52.46 0 01-5.76-20.86L83 261.1a2 2 0 00-.21-.77 1.94 1.94 0 00-1.73-1.06h-.12a2 2 0 00-1.82 2.08L84.56 349a56 56 0 006.18 22.44z"/><g clip-path="url(#a)"><path d="M342.83 88.45h-.06c-15.44 2.82-44.78 16.68-58.08 29L279 112c13.45-12.55 43.82-27.91 62.38-31.29 6-1.08 66 .82 71.66 1.85 39.08 7.11 66.18 36.62 78.37 85.37 8.47 33.85 23.58 191.9 26.22 230.17l-7.85.5c-2.63-38.12-17.62-195.27-26-228.76-11.54-46.17-35.78-72.93-72.19-79.54-4.76-.76-42.93-2.11-60.48-2.11a74.44 74.44 0 00-8.28.26z"/><path d="M552.3 402.88a16.83 16.83 0 00-16.81 16.81v3.94h7.87v-3.94a8.94 8.94 0 0117.88 0v3.6a23.6 23.6 0 01-4.8 14.25 11.05 11.05 0 01-1.33 1.48c-9.1 8.32-17.47 10.85-23.56 7.17-7.11-4.29-9.68-19.19-11.71-34.08l-.17-1.21c-.17-1.23-.33-2.4-.49-3.49l-7.76 1.32c.19 1.31.37 2.72.58 4.2 1.23 9.08 2.88 21.16 7.24 30.09l1.89 3.85-45.93-2.71a43.91 43.91 0 01-41.27-43.78v-65.45l.59-.7c17.76-21.07 25.91-51.59 33.1-78.53l.16-.61c2.61-9.72 5.06-18.9 7.83-27.28a3.89 3.89 0 00-.55-3.54c-18.54-25.52-56.61-68.69-81.66-68.69h-1c-5 .22-12.1 2.32-17.31 11-18.51 30.85-93.7 56.64-94.46 56.9a3.93 3.93 0 00-2.51 4.81c1.68 5.84 3.31 12 5 18.4 7.75 29.38 17.39 65.94 39.24 89.17l.68.73v63.76a43.89 43.89 0 01-41.27 43.77l-45.93 2.71 1.88-3.84c4.38-9 6-21 7.2-29.84l.19-1.29c.29-2.08.56-4 .83-5.62a969.08 969.08 0 0010.23-78.71c1.3-14.79 2.21-29.71 3.09-44.13.49-8.19.92-19.45 1.4-31.91 1.09-28.33 2.43-63.58 5.4-82.46.09-1 2.82-26.95 14.12-46.44l-5.92-3.72c-1.1 1.72-11.48 17.71-15.29 49-3.27 26.77-4.92 61.37-6.24 89.17-.47 9.84-.9 18.72-1.33 25.91l-.11 1.7c-.85 13.88-1.73 28.22-3 42.23-2.29 25.95-5.7 52.22-10.15 78.07-.3 1.74-.58 3.75-.88 6l-.18 1.22c-2 14.88-4.6 29.78-11.69 34.07-4.77 2.88-10.7 2.05-17.62-2.5a24.71 24.71 0 01-8.88-11l-1-2.25a27.3 27.3 0 01-2.21-10.79 8.94 8.94 0 1117.87 0v3.94h7.87v-3.94a16.81 16.81 0 10-33.61 0 35 35 0 002.87 13.91l1 2.25a32.44 32.44 0 0011.8 14.42c5.07 3.33 9.84 5.09 14.57 5.38l1.4.08a16.88 16.88 0 002.42-.17l60.38-3.57a51.77 51.77 0 0048.69-51.63v-56.43l3.91 2.68c12.46 8.53 26.73 12.68 43.65 12.68 17.15 0 31.4-4.37 43.57-13.34l4-2.94v57.36A51.78 51.78 0 00474.75 452l59.77 3.51a23.17 23.17 0 003.07.24l1.32-.08c6.76-.42 14.21-4.18 21.52-10.86a19.48 19.48 0 002.27-2.51 31.64 31.64 0 006.41-19v-3.6a16.83 16.83 0 00-16.81-16.82zm-173.8-51.45c-59.59 0-74.55-56.69-87.74-106.71-1.24-4.72-2.32-8.82-3.42-12.79l-.61-2.21 2.15-.8c17.53-6.51 76-30 93-58.25 3.71-6.18 8-7.07 10.91-7.21h.61c20.9 0 55.84 39.33 73.35 62.78l.76 1-.38 1.23c-2.45 7.73-4.65 16-7 24.7-12.96 48.58-26.24 98.26-81.63 98.26z"/></g></g></svg>