<svg viewBox="0 0 500 500" xmlns="http://www.w3.org/2000/svg"><g fill="#6e4e60"><path d="M251.13 496c-135.13 0-245-109.95-245-245S116 6 251.13 6s245 109.9 245 245-109.91 245-245 245zm0-483.18C119.79 12.78 13 119.62 13 251s106.79 238.14 238.13 238.14S489.31 382.29 489.31 251 382.46 12.78 251.13 12.78z"/><path d="M432.34 256.28l-3.5-3c-6.29-5.45-12.59-10.9-18.76-16.35l-.63-.55-.07-.83c-4.81-60.36-44.74-113.42-101.74-135.19-40.51-15.47-81.74-14.41-121.56 3.11a153.48 153.48 0 00-46.68 32.32l-4.61 3.75 25 21.38-80.2 24.53 13-82.41 25.13 22 2.17-2.15c37.15-37 82.58-55.12 135.36-53.76 38.78 1 74 13.29 104.69 36.52s52.38 54.16 64.15 91.73c5.24 16.72 7.85 39.33 8.11 54.32zm-18.91-21.94q7.2 6.33 14.54 12.68c-.67-14.18-3.22-33.91-7.77-48.47-11.51-36.73-32.6-66.9-62.71-89.67s-64.4-34.7-102.29-35.68c-51.62-1.49-96 16.37-132.35 52.56l-4.91 4.87L95.56 111l-10.84 68.52 66.69-20.39-23.08-19.71 8.31-6.73a156.85 156.85 0 0147.77-33c40.82-18 83.19-19.05 124.71-3.2 58.21 22.2 99.07 76.26 104.31 137.85zm-164.21 195.8c-34 0-65.15-8.81-92.66-26.2-57.69-36.5-86.3-88-87.45-157.43L69 241.9l4.81 4.16c5.71 4.94 11.38 9.86 17.19 15.11l.6.54.07.8c4 42.75 22.34 78.57 54.42 106.49 29.67 25.84 64.67 39 104 39.23h.29c38.75 0 74.2-13.77 105.39-40.94 1.69-1.47 3.33-3 5-4.56l5-4.61L341.23 337l80.17-24.53-13 82.37-25.89-22.91-2.18 2.2c-36.4 36.87-78.13 55.19-127.56 56-1.2 0-2.37.01-3.55.01zm-175.86-179c2.32 65.58 30.29 114.47 85.41 149.33C186.53 418 218.2 426.63 252.68 426c48.29-.81 89.08-18.74 124.7-54.8l4.93-5 23.16 20.5 10.82-68.38-66.68 20.4L372.06 358l-8.47 7.75c-1.71 1.6-3.39 3.14-5.11 4.64-32 27.84-68.32 42-108.1 42h-.3c-40.36-.2-76.26-13.75-106.7-40.25-32.71-28.46-51.46-64.94-55.74-108.42-4.83-4.37-9.56-8.5-14.28-12.61z"/><path d="M343.86 290.63a13.68 13.68 0 009.13-16 13.94 13.94 0 00-14.92-10.84 7.19 7.19 0 01-7.05-3l-.24-.3c-6-7.65-12-15.3-18.08-22.89a6.69 6.69 0 01-.34-8.59c3.25-4.74 3.62-9.41 1.14-14.28-2.77-5.41-7.2-7.85-13.42-7.66a7.85 7.85 0 01-7.12-3.74q-9.42-14.62-19-29.18a6.75 6.75 0 01.28-8.18c3.62-5 4-9.83 1.14-15.13-2.76-5.1-6.89-7.52-12.71-7.18s-9.64 2.93-12.13 8.32a7 7 0 01-6.74 4.25c-7.86-.06-15.7-.07-23.57 0a7.66 7.66 0 01-7.54-4.8 13.34 13.34 0 00-10.41-7.63 13.55 13.55 0 00-12.3 4.32 13.84 13.84 0 00-.7 18c1.9 2.66 2 5.27.33 7.77q-9.94 14.94-19.76 30a6.81 6.81 0 01-6.64 3.25 14.08 14.08 0 00-15 12.18 13.72 13.72 0 004 11.5 13.47 13.47 0 0011.06 4 7.24 7.24 0 017 2.91q3.21 4.13 6.46 8.21l15.19 19.31-2.52 3.66c-.36.52-.55.81-.74 1.1-3.21 5.23-3.24 10.19-.07 15.15 3 4.74 7.21 6.72 13.18 6.34a6.47 6.47 0 01.73 0 7.13 7.13 0 015.94 3c1.84 2.45 3.71 4.87 5.58 7.3l15.79 20.6-3.25 4.6a13.82 13.82 0 000 15.63c3.37 4.63 7.4 6.55 12.76 6a13.29 13.29 0 0011.55-8.38 6.61 6.61 0 016.3-4.17c8.31.05 16.57.05 24.84 0a6.67 6.67 0 016.36 4.14c2.67 6 8.17 9.08 14.85 8.27a13.58 13.58 0 009.6-6.12 13.33 13.33 0 001.71-11.06 29.54 29.54 0 00-1.89-4.45l-2.69-5 1.64-2.23s14.76-19 20-25.63a7.46 7.46 0 015-2.52c.89-.12 1.78-.17 2.66-.23h.53a18.35 18.35 0 004.08-.62zm-42.76-80.9a11.24 11.24 0 0111.21 11.15 11.08 11.08 0 01-3.31 7.92 11.42 11.42 0 01-7.95 3.27 11.17 11.17 0 110-22.34zm-29.92 51.37a7.21 7.21 0 01-6.38 2.61 14.15 14.15 0 00-14.32 8.29 7.24 7.24 0 01-6.33 4.14h-24.64a6.83 6.83 0 01-6.46-4.06c-.48-1-1-1.95-1.62-2.93l-2.55-4.46 15.65-20.18q2.65-3.39 5.26-6.8a7.21 7.21 0 017.13-3.07 13.58 13.58 0 0013.8-8 7 7 0 016.84-4.49c8.09 0 16.11.05 24.15 0a6.72 6.72 0 016.82 4.49 14 14 0 001.5 2.5 6.34 6.34 0 01-.18 8l-7.69 9.86q-5.48 7.09-10.98 14.1zm.19 8.78a11 11 0 013.15 7.92 11.25 11.25 0 01-19.25 7.62 11.19 11.19 0 01.2-15.83 11.54 11.54 0 017.89-3.19 11.4 11.4 0 018.01 3.48zm-44.56-49a11.28 11.28 0 113.28 7.87 11 11 0 01-3.28-7.88zm36.47-74.56a11.13 11.13 0 018 3.38 11 11 0 013.24 7.89 11.4 11.4 0 01-11.23 11.1 11.19 11.19 0 110-22.37zM189 157.36a11.43 11.43 0 0111.29-11.05h.06a11.25 11.25 0 017.95 3.38 11.1 11.1 0 013.2 7.93 11.22 11.22 0 01-19.29 7.64 11.08 11.08 0 01-3.21-7.9zm-19 71.4a11.18 11.18 0 11-8-19 11.17 11.17 0 018 19zm21 30.87c-5-6.57-10.29-13.17-15.37-19.55l1-.93-1.08.87-2.17-2.72a6.4 6.4 0 01-.23-8.19 13.67 13.67 0 00-.17-16.67 6.68 6.68 0 01-.25-8.11q9.74-14.64 19.37-29.38a7.64 7.64 0 017.07-3.61 13.9 13.9 0 0013.85-8.4 6.36 6.36 0 016.43-4.09h24.73a6.66 6.66 0 016.32 4.15c2.59 5.76 7.43 8.77 13.69 8.38a7.62 7.62 0 017.11 3.58q9.46 14.73 19.05 29.38a6.61 6.61 0 01-.41 8.31 7.55 7.55 0 00-.91 1.23c-1.31 3.93-4.46 6-8.68 5.76-2-.11-4.07-.09-6.12-.09l-4.68.06h-12.12a6.89 6.89 0 01-6.65-4.22c-2.58-5.55-6.78-8.29-12.85-8.38a13.82 13.82 0 00-12.72 8.48 13.53 13.53 0 001.51 13.43 6.67 6.67 0 01-.2 8.6q-9.14 11.61-18.13 23.32a6.84 6.84 0 01-7.34 2.83 2.16 2.16 0 00-.42-.06 9.74 9.74 0 01-2.2.26c-4.2-.01-6.57-3.12-7.43-4.24zm9.23 29.13A11.25 11.25 0 01189 277.6a11.22 11.22 0 0119.21-7.88 11.14 11.14 0 01-8 19zm37.83 57.11H238a11.38 11.38 0 01-8-3.4 11 11 0 01-3.22-7.89 11.42 11.42 0 0111.25-11.08 11.19 11.19 0 110 22.37zm74.29-11.16a11 11 0 01-3.35 7.9 11.42 11.42 0 01-7.95 3.26 11.19 11.19 0 110-22.37 11.44 11.44 0 0111.3 11.21zm15.55-40.62Q318.54 306 309.28 318a7.2 7.2 0 01-6.72 2.93 13.61 13.61 0 00-14.21 8.2 6.72 6.72 0 01-6.42 4.25h-24.67a6.78 6.78 0 01-6.49-4.24 13.64 13.64 0 00-14.14-8.23A7.19 7.19 0 01230 318c-6-7.83-11.95-15.65-18-23.43-3.53-4.55-1.4-8.09.18-9.8a2.33 2.33 0 00.38-.72 7.31 7.31 0 017.83-5.23c2.57.12 5.17.1 7.75.07h15.77a6.64 6.64 0 016.66 4.2c2.48 5.43 6.48 8.16 12.22 8.36s9.86-2 12.68-7.25c2.68-5 2.37-10-1-14.78a6.57 6.57 0 01.28-8.42q9.18-11.67 18.25-23.44a7 7 0 017-2.8 5.56 5.56 0 001 .12c5.18-1.31 8.1 2.37 9.06 3.59 5.49 7.1 11.1 14.19 17.86 22.64a6.49 6.49 0 01.19 8.37 13.68 13.68 0 000 16.28 6.5 6.5 0 01-.21 8.33zm.25-16.48a11.19 11.19 0 1111.19 11.15 11.14 11.14 0 01-11.19-11.15z"/></g></svg>