<svg viewBox="0 0 500 500" xmlns="http://www.w3.org/2000/svg"><g fill="#fff"><path d="M252.85 496c-135.09 0-245-109.91-245-245S117.76 6 252.85 6s245 109.91 245 245-109.85 245-245 245zm0-483.18C121.52 12.78 14.67 119.62 14.67 251s106.85 238.14 238.18 238.14S491 382.29 491 251 384.19 12.78 252.85 12.78z"/><path d="M376 288a9.74 9.74 0 00-11.78 7.25 117.49 117.49 0 01-228.58-.12 9.79 9.79 0 10-19.06 4.49 137.06 137.06 0 00266.68.16A9.78 9.78 0 00376 288z"/><circle cx="171.66" cy="189.66" r="19.57"/><circle cx="328.26" cy="189.66" r="19.57"/><path d="M31.55 145.33c2.79.22 5.62 0 8.4 0 .31 3 .78 5.79.83 8.56.2 11.78 2.46 23.24 5.49 34.55a101.76 101.76 0 0020.11 39.44 84 84 0 0047.33 28.92 87.79 87.79 0 0015.2 1.72 118 118 0 0018.23-.07 136.39 136.39 0 0020.1-3.89 104 104 0 0033.1-15.76 113 113 0 0027.94-27.51A109.53 109.53 0 00245.85 173a11.89 11.89 0 01.66-1.81c.06-.13.29-.18.54-.32 1.67 4.85 3.24 9.71 5 14.5A99.49 99.49 0 00269 215.21a171.47 171.47 0 0011.93 13 107.72 107.72 0 0032.61 21.53 109.93 109.93 0 0024.79 7.76 52.09 52.09 0 008.84 1c9.31 0 18.69.34 27.9-.73 6.76-.79 13.5-3.08 19.88-5.63a82.85 82.85 0 0032.14-23.47c6.11-7.1 11.5-14.79 14.77-23.69 2.6-7.09 5.37-14.17 7.22-21.47 1.72-6.78 2.47-13.83 3.38-20.79.63-4.8.78-9.66 1.2-14.49a3.65 3.65 0 01.74-2.14v-.71h1.19a4.35 4.35 0 011.26-.12c2.65.09 4.29 0 5.44.12h37.57V127H-7.88v17.78c4.58.19 9.16.43 13.74.55a4.38 4.38 0 01.89.1h23a5 5 0 011.8-.1zm403.22.25a98.5 98.5 0 01-2.22 28 114.49 114.49 0 01-9.45 28.26c-8.92 17.71-22.41 30.09-41.57 35.73-5.11 1.5-10.49 2.12-15.77 2.9-13.49 2-26.45-.74-39.09-5.11A95.14 95.14 0 01296.54 218 87.74 87.74 0 01272 185.88c-3.88-8.79-7.12-17.85-8.09-27.52-.42-4.17-.57-8.38-.85-12.78zm-203.31 0c-.83 16.36-4.57 31.83-12.48 46.07a96.05 96.05 0 01-22 26.84c-7.88 6.68-16.37 12.3-26 15.74a151.07 151.07 0 01-21.6 5.65 67.08 67.08 0 01-15 1.16c-14.65-.48-28.72-3.43-40.76-12.42a76.76 76.76 0 01-20.85-23.47c-6.33-11-9.67-23.13-11.9-35.53-1-5.84-1.22-11.83-1.81-17.75-.2-2-.47-4-.74-6.29z"/></g></svg>