<svg viewBox="0 0 500 500" xmlns="http://www.w3.org/2000/svg"><g fill="#fff"><path d="M253.2 496.23c-135.09 0-245-109.91-245-245s109.9-245 245-245 245 109.91 245 245-109.92 245-245 245zm0-482.39c-130.89 0-237.37 106.5-237.37 237.4S122.31 488.61 253.2 488.61s237.37-106.48 237.37-237.37S384.09 13.84 253.2 13.84z"/><path d="M178.64 305.13a90.67 90.67 0 0029.72 24.21l16.19-19a66.41 66.41 0 01-10.71-5.16zm67.8 34.46c-6.2 0-11.24-5.42-11.24-12.11s5-12.12 11.24-12.12 11.24 5.42 11.24 12.12-5 12.11-11.24 12.11m57.5 21.31l-40.93-48a21.4 21.4 0 00-33.14.06l-40.93 47.95a2.91 2.91 0 002.08 4.86h110.85a2.88 2.88 0 002.07-4.83m-92.19-147.18l-1.45 5.85a6.12 6.12 0 004 7.43 3 3 0 012 3.7L209 260a3.08 3.08 0 002 3.72l16.28 4.71a2.82 2.82 0 003.44-2.15L238 237a2.79 2.79 0 013.44-2.13 5.59 5.59 0 006.88-4.29l1.47-5.85-38-11M281.74 96l-38-11a2.78 2.78 0 00-3.42 2.15L238.84 93a3.08 3.08 0 002 3.72l38 11a2.8 2.8 0 003.44-2.15l1.45-5.84a3.06 3.06 0 00-2-3.72M262.51 287h-95.24a2.39 2.39 0 00-2.3 2.48v6.84a2.7 2.7 0 002.59 2.8h94.95c1.55 0 3.61-1.63 3.61-3.3v-6.12c0-1.67-2.06-2.75-3.61-2.75m42.82-118.74A30.89 30.89 0 01294 190.07c35.29 38 21.46 102.75-25.71 120.2l16.18 19.05c58.9-29.74 70-115 20.82-161.11m-27.94 15.7c-9.31 0-16.86-8.13-16.86-18.17s7.55-18.18 16.86-18.18 16.86 8.13 16.86 18.18-7.56 18.17-16.86 18.17m0-42.42c-12.41 0-22.48 10.86-22.48 24.25S264.94 190 277.35 190s22.48-10.85 22.48-24.24-10.07-24.25-22.48-24.25"/><path d="M288.59 165.74c0 6.7-5 12.12-11.24 12.12s-11.24-5.42-11.24-12.12 5-12.13 11.24-12.13 11.24 5.42 11.24 12.13m-49.19-63.31L213.18 208l38 11 7.6-30.55c-17.36-16.58-9.68-47.46 13-52.4l5.63-22.62z"/></g></svg>