<svg viewBox="0 0 500 500" xmlns="http://www.w3.org/2000/svg"><g fill="#fff"><path d="M251.13 496c-135.13 0-245-109.95-245-245S116 6 251.13 6s245 109.9 245 245-109.91 245-245 245zm0-483.18C119.79 12.78 13 119.62 13 251s106.79 238.14 238.13 238.14S489.31 382.29 489.31 251 382.46 12.78 251.13 12.78z"/><path d="M126.25 234.09c-7.13 8.79-16.24 14.94-20.49 25.1-7.25 17.34-5.83 33.68 5.75 48.81 2.77 3.62 5.94 7 8.23 10.91 5.7 9.71 5.7 19.65.06 29.5-1 1.73-2.28 2.76-4.36 1.65-1.68-.89-2.18-2.68-1.06-4.61 6.16-10.53 3.25-20.67-3.82-28.58-6.8-7.6-12.17-16-14.16-26.23-3.3-16.95-.15-32.32 11.24-45.59 4.17-4.85 8.73-9.36 13-14.1 1.35-1.49 2.34-3.31 3.61-4.87 6.37-7.85 8.52-17.64 12.24-26.68 6.84-16.61 15.49-32.17 26.91-46a272.93 272.93 0 0121-22.47c11.58-11.16 24.36-20.78 39.16-27.39 4.73-2.11 9.52-4.09 14.33-6 2.33-.94 4-.3 4.64 1.52s-.31 3.39-2.41 4.35c-7.55 3.42-15.18 6.68-22.57 10.4a94.76 94.76 0 00-21.59 15.34c-5.53 5.12-11.2 10.12-16.45 15.52a166.65 166.65 0 00-35.16 52.75c-3.91 9.49-7.68 19.05-11 28.77-1.1 3.26-.81 7.1-.65 10.66.19 4.46.82 8.91 1.39 13.35.93 7.17 1.68 14.38 3 21.48 2 10.55 4.15 21.08 6.67 31.52 3 12.63 9.16 23.91 17 34.16a280.79 280.79 0 0018.94 22.37 235 235 0 0021.51 20.48c11.67 9.61 23.78 18.71 36 27.63 4.9 3.58 10.83 5.22 17 5.93 12.54 1.45 23.09-3.06 32.73-10.5q13.18-10.27 26.36-20.59c2.45-1.91 4.73-4 7.07-6.09 1.56-1.37 3.16-1.42 4.49.14s1 3.21-.57 4.5c-6.48 5.49-12.82 11.14-19.51 16.35-7 5.43-14.11 10.63-21.45 15.53a43.77 43.77 0 01-21.7 7c-14.27 1-26.12-4.65-36.92-13.26-10.51-8.38-21.44-16.29-31.42-25.26-9.73-8.74-18.7-18.37-27.63-27.95a133.9 133.9 0 01-21.35-31.13 105.68 105.68 0 01-8.71-26.15c-2.29-10.92-4.49-21.87-6.34-32.87-1.08-6.41-1.43-12.95-2.08-19.43-.32-3.06-.58-6.17-.93-9.97zm259.46-7.32c-1.25-3.3-2.44-6.63-3.74-9.9a238.39 238.39 0 00-26.4-49.47 197.88 197.88 0 00-28.47-32.26c-14.08-12.81-30-22.8-46.42-32.23-9.29-5.35-18.77-10.36-28.12-15.6a4.75 4.75 0 01-2.36-2.52 3.56 3.56 0 011.24-3.08 4.3 4.3 0 013.58 0c6.34 3.28 12.66 6.6 18.82 10.2 11.41 6.66 23 13.12 33.94 20.42a218.07 218.07 0 0123.46 18.32c25 22.07 42.21 49.64 55 80.16 1 2.39 1.82 4.86 3 7.16 3.09 6.11 2.05 12.49 1.52 18.86-.37 4.47-.55 9-1.08 13.4q-1.32 11.13-3 22.2a7.89 7.89 0 01-2.15 3.51 2.14 2.14 0 01-2.11.28c-.86-.69-1.94-1.79-1.93-2.71a65.26 65.26 0 01.89-7.71c.66-5.16 1.42-10.3 1.95-15.47.75-7.46 1.33-14.94 2-22.41v-1z"/><path d="M261.29 347.65A82.68 82.68 0 01229 341c-2.93-1.26-3.62-3.29-1.64-5.73 3.1-3.83 6.09-7.88 9.82-11 4.7-3.95 10.57-4.29 16.36-2.52a20.71 20.71 0 0012.13.25c9.41-2.63 16.87.38 22.85 8.67 1.19 1.65 2.43 3.26 3.58 4.93 1.55 2.25 1.18 3.89-1.33 5.08a68.17 68.17 0 01-19.41 5.87c-3.93.6-7.92.87-10.07 1.1zm23.51-11.3c-1-1.31-1.82-2.4-2.62-3.51a12.19 12.19 0 00-13.7-5 27 27 0 01-16.7 0c-6.93-2.31-14.27 1.55-17 8.51 13.33 6.09 33.89 6.9 50.02 0zm53.48-12.46c14.1.16 24.13 10.77 24 24.22-.1 15.13-11.28 23.89-23.43 24.19-16 .33-25.37-11.74-24.92-25.1.47-14.2 11.07-23.31 24.35-23.31zm-.59 43.92c10.57.39 19.92-8.37 20.42-18.94.51-10.81-8.64-20.75-20.35-20.61-10.35.13-19 8.63-19.61 18.26a19.83 19.83 0 0019.54 21.29zm-2.83-136.39c1.7 2.21 3.44 4.2 4.87 6.41a2.74 2.74 0 01-1.12 4.3c-1.85 1-3.27.26-4.56-1.48a22.24 22.24 0 00-4.25-4.14c-2.11-1.64-4.46-1-6.87-.48a41.64 41.64 0 01-21.12-1.29c-5.17-1.58-10.42-2.9-15.61-4.4-2.5-.72-3.35-2.05-2.8-4s2-2.68 4.54-2c4.13 1.11 8.21 2.45 12.36 3.47 4.39 1.08 8.8 2.39 13.27 2.73 8.66.66 16.14-2.6 22.85-8a17.34 17.34 0 0121.24-.13c1.64 1.28 2 2.87.92 4.43s-2.6 1.84-4.47.66c-5.67-3.56-10.43-3.08-15.58 1.24-1.29 1.08-2.72 1.99-3.67 2.68zm-153.54.03c-1.91-1.43-3.88-3.12-6.06-4.5a11.05 11.05 0 00-11.19-.61c-.81.38-1.54.94-2.32 1.39a2.73 2.73 0 01-4.05-.94 3.12 3.12 0 01.7-4.37c6-4.75 15.87-4.66 21.73.28 6.63 5.58 14.25 8.7 22.86 7.81 6-.62 11.83-2.52 17.71-3.94 2.5-.61 4.92-1.55 7.42-2.19 1.84-.48 3.69-.35 4.56 1.72.79 1.88-.31 3.65-2.79 4.33-7.55 2.09-15.07 4.37-22.72 6a33.83 33.83 0 01-14.8-.51 8.9 8.9 0 00-10.17 4.36c-1.18 2.06-2.92 2.84-4.54 2s-2.27-2.92-1-4.92a70.87 70.87 0 014.66-5.91zm206.47 98.41c-9.28.62-18.46-8-18.61-17.86-.18-12.14 8.49-19.61 18.05-19.89a18.64 18.64 0 0119.51 18c.32 11.8-8.64 20.22-18.95 19.75zm.78-4.25c7.6-1 13-4.72 13.79-15.28.48-6.68-6.8-13.88-14.81-13.72-7.27.15-13.23 4.7-14 15.08-.46 6.84 6.71 13.38 15.02 13.92zM318.35 174c6.41.63 12.82 1.25 19.23 1.9a2.72 2.72 0 012.73 3.31c-.23 1.93-1.45 2.75-3.42 2.65-7.34-.39-14.68-.86-22-1-8.88-.21-17.56 1.08-25.38 5.54a54 54 0 00-8.6 6.68c-1.58 1.38-3.1 1.55-4.56.39a2.76 2.76 0 01-.46-4.12c3.45-4.64 8.24-7.56 13.36-9.9 9.21-4.28 19.05-5.23 29.1-5.45zm-88.77 20.62a11.87 11.87 0 01-2.51-1.47c-6.38-6.7-14.33-10.05-23.35-11.39a107.1 107.1 0 00-29.33 0 21.35 21.35 0 01-3.89.37c-1.7-.09-3-1-3-2.86 0-1.67.75-3.14 2.5-3.34 9.09-1 18.15-1.93 27.36-1.15 7.6.64 14.93 1.83 21.85 5.06a34.71 34.71 0 0112 8.64 6.07 6.07 0 01.92 4.14c-.13.71-1.58 1.27-2.55 2zm30.18 173.76c-4.85-.84-10-1-14.49-2.72-3.9-1.47-7.27-4.53-10.57-7.25-.76-.62-.8-3-.27-4.11.7-1.48 2.46-1.79 4-.69a67.74 67.74 0 015.79 4.44 13.39 13.39 0 008.73 3.24c5.3.2 10.62-.15 15.93-.4 3.89-.19 6.74-2.57 9.56-4.93.94-.79 1.86-1.59 2.85-2.3 1.5-1.05 3.27-.93 4 .54.58 1.1.66 3.45-.07 4.11-5 4.55-10.2 8.92-17.55 9-2.61 0-5.21.37-7.81.57zm20.99-82.95c-1 1.63-1.56 3.39-2.75 4.21-4.42 3.05-8.47 6.85-14.08 7.78-6.32 1-12.46.82-17.94-3a91.9 91.9 0 01-7.94-6.06c-1.25-1.08-1.9-2.9-.73-4.36a5.5 5.5 0 013.26-1.46c.59-.1 1.5.58 2 1.14 4.34 5 9.63 8.09 16.37 8.11a16 16 0 0010.74-4 60 60 0 015-4.34 4.87 4.87 0 013.54-.77c.91.26 1.53 1.61 2.53 2.75zm44.79-2.81c-.07-6.71 5.56-13 11.88-12.89 8.36.14 13.18 5.88 13.36 12.52.2 7.35-5.62 13-13.08 13-6.43.07-12.09-5.82-12.16-12.63zm20.74.19c.18-4.55-3.48-8.3-8.48-8.68-3.64-.27-7.63 3.86-7.79 8.05s3.38 8.45 7.41 8.64a8.57 8.57 0 008.86-8.01zm-12.68 29.75c.29-9 6.74-15.54 16.24-15.72 7.09-.14 14.44 5.87 15.23 14.12.58 6-1.58 10.75-6.19 14.54-1.12.91-2.06 1-3 .06-1.14-1.1-.69-2.17.23-3.21a28 28 0 003.08-3.75 11.42 11.42 0 00-1.85-14.13 10.77 10.77 0 00-13.22-1.84c-5 2.9-7.22 7.9-5.75 13.22.15.54.56 1.14.43 1.6a15.54 15.54 0 01-1.22 2.58c-.83-.44-2.13-.7-2.38-1.36a48.91 48.91 0 01-1.6-6.11zm47.75 22.18c8 .13 11.79 5 12.13 11.14.35 6.35-6.31 12.46-12.65 12.34-5.48-.1-11.16-5.83-11.15-11.13.03-7.88 5.01-11.96 11.67-12.35zm7.77 11.78c0-4.23-3.59-8-7.55-7.78-4.29.21-7.17 2.73-7.54 7.72-.28 3.88 4 7.65 8.15 7.52 3.15-.1 6.96-4.2 6.94-7.46zm-12.21-65.98a49 49 0 00-1.69-5.84c-1.22-2.89-3.85-3.73-6.68-3.45a7.18 7.18 0 00-6.49 5.21 6.88 6.88 0 002.07 7.78 11.72 11.72 0 005.05 2.09c1.49.32 2.62.83 2.45 2.37s-1.26 2.07-2.84 2a11.93 11.93 0 01-5.11-22.51c4.94-2.52 11-1.6 14.21 2.74 2.17 2.94 3.62 6.51 2.74 10.35-.23 1-1.58 1.72-2.41 2.58-.8-.91-1.59-1.82-2.39-2.72zm-64.44 8.82c5.4 0 10.19 4.54 10.14 9.56a10.25 10.25 0 01-10.5 10.52c-4.72 0-9.87-5.21-9.76-9.88a10.37 10.37 0 0110.12-10.2zm-.1 4.41a5.76 5.76 0 00-5.55 5.68 5.76 5.76 0 0011.51-.33c-.05-2.86-2.87-5.39-5.96-5.35z"/></g></svg>