<svg viewBox="0 0 500 500" xmlns="http://www.w3.org/2000/svg"><g fill="#fff"><path d="M246 488.79c-130.14 0-236-105.87-236-236s105.86-236 236-236 236 105.87 236 236-105.9 236-236 236zM246 28C122 28 21.21 128.85 21.21 252.79S122 477.55 246 477.55s224.73-100.83 224.73-224.76S369.9 28 246 28z"/><path d="M166.75 297.63a24.86 24.86 0 013.35-5.43c2.41-3.17 5.6-6.69 8.33-10.35a35.81 35.81 0 003.66-5.77 18.86 18.86 0 001.52-4.51l75.46-75.47 12.28 12.29-75.48 75.48a18.14 18.14 0 00-3 .85 34.11 34.11 0 00-7.68 4.71c-3.63 2.76-7.14 5.92-10.29 8.24a32.43 32.43 0 01-4.23 2.68 6.88 6.88 0 01-2.55.76l-.55-.11a2.14 2.14 0 01-.68-.48 3.45 3.45 0 01-.49-.67l-.12-.52a5.23 5.23 0 01.43-1.7m117.43-160.15L330 183.32l-22.39 22.41-45.86-45.85zm47-13.43a8.57 8.57 0 016.12-2.55 8.69 8.69 0 018.7 8.7 8.81 8.81 0 01-2.54 6.15l-22.76 22.75-12.29-12.3zm-30.88 98.63l-55.49-55.47 5.1-5.06 4.19 4.18 47.06 47.07 4.17 4.18zm-140.42 84.91a12.52 12.52 0 003.9 2.64 11.39 11.39 0 004.42.88 15.23 15.23 0 005.35-1.09 34.16 34.16 0 007.9-4.7c3.69-2.79 7.2-6 10.34-8.28a28.82 28.82 0 014.15-2.69 5.46 5.46 0 012.32-.74 4.94 4.94 0 003.51-1.46l76.92-76.91 15.14 15.12a9.09 9.09 0 0012.9 0l-3.55-3.55 3.57 3.54 6.31-6.31a9 9 0 001.37-11l23.67-23.66a8.32 8.32 0 002.38-5.89 9.37 9.37 0 00-2.77-6.61l-10.34-10.33 23.15-23.13A18.69 18.69 0 00324 117l-23.1 23.11-10.3-10.32A9.31 9.31 0 00284 127a8.33 8.33 0 00-5.92 2.41l-23.66 23.66a9 9 0 00-11 1.41l-6.31 6.29a9.05 9.05 0 000 12.92l15.1 15.13-76.87 76.91a5 5 0 00-1.48 3.55 4.53 4.53 0 01-.41 1.64 24.16 24.16 0 01-3.36 5.41c-2.4 3.17-5.6 6.68-8.33 10.36a40.51 40.51 0 00-3.66 5.78 16.17 16.17 0 00-1.75 6.88 11.2 11.2 0 00.87 4.39 12.58 12.58 0 002.63 3.87M144 373.38c2.13-9.05 8-22 13.59-32.42 2.75-5.22 5.46-9.81 7.55-13a3.37 3.37 0 00.19-.32c1.23 1.85 2.63 4.12 4.16 6.8a223.73 223.73 0 0112.15 24.31 114.48 114.48 0 014.4 12.08 35.17 35.17 0 011.61 8.92 28.7 28.7 0 01-6.78 18.8 19.9 19.9 0 01-31 0 28.53 28.53 0 01-6.87-18.81 28.22 28.22 0 01.92-6.36M165.3 416a30.56 30.56 0 0023.07-10.86 38.48 38.48 0 009.2-25.36 39.06 39.06 0 00-1.18-8.71c-2.62-10.67-8.7-23.9-14.47-34.79-2.91-5.42-5.71-10.22-8-13.76-1.18-1.77-2.18-3.21-3.11-4.37a15.23 15.23 0 00-1.5-1.62 7 7 0 00-1.13-.87 5.49 5.49 0 00-2.86-.81 5.39 5.39 0 00-3.06.94 10.76 10.76 0 00-2 1.8 44.49 44.49 0 00-3.16 4.3 222.72 222.72 0 00-14.89 27.47 150.82 150.82 0 00-6.41 16.13c-1.65 5.17-2.78 9.93-2.81 14.29a38.52 38.52 0 009.25 25.36 30.48 30.48 0 0023 10.86"/><path d="M160.77 404.74a5 5 0 003.29-9.44c-4.78-1.64-8.91-6.79-9.59-13.48a5 5 0 10-9.95 1c1.06 10.09 7.24 18.7 16.25 21.88M54.62 381.043L411.71 87.099l7.144 8.678-357.09 293.944z"/></g></svg>