<svg viewBox="0 0 500 500" xmlns="http://www.w3.org/2000/svg"><g fill="#fff"><path d="M250.15 499.58c-135.1 0-245-109.91-245-245s109.9-245 245-245 245 109.91 245 245-109.91 245-245 245zm0-483.29c-131.4 0-238.29 106.9-238.29 238.29s106.89 238.28 238.29 238.28S488.43 386 488.43 254.58 381.54 16.29 250.15 16.29z"/><path d="M363.51 365.06h-4v-38.48h-31.2l33.19-33.2 33.19 33.2h-31.18zM338 322.55h47l-23.5-23.48zm-90.5 42.51h-4v-38.48h-31.2l33.19-33.2 33.2 33.2H247.5zM222 322.55h47l-23.48-23.48zm-90.5 42.51h-4v-38.48H96.29l33.2-33.2 33.19 33.2H131.5zM106 322.55h47l-23.47-23.48zm290-58H95v-4h301zm.58-22.31a14.09 14.09 0 01-14.08-14.07 10 10 0 10-20.1 0 14.07 14.07 0 11-28.14 0 10 10 0 10-20.09 0h-4a14.07 14.07 0 1128.14 0 10 10 0 1020.1 0 14.07 14.07 0 1128.14 0 10.07 10.07 0 0010.06 10.05zm-96.49 0A14.08 14.08 0 01286 228.17h4a10.05 10.05 0 0020.1 0h4a14.09 14.09 0 01-14.05 14.07zm-48.24 0a14.09 14.09 0 01-14.08-14.07 10 10 0 10-20.09 0 14.08 14.08 0 01-28.15 0h4a10 10 0 1020.09 0 14.08 14.08 0 1128.15 0 10.05 10.05 0 0020.1 0h4a14.08 14.08 0 01-14.06 14.07zm-96.48 0a14.09 14.09 0 01-14.08-14.07 10 10 0 10-20.09 0 14.08 14.08 0 01-28.15 0h4a10 10 0 1020.09 0 14.08 14.08 0 1128.15 0 10 10 0 1020.09 0 14.08 14.08 0 1128.15 0h-4a10 10 0 10-20.09 0 14.08 14.08 0 01-14.11 14.07zM290 228.17h-4a10 10 0 00-20.1 0h-4a14.07 14.07 0 1128.14 0zm106-35.6H95v-4h301z"/></g></svg>