<svg viewBox="0 0 500 500" xmlns="http://www.w3.org/2000/svg"><g fill="#fff"><path d="M247.33 496c-135.09 0-245-109.91-245-245S112.24 6 247.33 6s245 109.9 245 245-109.9 245-245 245zm0-483.18C116 12.78 9.15 119.62 9.15 251S116 489.14 247.33 489.14 485.51 382.29 485.51 251 378.67 12.78 247.33 12.78z"/><path d="M345.63 330.85h-1.59L338.11 313l.91-1a82.82 82.82 0 0022.4-56.75 84.13 84.13 0 00-60.2-80.46l-2.75-.8 16.4-28.42a3.87 3.87 0 00-1.41-5.27l-7.24-4.18 8.35-14.47 7.24 4.18a3.89 3.89 0 002.93.39 3.82 3.82 0 002.34-1.8l12.22-21.16a3.87 3.87 0 00-1.41-5.26l-42.32-24.4a3.87 3.87 0 00-5.27 1.4l-12.22 21.17a3.88 3.88 0 001.41 5.28l7.24 4.17-8.36 14.47-7.23-4.17a3.8 3.8 0 00-2.93-.39 3.87 3.87 0 00-2.35 1.8l-46.93 81.29-7.23-4.17a3.86 3.86 0 00-5.28 1.41L194.2 217a3.84 3.84 0 00-.38 2.93 3.76 3.76 0 001.8 2.34l63.47 36.65a3.86 3.86 0 005.28-1.41l12.21-21.16a3.85 3.85 0 00-1.41-5.27l-7.24-4.18 6.24-10.79 1.18-.09a38.29 38.29 0 0129.12 10.3 39.7 39.7 0 0112.58 29 38.7 38.7 0 01-5.21 19.44l-1.06 1.83-1.89-.95a54.68 54.68 0 00-58.48 5.88l-.61.48h-60.39a28.15 28.15 0 00-25.31 15.64l-5.46 10.93a3.83 3.83 0 00.17 3.75 3.89 3.89 0 003.29 1.83H230l-5.57 16.71h-86.8a16.09 16.09 0 00-16.08 16.08v30.54a3.86 3.86 0 003.86 3.86h232.15a3.87 3.87 0 003.86-3.86v-30.56a16.16 16.16 0 00-15.79-16.07zM286.7 96.69l8.35-14.47 35.63 20.57-8.35 14.47zm6.72 12.79l14.47 8.36-8.36 14.47-14.47-8.31zM268 235.85l-8.36 14.47-56.79-32.78 8.36-14.47zm-6.72-12.79l-35.63-20.57 45-77.95 24 13.84 1.72 1 .32.19.34.19 1 .56h.08l.27.16 1 .56h.06l.22.13.65.37.13.08h.1l.17.1 3.46 2 1.94 1.13zm21.05-14.65l-3.5-.31 15.59-27.1 1.64.4a75.63 75.63 0 0157.63 73.86 74.56 74.56 0 01-16.05 46.52l-2.26 2.87-1.54-3.31a55.11 55.11 0 00-15.1-19.34l-1.5-1.23 1-1.67a46.32 46.32 0 006.54-23.82c-.01-24.14-18.66-44.73-42.48-46.87zm2 69.08a46.92 46.92 0 0144.57 32.12l7.08 21.23H232.61l7.08-21.23a46.92 46.92 0 0144.57-32.12zM167.1 306.41l3.11-3.72c5-10.79 13.21-13.05 19.2-13.05h52.4l-2.45 3.53a55 55 0 00-6.21 11.8l-.55 1.44zm186.59 67.19H129.31v-26.68a8.36 8.36 0 018.36-8.35h207.67a8.35 8.35 0 018.35 8.35z"/></g></svg>