<svg viewBox="0 0 500 500" xmlns="http://www.w3.org/2000/svg"><g fill="#fff"><path d="M245.62 488.79c-130.13 0-236-105.88-236-236s105.87-236 236-236 236 105.87 236 236-105.87 236-236 236zm0-460.77C121.69 28 20.86 128.85 20.86 252.79s100.83 224.76 224.76 224.76 224.76-100.83 224.76-224.76S369.55 28 245.62 28z"/><path d="M136.33 251.1H354.9v4.12H136.33zm26.15-98.94c-1.42-3.73-2.76-7.49-4-11.32s-2.5-7.69-3.69-11.62v91.63h-9.13V121.5h15.15l21 56.35c1.58 4.47 3.09 8.76 4.46 12.84s2.63 8.07 3.76 11.92c-.26-3-.48-6-.61-9.14s-.21-7.32-.21-12.61V121.5h9.12v99.35H188.1zm83.1-23.35c-5.87 0-10.15 3.23-12.89 9.65s-4.14 16.56-4.14 30.33q0 23.69 4 34.16c2.69 7 7 10.46 13 10.46s10.15-3.35 12.89-10.07 4.06-17.44 4.06-32.21-1.35-25.39-4.06-32.14-7-10.18-12.89-10.18m0 94q-13.87 0-20.93-13.11t-7.07-38.55q0-25.47 7.07-38.5t20.93-13q13.8 0 20.93 13t7.14 38.47q0 25.44-7.14 38.55t-20.93 13.11m64.26-70.62c-1.42-3.73-2.76-7.49-4.05-11.32s-2.52-7.69-3.71-11.62v91.63h-9.13V121.5h15.18l21 56.35c1.61 4.47 3.09 8.76 4.46 12.84s2.65 8.07 3.79 11.92c-.29-3-.51-6-.62-9.14s-.22-7.32-.22-12.61V121.5h9.14v99.35h-10.21zm-124.3 231.61l-2.39-5.45a18.09 18.09 0 01-7.07 5.74 23.35 23.35 0 01-9.77 1.9c-9.8 0-17.25-4.39-22.27-13.13s-7.56-21.63-7.56-38.66 2.55-29.74 7.55-38.49 12.47-13.09 22.27-13.09q12.5 0 19.87 8.93c4.89 6 7.37 14 7.37 24.22a3.4 3.4 0 01-.16.53.33.33 0 00.16.27h-16c-.13-6.4-1.14-11.23-3-14.45a9 9 0 00-8.27-4.84q-6.65 0-9.75 9c-2.1 6-3.12 15.31-3.12 27.94q0 19.49 3.33 28.45t10.5 8.95a8.74 8.74 0 007.5-4.05c1.87-2.68 2.81-6.34 2.81-10.95V347h-11.23v-13.35h27.24v50.12zm23.14 0v-99.25h22.54l11.52 52.37a82.8 82.8 0 011.26 8.68c.36 3.77.75 8.25 1.11 13.48q.16-7.44.64-13.26a70.89 70.89 0 011.27-9.18l11.67-52.09h22.23v99.25h-15.67l.16-64.11c0-.8.11-3 .3-6.47s.51-8.44.91-14.8c-.4 2.3-.89 5-1.5 8.07s-1.4 7.32-2.5 12.68l-13.51 64.63h-8.75l-13.5-64.63c-1.07-5.36-1.93-9.58-2.51-12.68s-1.09-5.77-1.48-8.07l.9 14.8c.22 3.52.3 5.67.3 6.47l.16 64.11zm103.29-49.6c0 12.7 1 22 3.12 28s5.31 9 9.76 9 7.69-3 9.76-9 3.12-15.31 3.12-28-1-21.94-3.12-27.94-5.32-9-9.76-9-7.7 3-9.76 9-3.12 15.32-3.12 27.94m-17 0q0-25.37 7.55-38.49c5.05-8.72 12.51-13.09 22.31-13.09s17.25 4.37 22.28 13.09 7.55 21.58 7.55 38.49-2.52 29.92-7.55 38.66S334.63 386 324.82 386s-17.26-4.39-22.31-13.13-7.51-21.67-7.51-38.7"/></g></svg>