<svg viewBox="0 0 500 500" xmlns="http://www.w3.org/2000/svg"><g fill="#fff"><path d="M250.59 496C115.5 496 5.6 386.05 5.6 251S115.5 6 250.59 6s245 109.91 245 245-109.9 245-245 245zm0-484.24C118.68 11.72 11.36 119 11.36 251s107.32 239.19 239.23 239.19S489.83 382.88 489.83 251 382.51 11.72 250.59 11.72z"/><path d="M250.59 349.72h.01l-.01-.01zm156.17-107.85c-4.74-59.4-44-111.62-100.12-133a156.82 156.82 0 00-56.29-10.74c-21.25 0-42.42 4.6-63.32 13.8a151 151 0 00-45.95 31.82l-6.19 5 23.35 20-71.34 21.76 11.59-73.29 23.08 20.19L125 134c35.72-35.58 79.35-52.94 130-51.64 37.24 1 71.06 12.76 100.54 35.06s50.31 52 61.61 88.11c5.25 16.76 7.56 39.18 7.79 52.21-6.08-5.29-12.18-10.59-18.18-15.87z"/><path d="M402.37 392.82l-23.83-21.08-3.45 3.49c-35 35.42-75 53-122.52 53.82-34 .61-65.06-7.87-92.33-25.11-55.35-35-82.91-84.57-84-151.26l.8.7c5.65 4.91 11.3 9.83 17.11 15.07 4 42.05 22 77.3 53.54 104.77 29.2 25.42 63.63 38.41 102.33 38.6 37.87.07 73.11-13.36 104-40.26 1.66-1.45 3.27-2.93 4.93-4.47l6.56-6-22.86-19.66L414 319.61z"/></g></svg>