<svg viewBox="0 0 500 500" xmlns="http://www.w3.org/2000/svg"><g fill="#fff"><path d="M250 499.58c-135.09 0-245-109.91-245-245s109.91-245 245-245 245 109.91 245 245-109.91 245-245 245zm0-483.29c-131.39 0-238.28 106.9-238.28 238.29S118.61 492.87 250 492.87 488.29 386 488.29 254.58 381.39 16.29 250 16.29z"/><path d="M250 378.4a2 2 0 01-2-2v-42.09h-28.88a2 2 0 01-1.42-3.44L248.58 300a2 2 0 012.84 0l30.88 30.85a2 2 0 01-1.42 3.44H252v42.07a2 2 0 01-2 2.04zm0-48.12h26l-26-26-26 26zm0-120.54a2 2 0 01-1.43-.59l-30.86-30.86a2 2 0 011.42-3.44H248v-42.07a2 2 0 114 0v42.07h28.86a2 2 0 011.43 3.44l-30.88 30.86a2 2 0 01-1.41.59zm-26-30.86l26 26 26-26zm-51.71 108.59a2.07 2.07 0 01-.77-.15 2 2 0 01-1.25-1.86V256.6H128.2a2 2 0 110-4h42.07v-28.89a2 2 0 013.44-1.42l30.86 30.88a2 2 0 010 2.84l-30.86 30.87a2 2 0 01-1.42.59zm2-58.89v52l26-26zm153.43 58.88a2 2 0 01-1.43-.59L295.44 256a2 2 0 010-2.84l30.85-30.87a2 2 0 013.44 1.43v28.85h42.08a2 2 0 010 4h-42.08v28.87a2 2 0 01-1.24 1.86 1.89 1.89 0 01-.77.16zm-28-32.89l26 26v-52z"/></g></svg>