<svg viewBox="0 0 500 500" xmlns="http://www.w3.org/2000/svg"><g fill="#fff"><path d="M248.06 490.29c-130.13 0-236-105.88-236-236s105.87-236 236-236 236 105.87 236 236-105.86 236-236 236zm0-460.77C124.13 29.52 23.3 130.35 23.3 254.29s100.83 224.76 224.76 224.76 224.77-100.83 224.77-224.76S372 29.52 248.06 29.52z"/><path d="M284.89 202.61a6.45 6.45 0 001.85-9 6.66 6.66 0 00-9.15-1.82c-32 21-54.11 58.82-63.84 109.46a301 301 0 00-5.15 70.26 6.58 6.58 0 006.59 6.06h.45a6.55 6.55 0 006.15-6.93c-.08-1.22-7.52-121.78 63.1-168"/><path d="M173.19 287.36a6.65 6.65 0 009 2.4 6.47 6.47 0 002.43-8.9c-.33-.56-32.22-56.42 6.55-100.92 31.33-36 99.82-36.72 127.22-35.46-6.67 9.92-14.89 25.3-11.83 37.36 1.89 7.5 6.75 55.23-17.54 85.89-13.4 16.92-33.56 25.49-59.93 25.49a6.51 6.51 0 100 13c30.65 0 54.31-10.25 70.35-30.49 27.87-35.21 22.2-88.11 19.93-97.07S328.3 152 335.88 143a6.39 6.39 0 001.06-6.59 6.6 6.6 0 00-5.37-4c-4.32-.48-106.36-11.44-150.4 39.1-18.59 21.34-25.85 48.2-21 77.69a121.46 121.46 0 0013 38.21"/></g></svg>