<svg viewBox="0 0 500 500" xmlns="http://www.w3.org/2000/svg"><g fill="#fff"><path d="M248.64 496c-135.09 0-245-109.91-245-245S113.55 6 248.64 6s245 109.9 245 245-109.91 245-245 245zm0-483.18C117.31 12.78 10.46 119.62 10.46 251s106.85 238.14 238.18 238.14S486.82 382.29 486.82 251 380 12.78 248.64 12.78z"/><path d="M371.81 288a9.74 9.74 0 00-11.81 7.2 117.49 117.49 0 01-228.59-.12 9.79 9.79 0 10-19 4.49 137.05 137.05 0 00266.67.16 9.76 9.76 0 00-7.27-11.73z"/><circle cx="167.45" cy="189.66" r="19.57"/><circle cx="324.05" cy="189.66" r="19.57"/></g></svg>