<svg viewBox="0 0 500 500" xmlns="http://www.w3.org/2000/svg"><g fill="#fff"><path d="M250.81 496c-135.09 0-245-109.91-245-245S115.72 6 250.81 6s245 109.91 245 245-109.91 245-245 245zm0-483.18C119.47 12.78 12.63 119.62 12.63 251s106.84 238.14 238.18 238.14S489 382.29 489 251 382.14 12.78 250.81 12.78z"/><path d="M65.34 286.76h375.97v13.64H65.34zm29.93 67.61a4.93 4.93 0 01-1.81-.34 5 5 0 01-1.62-1.03 4.88 4.88 0 010-6.87 6 6 0 01.76-.61 4.12 4.12 0 01.8-.43 4.86 4.86 0 011-.29 4.76 4.76 0 011.84 0 3.9 3.9 0 01.89.27 4.1 4.1 0 01.93.52 4.2 4.2 0 01.63.51 4.85 4.85 0 01-3.4 8.3zm.16-5.67h-.05l-.6.11a.88.88 0 00-.34.67.86.86 0 00.25.6l.58.24a.79.79 0 00.57-.25.8.8 0 00.26-.59.82.82 0 00-.23-.57zm35.46 46.02a4.82 4.82 0 01-3.41-1.41 3.88 3.88 0 01-.64-.79 4.71 4.71 0 01-.43-.78 4.57 4.57 0 01-.24-.82 5.17 5.17 0 01-.12-1 4.93 4.93 0 01.09-.87 4.76 4.76 0 01.33-1.06 4.46 4.46 0 01.37-.69 4.06 4.06 0 01.69-.83 4.78 4.78 0 013.35-1.32 4.87 4.87 0 013.42 1.37 4.48 4.48 0 01.6.7 5.72 5.72 0 01.46.86 4 4 0 01.29 1.08 2.86 2.86 0 01.07.76 5.29 5.29 0 01-.07.9 5.66 5.66 0 01-.31 1 4.32 4.32 0 01-.43.77 4.2 4.2 0 01-.61.73 4.84 4.84 0 01-3.41 1.4zm0-5.58a.84.84 0 00-.57.2h-2.2l2 .57.16.46a.83.83 0 001.26.06l.22-.55-.18-.5a.89.89 0 00-.68-.24zm29.21-34.77a4.85 4.85 0 01-4.83-4.84 4.83 4.83 0 015.82-4.75 4.87 4.87 0 011.81.79 4.73 4.73 0 01.67.56 4.94 4.94 0 011.4 3.4 4.94 4.94 0 01-.38 1.84 5 5 0 01-.42.8 5.21 5.21 0 01-.66.8 4.23 4.23 0 01-.68.56 5.72 5.72 0 01-.78.45 4.4 4.4 0 01-1 .29 5 5 0 01-.95.1zm.23-4l2.14.77-1.7-1.06h2.13l-2-.56a.9.9 0 00-.28-.61c-.67-.26-1-.17-1.16 0a.89.89 0 00-.22.59.82.82 0 00.23.58.83.83 0 00.58.25zm35.41 44.35a4.85 4.85 0 01-3.43-1.42 7.88 7.88 0 01-.59-.72 4.39 4.39 0 01-.46-.85 3.94 3.94 0 01-.29-1.08 2.65 2.65 0 01-.07-.78 4.09 4.09 0 01.13-1.08 2.77 2.77 0 01.23-.76 5.24 5.24 0 01.47-.87 5.94 5.94 0 01.5-.63 4.41 4.41 0 01.88-.7 4.47 4.47 0 01.76-.42 4.93 4.93 0 01.88-.27 4.84 4.84 0 014.42 1.33 3.87 3.87 0 01.63.77 5.05 5.05 0 01.43.79 4.3 4.3 0 01.29 1.12 2.57 2.57 0 01.06.72 3.81 3.81 0 01-.14 1.13 2 2 0 01-.22.75 3.89 3.89 0 01-.5.88 3.41 3.41 0 01-.61.71 4.72 4.72 0 01-3.37 1.38zm0-5.67h-.14l-.69.79-1.18 2 1.41-1.43a.84.84 0 001.17 0l.29-.61-.19-.49a1 1 0 00-.68-.26zm29.19-34.68a4.8 4.8 0 01-3.42-1.42 5.14 5.14 0 01-.57-.68 5.54 5.54 0 01-.49-.88 5.47 5.47 0 01-.26-.9 3.89 3.89 0 01-.1-1 4.93 4.93 0 011.4-3.41 5.32 5.32 0 01.8-.65 4.82 4.82 0 011.76-.71 4.62 4.62 0 011.85 0 4.29 4.29 0 01.89.27 3.8 3.8 0 01.9.51 4.45 4.45 0 01.61.49 5 5 0 011.47 3.48 4.86 4.86 0 01-1.4 3.42 5.19 5.19 0 01-.8.64 5.68 5.68 0 01-.67.39 5.25 5.25 0 01-1 .3 5.7 5.7 0 01-.97.15zm0-3.91l.06 1.9.16-2c.52-.36.61-.58.61-.8a1 1 0 00-.25-.61l-.76-.2c-.5.36-.6.59-.6.8l-1.54 1.58 1.74-1a.87.87 0 00.62.29zm35.66 44.26a4.79 4.79 0 01-3.43-1.43 4.53 4.53 0 01-.64-.78 4.34 4.34 0 01-.41-.78 4.79 4.79 0 01-.27-.86 5.22 5.22 0 01-.09-1 5.1 5.1 0 01.07-.87 5.65 5.65 0 01.29-1 4.94 4.94 0 01.41-.79 4.54 4.54 0 01.65-.78 4.78 4.78 0 014.38-1.33 6.1 6.1 0 01.88.27 5.16 5.16 0 01.86.47 3.49 3.49 0 01.77.64 3.55 3.55 0 01.61.75 6.92 6.92 0 01.39.77 5.27 5.27 0 01.27.88 6.14 6.14 0 01.1 1 5.3 5.3 0 01-.09.91 5.94 5.94 0 01-.29 1 5.25 5.25 0 01-.43.81 4.22 4.22 0 01-.61.73 4.77 4.77 0 01-3.42 1.39zm0-5.67a.83.83 0 00-.57.22l-.25.6.15.51a.81.81 0 001.25.08l.25-.59-.19-.53-.08-2.24-.4 2zm29.19-34.68a5.27 5.27 0 01-.89-.09 5.66 5.66 0 01-1-.26 5.55 5.55 0 01-.84-.48 4.8 4.8 0 01-.67-.54 4.87 4.87 0 01-1.47-3.48 5 5 0 011.39-3.41 7.17 7.17 0 01.81-.65 3.54 3.54 0 01.78-.42 5.21 5.21 0 011-.29 4.62 4.62 0 011.85 0 4 4 0 01.88.27 3.85 3.85 0 01.92.51 3.62 3.62 0 01.64.52 4.89 4.89 0 011.44 3.45 4.78 4.78 0 01-.08.84 4.88 4.88 0 01-.28 1 4.51 4.51 0 01-.47.87 5.07 5.07 0 01-.66.78 4.72 4.72 0 01-3.35 1.38zm-.22-5.65c-.51.36-.61.58-.61.8a.86.86 0 00.25.6l.58.24a.79.79 0 00.57-.25l2.21-.07-1.95-.52a.89.89 0 00-.26-.6zm35.85 46a4.81 4.81 0 01-3.43-1.43 3.83 3.83 0 01-.63-.78 3.68 3.68 0 01-.43-.78 5.33 5.33 0 01-.24-.83 3.75 3.75 0 01-.12-1 4 4 0 01.14-1.08 4.21 4.21 0 01.22-.76 6.35 6.35 0 01.41-.77 4.23 4.23 0 01.71-.86 3.78 3.78 0 01.71-.56 4.85 4.85 0 01.82-.44 5.09 5.09 0 01.84-.26 5.23 5.23 0 011.93 0 6.43 6.43 0 01.93.28 5.07 5.07 0 01.82.46 3.75 3.75 0 01.74.6 3.84 3.84 0 01.64.78 4.89 4.89 0 01.42.79 4 4 0 01.29 1.08 2.6 2.6 0 01.07.76 4.17 4.17 0 01-.14 1.13 2.39 2.39 0 01-.23.75 4.9 4.9 0 01-.42.78 4.17 4.17 0 01-.63.76 4.77 4.77 0 01-3.42 1.38zm.55-7.62l-.39 2-.67.2-.33.58.18.52a.8.8 0 001.24.08l.26-.6-.19-.49zm28.64-32.73a4.87 4.87 0 01-4.85-4.85 4.85 4.85 0 011.44-3.44 4.45 4.45 0 01.77-.62 4.57 4.57 0 01.78-.42 4.53 4.53 0 01.95-.28 4.42 4.42 0 011.88 0 4.29 4.29 0 01.89.27 3.87 3.87 0 011 .55 3.25 3.25 0 01.65.54 4.8 4.8 0 011.38 3.39 6.36 6.36 0 01-.06.87 5 5 0 01-.3 1 6.8 6.8 0 01-.42.8 5 5 0 01-.64.78 4.78 4.78 0 01-3.47 1.41zm-1.08-7.48l.68 1.91a.93.93 0 00-.43.72.78.78 0 00.24.58.82.82 0 001.18 0l.23-.59a.82.82 0 00-.23-.58l-.46-.24zm36.73 47.83a4.8 4.8 0 01-3.41-1.41 4.73 4.73 0 01-.61-.72 5.49 5.49 0 01-.46-.85 3.72 3.72 0 01-.28-1.07 2.46 2.46 0 01-.08-.77 3.89 3.89 0 01.14-1.08 2.38 2.38 0 01.22-.76 6.15 6.15 0 01.4-.76 4.67 4.67 0 01.72-.85 4.8 4.8 0 013.36-1.32 4.8 4.8 0 013.41 1.38 3.8 3.8 0 01.64.77 5.25 5.25 0 01.4.78 6.44 6.44 0 01.28.88 5.91 5.91 0 01.1 1A3.86 3.86 0 01395 391a4.89 4.89 0 01-.24.78 4.71 4.71 0 01-.47.82 3.75 3.75 0 01-.63.73 4.76 4.76 0 01-3.41 1.39zm0-5.58a.82.82 0 00-.58.21l-.25.54-1.17 2 1.41-1.43a.84.84 0 001.18 0l.26-.57 1.51-1.54-1.7 1.07a.92.92 0 00-.65-.27zm29.19-34.77a4.75 4.75 0 01-3.43-1.44 4.06 4.06 0 01-.56-.66 5.11 5.11 0 01-.49-.88 4.73 4.73 0 01-.29-1.08 2.84 2.84 0 01-.07-.78 4.79 4.79 0 011.45-3.45 4.87 4.87 0 014.35-1.29 4.41 4.41 0 01.92.27 4.13 4.13 0 01.95.56 2.83 2.83 0 01.57.46 4.82 4.82 0 011.45 3.45 4.26 4.26 0 01-.13 1.07 2.88 2.88 0 01-.23.77 6.25 6.25 0 01-.45.85 6.63 6.63 0 01-.69.8 4.71 4.71 0 01-1.44 1 5.11 5.11 0 01-1.91.35zm-.14-5.6a.58.58 0 00-.44.17.82.82 0 00-.24.59l-1.54 1.57 1.74-1a.82.82 0 001 .22l2.25.33-1.86-.77c.06-.52 0-.75-.17-.88a2.1 2.1 0 00-.74-.23zm-353.44-119h375.97v6.82H65.86zm0-26.87h375.97v5.45H65.86zm0 54.77h375.97v10.23H65.86z"/></g></svg>