<svg viewBox="0 0 500 500" xmlns="http://www.w3.org/2000/svg"><g fill="#fff"><path d="M245.62 496c-135.09 0-245-109.95-245-245S110.53 6 245.62 6s245 109.9 245 245-109.91 245-245 245zm0-483.18C114.28 12.78 7.44 119.62 7.44 251s106.84 238.14 238.18 238.14S483.8 382.29 483.8 251 377 12.78 245.62 12.78z"/><path d="M399.4 360.53c0-.33-.09-.66-.13-1a9.47 9.47 0 00-.63-2.83c-1.14-2.52-2.34-5-3.54-7.5-2.11-4.4-4.3-8.94-6.07-13.51-1.85-4.82-3.37-9.85-4.82-14.73-2.39-7.95-4.85-16.19-9-24-6.86-13-12.58-26.9-18.11-40.35q-3.22-7.87-6.54-15.72a10.67 10.67 0 01-.29-4.14c.08-2.21.2-4.43.32-6.64.22-4 .45-8.23.4-12.35a25.09 25.09 0 00-1.26-6.54c-.27-.89-.53-1.79-.74-2.69l-.36-1.55-5.23.81v7.42c.06 1.06.21 2.13.36 3.19.12.87.24 1.74.31 2.61 1 14.25-3.24 27.25-7.56 38.09-1.31 3.29-2.91 6.59-4.45 9.77-2.54 5.22-5.16 10.62-6.66 16.3a137.44 137.44 0 00-4.4 32.33c-.24 13-.22 26.7 2.72 39.41 1.12 4.83 2.31 9.64 3.49 14.45 3.63 14.72 7.38 29.94 9.06 45.29a30.58 30.58 0 001.27 5.4c.23.76.46 1.51.65 2.27l.39 1.46 4.69-.62.12-1.37c.05-.55.14-1.1.23-1.65a13.92 13.92 0 00.21-4.24c-.89-5.69-1.86-11.37-2.83-17q-1.08-6.28-2.11-12.58a193.92 193.92 0 00-5-20.7c-2.79-10-5.69-20.38-5.92-31.12l-.08-3.49c-.33-13.63-.66-27.73 3.15-40.78 3.05-10.45 7.29-20.35 11.77-30.84 1.44-3.36 2.88-6.75 4.29-10.16l25.3 56.06c.42.94.9 1.86 1.39 2.78a25.21 25.21 0 012.08 4.65c.9 3.11 1.67 6.25 2.45 9.39a149.45 149.45 0 004.32 15.27 129.49 129.49 0 007.91 16.62l2.15 4c.66 1.25 2 1.66 3.27 2a10.51 10.51 0 011.08.36l2.9 1.25zM148.46 212.39a4.72 4.72 0 00-.92-3.32 7.94 7.94 0 01-.46-.85l-.51-1.19-3.53.49-.38.88a36.17 36.17 0 00-2.5 19.11c1.19 8.77.31 15.67-2.87 22.39-6.26 13.22-12.26 26.83-18.06 40l-6.44 14.55a99.7 99.7 0 00-4.66 11.55c-1 3.25-1.87 6.54-2.76 9.83-3 11.13-5.83 21.65-12.76 30.79a5.46 5.46 0 00-.85 3.08c0 .32 0 .63-.08.92l-.19 1.09L94.8 364l1-1c.42-.43.88-.84 1.35-1.24a10.92 10.92 0 003.13-3.68c3.77-8.59 7.67-17.48 10.9-26.57a82.18 82.18 0 002.52-9.4 62 62 0 013.23-11.11c5-11.52 10.5-23.09 15.8-34.27q4-8.46 8-16.94c1.27-2.74 2.4-5.54 3.57-8.45a2.44 2.44 0 01.1-.24c.27.77.55 1.52.82 2.28 1.73 4.78 3.38 9.29 5.23 13.78 1.14 2.78 2.46 5.51 3.77 8.23a90.84 90.84 0 015.48 13c4.65 15.29 4.13 31.43 3.63 47.05-.08 2.37-.16 4.74-.22 7.11a46.11 46.11 0 01-1.94 12.82 344.74 344.74 0 00-12.92 59.28c-.06.47-.18 1-.3 1.51-.6 2.5-1.49 6.28 2.47 9.51l1.87 1.51.81-2.27c.24-.68.49-1.28.71-1.85a17.56 17.56 0 001.12-3.48c.79-4.4 1.47-8.82 2.16-13.24 1.37-8.85 2.79-18 5-26.74l.16-.63c4.44-17.67 9-35.94 8.46-55.08-.53-18-2.34-37.21-11.88-55.85-10.72-20.8-14-38.48-10.37-55.65zm100.97-74.33l-1.37-.27c-2-.38-3.51-.18-4.5.7-1.34 1.18-1.23 3-1.15 4.26v212.54a8.14 8.14 0 00.28 3 4.25 4.25 0 003.33 2.62h.14c1.6 0 2.91-1.95 3.13-3a11.64 11.64 0 00.16-3zM335.41 122c9.45-1.12 17.68 3.14 24.43 12.65a56.89 56.89 0 017.36 13.78c2.47 7 4.76 14.2 7 21.17 2.08 6.55 4.16 13.09 6.41 19.57 3.24 9.3 7 18.58 10.59 27.57l1.54 3.83a5.48 5.48 0 002.72 2.47 8.34 8.34 0 01.94.56l2.41 1.73.28-3c0-.32.1-.66.16-1a6.46 6.46 0 00.06-3.19c-.55-1.77-1.24-3.5-1.93-5.23-.48-1.21-1-2.41-1.39-3.63q-2.88-8.17-5.73-16.35c-3.31-9.47-6.61-18.92-10-28.35-.72-2-1.42-4-2.12-6a172 172 0 00-8.23-20.79c-8.48-17-21.39-24.46-39.56-22.63-.62-.1-1.39-.18-2.25-.26-2.33-.22-5.51-.52-7.83-1.87-10.92-6.36-22-13.47-33.9-21.74a16.76 16.76 0 01-7.41-14.79 11.82 11.82 0 00-.56-3.41 19.1 19.1 0 01-.32-1.25l-.77-3.65-2.25 3c-.28.36-.56.7-.85 1.06a15.89 15.89 0 00-2.1 3 6.73 6.73 0 00-.32 4.15A27.94 27.94 0 00283.28 98c1.78 1.26 3.54 2.57 5.29 3.87 2.91 2.17 5.91 4.4 9 6.41l3.08 2c10.19 6.56 20.68 13.44 34.76 11.72zM219.36 75.55a7.7 7.7 0 00-1.66-3.5c-.25-.36-.51-.73-.73-1.1l-.67-1.17-4.3 1.31.23 1.47c1.15 7.09-.65 12.8-5.34 17a119.42 119.42 0 01-9.85 7.6l-2.91 2.1c-14 10.21-26 17.9-42.71 16-4.3-.49-9.79 1.58-16.6 6.32-10.48 7.3-15.47 18.43-19.31 29.37-1.7 4.88-3.11 9.93-4.46 14.81s-2.74 9.88-4.43 14.67c-2.73 7.78-5.84 15.6-8.85 23.15-1.68 4.24-3.37 8.47-5 12.73a19.4 19.4 0 00-.93 3.94c-.09.55-.18 1.11-.3 1.66l-.25 1.23 3.35 1.86.9-.83a9.21 9.21 0 01.76-.61 5.75 5.75 0 002.18-2.43l3.22-8.3c4.58-11.79 9.32-24 13.64-36.09 1.56-4.39 2.87-8.93 4.13-13.32 1.45-5 3-10.24 4.82-15.16a67.37 67.37 0 019.11-15.95c5-6.81 12.44-10.4 21.38-10.4h1.14c8.23.13 16.73.16 24.39-5.11 3.51-2.42 7.11-4.75 10.7-7.06 5.5-3.57 11.2-7.25 16.55-11.27 8.97-6.75 12.83-14.25 11.8-22.92zm3.64 94.14a6.41 6.41 0 00-1-3.09 8.86 8.86 0 01-.47-.92l-.52-1.17-4.79.65v1.5c0 .88 0 1.77-.06 2.67a46.65 46.65 0 00.11 6.13 169.68 169.68 0 01-2.51 51 131.46 131.46 0 01-13.3 37.77 5.73 5.73 0 00-.38 3.29 6.74 6.74 0 01.06 1l-.05 3.06 2.63-1.57a8.92 8.92 0 011-.48 6.11 6.11 0 002.84-2.1 73.66 73.66 0 004.64-8.93c7.36-16.75 11.25-32.67 11.89-48.65.4-10.17.25-20.5.12-30.49q-.14-4.83-.21-9.67zm71.47 97.76a7.38 7.38 0 00-.35-3.32c-1-2.35-2.05-4.65-3.12-7-1.54-3.31-3.13-6.72-4.41-10.16-5.1-13.78-7.73-26.61-8.07-39.22-.2-7-.15-14.24-.1-21.19v-11.64c0-1.94-.12-3.88-.23-5.81l-.2-4.09-4-.52-.57.94c-.16.26-.34.5-.52.75a5.77 5.77 0 00-1.3 2.81c-.43 3.5-.89 7.64-1 11.83-.32 13.21-.24 28.81 2.74 44.39 3.25 17 7.91 30.39 14.68 42.11a5.87 5.87 0 002.83 2.19 8.87 8.87 0 011 .51l2.71 1.67-.1-3.18a10.06 10.06 0 01.01-1.07zM213.72 395l-.23-.4a6.46 6.46 0 00-1.73-1.79c-.38-.31-.85-.69-1.41-1.2l-2.66-2.39-.18 3.57c0 .75-.12 1.41-.2 2a6.08 6.08 0 00.2 3.53 104.47 104.47 0 005.43 10 5.56 5.56 0 002.42 1.9 7.33 7.33 0 01.79.42l2.2 1.4.39-2.58a7.61 7.61 0 01.24-1 5.06 5.06 0 00.08-3.5c-1.6-3.42-3.5-6.74-5.34-9.96zm72.38-.66a3.9 3.9 0 00-1.8-1.68c-1.13-.42-3.23-.18-4 1.13-2.58 4.41-4.77 8.4-6.72 12.22-.53 1-.18 2.4 1 4.05a2.18 2.18 0 001.84.79h.22a2.77 2.77 0 002.33-1.13c2-3.34 4-6.73 6-10.2l2.18-3.78-.74-.92a4 4 0 01-.31-.48z"/></g></svg>