<svg viewBox="0 0 500 500" xmlns="http://www.w3.org/2000/svg"><g fill="#fff"><path d="M247.55 499.58c-135.09 0-245-109.9-245-245s109.9-245 245-245 245 109.91 245 245-109.9 245-245 245zm0-483.09c-131.28 0-238.09 106.8-238.09 238.09s106.81 238.09 238.09 238.09 238.1-106.81 238.1-238.09S378.84 16.49 247.55 16.49z"/><path d="M249.26 371.08c-9.37 0-15.87-2-19.3-6-5.89-6.83-3.89-20.24-2-33.21 1.29-8.65 2.61-17.5 1.77-25.09-3.92-35.1-32.18-41.56-33.38-41.81a4.83 4.83 0 00-1.06-.1H40.19v-4.66l157.48.29c3.55.85 32.61 8.94 36.73 45.78.91 8.19-.46 17.34-1.78 26.2-1.71 11.46-3.63 24.36.86 29.57 2.48 2.88 7.93 4.39 15.78 4.39s13.3-1.51 15.78-4.39c4.51-5.23 2.57-18.16.86-29.57-1.33-8.86-2.7-18-1.78-26.2 4.12-36.88 33.25-44.95 36.73-45.78v-.27h164.49v4.66H303.18a5 5 0 00-1.07.1c-1.19.25-29.45 6.71-33.37 41.81-.85 7.59.48 16.44 1.76 25 1.95 13 4 26.45-1.94 33.3-3.43 3.96-9.92 5.98-19.3 5.98zm-176.81-22.2a6.73 6.73 0 01-1.47-.15 7.3 7.3 0 01-1.38-.41 8.35 8.35 0 01-1.31-.72 5 5 0 01-1.13-.93 7.5 7.5 0 01-2.16-5.28 10.31 10.31 0 01.15-1.47 9.37 9.37 0 01.44-1.42 10.45 10.45 0 01.68-1.28 9.35 9.35 0 01.94-1.16 5.88 5.88 0 011.13-.9 6.41 6.41 0 011.31-.71A6.11 6.11 0 0171 334a7.44 7.44 0 019 7.36 7.48 7.48 0 01-7.49 7.49m39.6 44.91a6 6 0 01-1.46-.15 5.79 5.79 0 01-1.42-.41 5.89 5.89 0 01-1.27-.68c-.42-.3-.79-.6-1.17-.93a13.26 13.26 0 01-.93-1.17 5.7 5.7 0 01-.68-1.27 6.19 6.19 0 01-.41-1.43 5.76 5.76 0 01-.15-1.45 7.55 7.55 0 012.17-5.29 7.69 7.69 0 016.79-2.07 10.74 10.74 0 011.39.45 8.48 8.48 0 011.3.68 5.71 5.71 0 011.13.94 7.59 7.59 0 012.21 5.29 9.62 9.62 0 01-.15 1.45 9.16 9.16 0 01-.44 1.43 7.27 7.27 0 01-.68 1.27 8.6 8.6 0 01-.94 1.17 7.55 7.55 0 01-5.29 2.17m32.47-44.88a6.58 6.58 0 01-1.46-.15 6.27 6.27 0 01-2.69-1.13 6.37 6.37 0 01-1.17-.93 6.9 6.9 0 01-.9-1.12 5.08 5.08 0 01-.71-1.32 5 5 0 01-.41-1.38 7.23 7.23 0 010-2.93 5.38 5.38 0 01.41-1.42 6 6 0 01.71-1.28 8.21 8.21 0 01.9-1.16 7.75 7.75 0 011.17-.9 7.51 7.51 0 011.27-.71 9.33 9.33 0 011.42-.42 7.56 7.56 0 016.75 2 6.29 6.29 0 01.94 1.16 8.47 8.47 0 01.71 1.28 6.26 6.26 0 01.41 1.42 7.23 7.23 0 010 2.93 5.79 5.79 0 01-.41 1.38 6.64 6.64 0 01-.71 1.32 5.48 5.48 0 01-.94 1.12 7.37 7.37 0 01-5.29 2.21m39.63 44.91a7.53 7.53 0 01-5.28-2.17 8 8 0 01-1.62-2.44 9.16 9.16 0 01-.44-1.43 8.48 8.48 0 01-.15-1.45 9 9 0 01.15-1.47 11.13 11.13 0 01.44-1.39 9.58 9.58 0 01.68-1.31 6.34 6.34 0 01.94-1.12 7.72 7.72 0 0110.6 0 8 8 0 01.94 1.12 7.77 7.77 0 01.68 1.31 13.18 13.18 0 01.45 1.39 9 9 0 01.11 1.47 7.43 7.43 0 01-7.5 7.49m144.28 0a7.5 7.5 0 01-5.32-12.76 6.13 6.13 0 011.15-.94 6.78 6.78 0 011.28-.68 12.47 12.47 0 011.39-.45 7.68 7.68 0 016.78 2.07 7.37 7.37 0 012.06 6.74 9.16 9.16 0 01-.44 1.43 6.14 6.14 0 01-.68 1.27 7.37 7.37 0 01-2.06 2.1 8.68 8.68 0 01-1.32.68 6 6 0 01-1.38.41 6.09 6.09 0 01-1.46.15m32.51-44.9a6.73 6.73 0 01-1.47-.15 7.7 7.7 0 01-1.42-.41 8.53 8.53 0 01-1.28-.72 6.25 6.25 0 01-1.15-.93 7 7 0 01-.91-1.12 5.08 5.08 0 01-.71-1.32 5.37 5.37 0 01-.41-1.38 7.23 7.23 0 010-2.93 5.79 5.79 0 01.41-1.42 6 6 0 01.71-1.28 6.19 6.19 0 01.91-1.12 5.93 5.93 0 011.15-.94 6.74 6.74 0 012.7-1.13 8 8 0 012.93 0 5.81 5.81 0 011.38.42 6.41 6.41 0 011.31.71 4.84 4.84 0 011.13.94 6.8 6.8 0 01.94 1.12 9.24 9.24 0 01.68 1.28 9.37 9.37 0 01.44 1.42 9 9 0 01.15 1.47 9.15 9.15 0 01-.15 1.46 8.55 8.55 0 01-.44 1.38 7.12 7.12 0 01-.68 1.32 7.75 7.75 0 01-.94 1.12 5 5 0 01-1.13.93 8.35 8.35 0 01-1.31.72 6.89 6.89 0 01-1.38.41 6.64 6.64 0 01-1.46.15m39.59 44.88a6.07 6.07 0 01-1.47-.15 5.82 5.82 0 01-1.39-.41 8.58 8.58 0 01-1.31-.68 9.53 9.53 0 01-1.12-.93 6.35 6.35 0 01-.94-1.17 7.51 7.51 0 01-.71-1.27 9.13 9.13 0 01-.42-1.43 6.48 6.48 0 01-.14-1.45 7.38 7.38 0 012.21-5.27 5.94 5.94 0 011.12-.94 8.58 8.58 0 011.31-.68 11.26 11.26 0 011.39-.45 8 8 0 012.93 0 10.69 10.69 0 011.42.45 7.46 7.46 0 011.28.68 6.34 6.34 0 011.13.94 7.37 7.37 0 012.2 5.29 6 6 0 01-.15 1.45 5.74 5.74 0 01-.41 1.43 5.88 5.88 0 01-.71 1.27 7.23 7.23 0 01-.93 1.17 10.56 10.56 0 01-1.13.93 7.46 7.46 0 01-1.28.68 5.79 5.79 0 01-1.42.41 6.09 6.09 0 01-1.46.15m32.46-44.9a7.38 7.38 0 01-5.28-2.21 7.5 7.5 0 01-2.21-5.28 9 9 0 01.15-1.47 11.54 11.54 0 01.44-1.42 9.24 9.24 0 01.68-1.28 9.35 9.35 0 01.94-1.16 7.6 7.6 0 016.75-2 6.43 6.43 0 011.42.42 9.75 9.75 0 012.43 1.61 10.36 10.36 0 01.94 1.16 7.5 7.5 0 01.68 1.28 6.49 6.49 0 01.41 1.42 6.07 6.07 0 01.15 1.47 7.47 7.47 0 01-2.18 5.28 5.21 5.21 0 01-1.16.93 8 8 0 01-1.27.72 7.7 7.7 0 01-1.42.41 6.43 6.43 0 01-1.47.15"/><path d="M312.28 306.45h149.6v4.71h-149.6z"/><path d="M461.64 311.14H312.52v-4.66h149.12zm-268.86 0H43.65v-4.66h149.13z"/></g></svg>