<svg id="Layer_1" data-name="Layer 1" xmlns="http://www.w3.org/2000/svg" viewBox="0 0 500 500"><defs><style>.cls-1{fill:#fff}</style></defs><path class="cls-1" d="M335 247.89a36.07 36.07 0 01-35.23-28.08 50.36 50.36 0 01-11.22-4.6 52.48 52.48 0 01-36.93 15.28 51.77 51.77 0 01-36.55-14.91 49.8 49.8 0 01-16.58 5.5 33.56 33.56 0 11-61.67-24A43.12 43.12 0 01164 128.7c1-.65 2-1.26 3.12-1.84a45.36 45.36 0 0142.17-28.18 45.84 45.84 0 0119 4.15 28.53 28.53 0 0147.94.07 38.94 38.94 0 0160.22 22.89 45.43 45.43 0 0132.95 75 36.17 36.17 0 01-34.4 47.1zm-46.89-38.5a2.56 2.56 0 011.35.38 44.87 44.87 0 0013.11 5.44 2.57 2.57 0 011.93 2 31 31 0 1059.61-16.14 2.59 2.59 0 01.53-2.63A40.29 40.29 0 00335 130.91a4.68 4.68 0 01-2-.42 2.09 2.09 0 01-1.16-1.71 33.8 33.8 0 00-54.73-20.07 2.64 2.64 0 01-2.17.53 2.58 2.58 0 01-1.77-1.36 23.39 23.39 0 00-41.58-.48 2.58 2.58 0 01-3.47 1.07 40.72 40.72 0 00-18.83-4.64 40.25 40.25 0 00-37.74 25.8 2.55 2.55 0 01-1.22 1.35c-1.36.71-2.69 1.48-4 2.32a2.72 2.72 0 01-1 .4A38 38 0 00142 195.3a2.58 2.58 0 01.14 3.08 28.42 28.42 0 0023.51 44.37 28.54 28.54 0 0028.13-24.35 2.57 2.57 0 012.27-2.19 44.75 44.75 0 0018.2-6.06 2.58 2.58 0 013.18.45 46.74 46.74 0 0034.23 14.74 47.27 47.27 0 0034.6-15.13 2.57 2.57 0 011.84-.82z"/><path class="cls-1" d="M250.29 340.69l-30.93-.69a2.58 2.58 0 01-2.52-2.58c0-71.27-19.53-114.34-19.73-114.77a2.57 2.57 0 114.67-2.16c.2.43 19.75 43.42 20.2 114.41l28.31.63 28.21-.63c.45-71 20-114 20.19-114.41a2.57 2.57 0 114.67 2.16c-.2.43-19.73 43.5-19.73 114.77a2.57 2.57 0 01-2.52 2.58z"/><path class="cls-1" d="M250.24 285c-5.77-.72-8-6.93-8.41-10.49l-5.91-46.69a2.57 2.57 0 012.23-2.87 2.55 2.55 0 012.88 2.23l5.9 46.69c.16 1.19 1.23 5.7 3.63 6h3.74c2.08-.29 3.15-4.8 3.31-6l6.13-48.43a2.57 2.57 0 115.1.64l-6.13 48.44c-.44 3.55-2.64 9.76-8.07 10.46zM87.29 388.8c8.07 0 12.82 5.51 12.82 12.11S95.36 413 87.29 413h-7.48v14.62h-7.58V388.8zm-7.48 6.76v10.7h7.1c3.43 0 5.61-2.19 5.61-5.35s-2.18-5.35-5.61-5.35zm42.66 32.08v-17.18c0-3.88-2.45-5.19-4.69-5.19s-4.74 1.31-4.74 5.19v17.18h-7.1V388.8H113v13a9.09 9.09 0 016.93-2.95 9.22 9.22 0 016.7 2.51c2.3 2.29 2.9 5 2.9 8.07v18.17zm25.32 4.58a10.36 10.36 0 01-2.13 3.66 8.24 8.24 0 01-6.11 2.18h-2.78v-6.38h1.63c2 0 2.84-.55 3.55-2.57l1.2-3.49-9.71-26.4h7.47l5.9 17.56 5.67-17.56H160zM172.28 400h5v5.4h-5v13.64c0 1.63.77 2.56 2.46 2.56h2.56v6h-3.87c-5.78 0-8.24-4.09-8.24-8.13v-14.03h-3V400h3v-8.4h7.09zm30.82 24.48a12.86 12.86 0 01-17.62 0c-2.56-2.73-3.21-6-3.21-11.08s.65-8.29 3.21-11a11.78 11.78 0 018.79-3.49 11.65 11.65 0 018.83 3.49c2.57 2.73 3.22 5.89 3.22 11s-.6 8.4-3.22 11.08zm-5.51-18a5 5 0 00-6.6 0c-1.47 1.42-1.63 4-1.63 6.87s.16 5.51 1.63 6.93a5 5 0 006.6 0c1.48-1.42 1.64-4 1.64-6.93s-.16-5.35-1.64-6.82zm36.23-5.08c2.29 2.35 2.89 5 2.89 8.07v18.17h-7.09v-17.18c0-3.88-2.4-5.19-4.69-5.19s-4.75 1.31-4.75 5.19v17.18h-7.09v-28.42H220v2.62a9.69 9.69 0 017.09-2.95 9 9 0 016.73 2.51zm33.82 26.24h-6.93V425a9.69 9.69 0 01-7.09 3 9.22 9.22 0 01-6.71-2.51c-2.29-2.29-2.89-5-2.89-8.08v-18.19h7.09v17.18c0 3.88 2.46 5.18 4.69 5.18s4.75-1.3 4.75-5.18v-17.18h7.09zM283.36 400h5v5.4h-5v13.64c0 1.63.76 2.56 2.45 2.56h2.56v6h-3.87c-5.78 0-8.24-4.09-8.24-8.13v-14.03h-3V400h3v-8.4h7.1zm32.24 1.56l-5.29 5.4a4.75 4.75 0 00-3.77-1.69c-2.18 0-4.64 1.64-4.64 5.24v17.13h-7.09v-28.42h6.93V402a9.62 9.62 0 017.15-3.06 8.36 8.36 0 016.71 2.62zm11.18-7.2h-7.25v-5.78h7.25zm0 33.28h-7.09V400h7.09zm31.22-15v3h-17.8c0 3.71 2.18 6.33 6.22 6.33a7.82 7.82 0 006.38-2.68l4.37 4.2c-2.89 2.95-5.68 4.48-10.81 4.48-6.76 0-13.14-3.06-13.14-14.57 0-9.27 5-14.51 12.38-14.51 7.91 0 12.4 5.67 12.4 13.75zm-17.18-4.91a7 7 0 00-.6 3H351a7 7 0 00-.6-3 5.34 5.34 0 00-9.55 0zm44.44-6.33c2.29 2.35 2.89 5 2.89 8.07v18.17h-7.09v-17.18c0-3.88-2.4-5.19-4.69-5.19s-4.75 1.31-4.75 5.19v17.18h-7.09v-28.42h6.93v2.62a9.71 9.71 0 017.09-2.95 9 9 0 016.71 2.51zm18.28-1.4h5v5.4h-5v13.64c0 1.63.76 2.56 2.45 2.56h2.57v6h-3.88c-5.78 0-8.23-4.09-8.23-8.13v-14.03h-3V400h3v-8.4h7.09zm31.97 2.22l-4.37 4.42c-1.63-1.47-4.09-1.91-6.6-1.91-2.84 0-4 1.31-4 2.73s.81 2.23 2.94 2.45l4.47.44c5.62.54 8.46 3.49 8.46 8.34 0 6.28-5.35 9.28-12.06 9.28-4.47 0-8.45-.49-12.11-4.09l4.64-4.64c2.29 2.34 5.4 2.67 7.58 2.67 2.46 0 5-.82 5-2.94 0-1.42-.71-2.4-3-2.62l-4.47-.44c-5.13-.49-8.29-2.73-8.29-8 0-5.95 5.18-9.06 11-9.06 4.42.04 8.08.86 10.81 3.37z"/><path class="cls-1" d="M488.29 487.38h-468v-468h468zM31.23 476.47h446.14V30.33H31.23z"/></svg>