<svg viewBox="0 0 500 500" xmlns="http://www.w3.org/2000/svg"><g fill="#fff"><path d="m252.85 496c-135.09 0-245-109.91-245-245s109.91-245 245-245 245 109.91 245 245-109.85 245-245 245zm0-483.18c-131.33-.04-238.18 106.8-238.18 238.18s106.85 238.14 238.18 238.14 238.15-106.85 238.15-238.14-106.81-238.22-238.15-238.22z"/><path d="m376 288a9.74 9.74 0 0 0 -11.78 7.25 117.49 117.49 0 0 1 -228.58-.12 9.79 9.79 0 1 0 -19.06 4.49 137.06 137.06 0 0 0 266.68.16 9.78 9.78 0 0 0 -7.26-11.78z"/><circle cx="171.66" cy="189.66" r="19.57"/><circle cx="328.26" cy="189.66" r="19.57"/><path d="m31.55 145.33c2.79.22 5.62 0 8.4 0 .31 3 .78 5.79.83 8.56.2 11.78 2.46 23.24 5.49 34.55a101.76 101.76 0 0 0 20.11 39.44 84 84 0 0 0 47.33 28.92 87.79 87.79 0 0 0 15.2 1.72 118 118 0 0 0 18.23-.07 136.39 136.39 0 0 0 20.1-3.89 104 104 0 0 0 33.1-15.76 113 113 0 0 0 27.94-27.51 109.53 109.53 0 0 0 17.57-38.29 11.89 11.89 0 0 1 .66-1.81c.06-.13.29-.18.54-.32 1.67 4.85 3.24 9.71 5 14.5a99.49 99.49 0 0 0 16.95 29.84 171.47 171.47 0 0 0 11.93 13 107.72 107.72 0 0 0 32.61 21.53 109.93 109.93 0 0 0 24.79 7.76 52.09 52.09 0 0 0 8.84 1c9.31 0 18.69.34 27.9-.73 6.76-.79 13.5-3.08 19.88-5.63a82.85 82.85 0 0 0 32.14-23.47c6.11-7.1 11.5-14.79 14.77-23.69 2.6-7.09 5.37-14.17 7.22-21.47 1.72-6.78 2.47-13.83 3.38-20.79.63-4.8.78-9.66 1.2-14.49a3.65 3.65 0 0 1 .74-2.14v-.71h1.19a4.35 4.35 0 0 1 1.26-.12c2.65.09 4.29 0 5.44.12h21.67 15.9v-18.38h-507.74v17.78c4.58.19 9.16.43 13.74.55a4.38 4.38 0 0 1 .89.1h23a5 5 0 0 1 1.8-.1zm403.22.25a98.5 98.5 0 0 1 -2.22 28 114.49 114.49 0 0 1 -9.45 28.26c-8.92 17.71-22.41 30.09-41.57 35.73-5.11 1.5-10.49 2.12-15.77 2.9-13.49 2-26.45-.74-39.09-5.11a95.14 95.14 0 0 1 -30.13-17.36 87.74 87.74 0 0 1 -24.54-32.12c-3.88-8.79-7.12-17.85-8.09-27.52-.42-4.17-.57-8.38-.85-12.78zm-203.31 0c-.83 16.36-4.57 31.83-12.48 46.07a96.05 96.05 0 0 1 -22 26.84c-7.88 6.68-16.37 12.3-26 15.74a151.07 151.07 0 0 1 -21.6 5.65 67.08 67.08 0 0 1 -15 1.16c-14.65-.48-28.72-3.43-40.76-12.42a76.76 76.76 0 0 1 -20.85-23.47c-6.33-11-9.67-23.13-11.9-35.53-1-5.84-1.22-11.83-1.81-17.75-.2-2-.47-4-.74-6.29z"/></g></svg>