<svg viewBox="0 0 500 500" xmlns="http://www.w3.org/2000/svg"><g fill="#fff"><path d="m250.15 499.58c-135.1 0-245-109.91-245-245s109.9-245 245-245 245 109.91 245 245-109.91 245-245 245zm0-483.29c-131.4 0-238.29 106.9-238.29 238.29s106.89 238.28 238.29 238.28 238.28-106.86 238.28-238.28-106.89-238.29-238.28-238.29z"/><path d="m363.51 365.06h-4v-38.48h-31.2l33.19-33.2 33.19 33.2h-31.18zm-25.51-42.51h47l-23.5-23.48zm-90.5 42.51h-4v-38.48h-31.2l33.19-33.2 33.2 33.2h-31.19zm-25.5-42.51h47l-23.48-23.48zm-90.5 42.51h-4v-38.48h-31.21l33.2-33.2 33.19 33.2h-31.18zm-25.5-42.51h47l-23.47-23.48zm290-58h-301v-4h301zm.58-22.31a14.09 14.09 0 0 1 -14.08-14.07 10 10 0 1 0 -20.1 0 14.07 14.07 0 1 1 -28.14 0 10 10 0 1 0 -20.09 0h-4a14.07 14.07 0 1 1 28.14 0 10 10 0 1 0 20.1 0 14.07 14.07 0 1 1 28.14 0 10.07 10.07 0 0 0 10.06 10.05zm-96.49 0a14.08 14.08 0 0 1 -14.09-14.07h4a10.05 10.05 0 0 0 20.1 0h4a14.09 14.09 0 0 1 -14.05 14.07zm-48.24 0a14.09 14.09 0 0 1 -14.08-14.07 10 10 0 1 0 -20.09 0 14.08 14.08 0 0 1 -28.15 0h4a10 10 0 1 0 20.09 0 14.08 14.08 0 1 1 28.15 0 10.05 10.05 0 0 0 20.1 0h4a14.08 14.08 0 0 1 -14.06 14.07zm-96.48 0a14.09 14.09 0 0 1 -14.08-14.07 10 10 0 1 0 -20.09 0 14.08 14.08 0 0 1 -28.15 0h4a10 10 0 1 0 20.09 0 14.08 14.08 0 1 1 28.15 0 10 10 0 1 0 20.09 0 14.08 14.08 0 1 1 28.15 0h-4a10 10 0 1 0 -20.09 0 14.08 14.08 0 0 1 -14.11 14.07zm134.63-14.07h-4a10 10 0 0 0 -20.1 0h-4a14.07 14.07 0 1 1 28.14 0zm106-35.6h-301v-4h301z"/></g></svg>