<svg viewBox="0 0 500 500" xmlns="http://www.w3.org/2000/svg"><g fill="#fff"><path d="m246 488.79c-130.14 0-236-105.87-236-236s105.86-236 236-236 236 105.87 236 236-105.9 236-236 236zm0-460.79c-124 0-224.79 100.85-224.79 224.79s100.79 224.76 224.79 224.76 224.73-100.83 224.73-224.76-100.83-224.79-224.73-224.79z"/><path d="m166.75 297.63a24.86 24.86 0 0 1 3.35-5.43c2.41-3.17 5.6-6.69 8.33-10.35a35.81 35.81 0 0 0 3.66-5.77 18.86 18.86 0 0 0 1.52-4.51l75.46-75.47 12.28 12.29-75.48 75.48a18.14 18.14 0 0 0 -3 .85 34.11 34.11 0 0 0 -7.68 4.71c-3.63 2.76-7.14 5.92-10.29 8.24a32.43 32.43 0 0 1 -4.23 2.68 6.88 6.88 0 0 1 -2.55.76l-.55-.11a2.14 2.14 0 0 1 -.68-.48 3.45 3.45 0 0 1 -.49-.67l-.12-.52a5.23 5.23 0 0 1 .43-1.7m117.43-160.15 45.86 45.84-22.39 22.41-45.86-45.85zm47-13.43a8.57 8.57 0 0 1 6.12-2.55 8.69 8.69 0 0 1 8.7 8.7 8.81 8.81 0 0 1 -2.54 6.15l-22.76 22.75-12.29-12.3zm-30.88 98.63-55.49-55.47 5.1-5.06 4.19 4.18 47.06 47.07 4.17 4.18zm-140.42 84.91a12.52 12.52 0 0 0 3.9 2.64 11.39 11.39 0 0 0 4.42.88 15.23 15.23 0 0 0 5.35-1.09 34.16 34.16 0 0 0 7.9-4.7c3.69-2.79 7.2-6 10.34-8.28a28.82 28.82 0 0 1 4.15-2.69 5.46 5.46 0 0 1 2.32-.74 4.94 4.94 0 0 0 3.51-1.46l76.92-76.91 15.14 15.12a9.09 9.09 0 0 0 12.9 0l-3.55-3.55 3.57 3.54 6.31-6.31a9 9 0 0 0 1.37-11l23.67-23.66a8.32 8.32 0 0 0 2.38-5.89 9.37 9.37 0 0 0 -2.77-6.61l-10.34-10.33 23.15-23.13a18.69 18.69 0 0 0 -26.48-26.42l-23.1 23.11-10.3-10.32a9.31 9.31 0 0 0 -6.6-2.79 8.33 8.33 0 0 0 -5.92 2.41l-23.66 23.66a9 9 0 0 0 -11 1.41l-6.31 6.29a9.05 9.05 0 0 0 0 12.92l15.1 15.13-76.87 76.91a5 5 0 0 0 -1.48 3.55 4.53 4.53 0 0 1 -.41 1.64 24.16 24.16 0 0 1 -3.36 5.41c-2.4 3.17-5.6 6.68-8.33 10.36a40.51 40.51 0 0 0 -3.66 5.78 16.17 16.17 0 0 0 -1.75 6.88 11.2 11.2 0 0 0 .87 4.39 12.58 12.58 0 0 0 2.63 3.87"/><path d="m144 373.38c2.13-9.05 8-22 13.59-32.42 2.75-5.22 5.46-9.81 7.55-13a3.37 3.37 0 0 0 .19-.32c1.23 1.85 2.63 4.12 4.16 6.8a223.73 223.73 0 0 1 12.15 24.31 114.48 114.48 0 0 1 4.4 12.08 35.17 35.17 0 0 1 1.61 8.92 28.7 28.7 0 0 1 -6.78 18.8 19.9 19.9 0 0 1 -31 0 28.53 28.53 0 0 1 -6.87-18.81 28.22 28.22 0 0 1 .92-6.36m21.38 42.62a30.56 30.56 0 0 0 23.07-10.86 38.48 38.48 0 0 0 9.2-25.36 39.06 39.06 0 0 0 -1.18-8.71c-2.62-10.67-8.7-23.9-14.47-34.79-2.91-5.42-5.71-10.22-8-13.76-1.18-1.77-2.18-3.21-3.11-4.37a15.23 15.23 0 0 0 -1.5-1.62 7 7 0 0 0 -1.13-.87 5.49 5.49 0 0 0 -2.86-.81 5.39 5.39 0 0 0 -3.06.94 10.76 10.76 0 0 0 -2 1.8 44.49 44.49 0 0 0 -3.16 4.3 222.72 222.72 0 0 0 -14.89 27.47 150.82 150.82 0 0 0 -6.41 16.13c-1.65 5.17-2.78 9.93-2.81 14.29a38.52 38.52 0 0 0 9.25 25.36 30.48 30.48 0 0 0 23 10.86"/><path d="m160.77 404.74a5 5 0 0 0 3.29-9.44c-4.78-1.64-8.91-6.79-9.59-13.48a5 5 0 1 0 -9.95 1c1.06 10.09 7.24 18.7 16.25 21.88"/><path d="m5.48 232.81h462.51v11.24h-462.51z" transform="matrix(.77206846 -.63553937 .63553937 .77206846 -97.57 204.78)"/></g></svg>