<svg viewBox="0 0 500 500" xmlns="http://www.w3.org/2000/svg"><g fill="#fff"><path d="m251.13 488.34c-130 0-235.77-105.77-235.77-235.78s105.77-235.77 235.77-235.77 235.77 105.77 235.77 235.77-105.77 235.78-235.77 235.78zm0-460.33c-123.82-.01-224.55 100.73-224.55 224.55s100.73 224.55 224.55 224.55 224.55-100.73 224.55-224.55-100.74-224.56-224.55-224.56z"/><path d="m113.66 304.18c0-9.87 6.63-18 15.12-19.06a75.11 75.11 0 0 0 -1.16 13 111.25 111.25 0 0 0 2.7 25.21c-9.21-.19-16.66-8.7-16.66-19.16m20-6.05c0-19.15 7.94-37.2 22.36-50.82 17.67-16.67 42.94-24.95 71.21-23.32 16.27.93 27.48 7 36.3 12.78a3 3 0 0 0 4.66-2.57c-.14-6.48 2.75-12.53 7.13-19.65 5.49-8.89 15.23-14.5 27.41-15.78 12.49-1.31 26 2.06 38 9.47 24.57 15.15 35.21 42.64 23.71 61.28-6.62 10.72-19.2 16.57-34.56 16a3.07 3.07 0 0 0 -3 2.11l-18.74 59.68a3 3 0 0 0 2.7 3.91c8.52.46 11.62 5.29 11.62 8.42 0 2.81-.49 4.49-1.64 5.61-1.85 1.82-6 2.68-12.24 2.52h-46.58a48.41 48.41 0 0 0 20.06-31c3.56-20.66-6.88-39.69-25.38-46.25a3 3 0 0 0 -1-.18 3 3 0 0 0 -1 5.85c15.7 5.57 24.52 21.84 21.48 39.57-3.16 18.3-19.68 37.88-56.58 37.88-28.41 0-50-6.19-64.16-18.36-14.43-12.42-21.75-31.65-21.75-57.18m175.08-105.59a59.22 59.22 0 0 0 -6.67.28 55 55 0 0 0 -7.48 1.33c-3.06-11-9.45-24.3-17.82-37-1.31-2-2.66-4-4.07-5.87-4-24.68-.24-40.76 5.79-42.09 3.43-.76 8.56 3 13.4 9.94 5.86 8.38 10.72 20.29 13.65 33.53 3.29 14.87 4.47 29.71 3.2 39.87m-41.18-38.14c1.39 1.94 2.8 3.95 4.19 6.07 8.1 12.3 14.26 25.1 17.13 35.56a38.76 38.76 0 0 0 -16.42 12.12c-12-8.66-21.65-18.47-28.73-29.21-8-12.05-13.68-24.88-16.16-36.12s-.74-17.11 1.52-18.6c5-3.31 21.34 6.61 38.17 29.79a4 4 0 0 0 .3.39m-159.93 149.83c0 13.89 10.31 25.19 23 25.19a2.9 2.9 0 0 0 1.25-.28c3.89 12.59 10.41 22.88 19.59 30.78 15.28 13.15 38.19 19.81 68.08 19.81 12.75 0 23.32-2.27 31.93-6a2.84 2.84 0 0 0 .88.12h56.14c8.09.2 13.37-1.15 16.52-4.22s3.45-7.11 3.45-9.92c0-5.91-4.63-12.15-13.52-14l17-54.1c16.33-.07 30.27-7.05 37.59-18.91 13.23-21.47 1.72-52.68-25.66-69.57a70.93 70.93 0 0 0 -29.09-10.26c1.27-10.79.05-26.21-3.36-41.54-3.09-14-8.28-26.66-14.59-35.67-6.54-9.33-13.49-13.72-19.62-12.37-9.23 2-13.58 17.1-11.71 38.67-14.27-17-30.51-28.85-39.69-22.79-5.4 3.56-6.85 12.4-4.1 24.91 2.63 12 8.68 25.49 17 38.14 7.52 11.4 17.75 21.81 30.4 30.93-3.28 5.52-5.68 10.59-6.58 15.92a73.55 73.55 0 0 0 -35-11.08c-29.92-1.73-56.81 7.14-75.69 25a76.64 76.64 0 0 0 -21.75 36.06c-12.44.3-22.47 11.46-22.47 25.16"/><path d="m219.53 381.44c-30.32 0-53.61-6.81-69.22-20.24-9-7.73-15.59-17.84-19.64-30.07-13.64 0-24.74-12.09-24.74-26.95 0-14.05 10.14-25.8 22.87-26.85a78.8 78.8 0 0 1 21.91-35.66c19.23-18.17 46.6-27.15 77-25.45a74.9 74.9 0 0 1 33.67 10.08 49.69 49.69 0 0 1 5.47-12.67 121.16 121.16 0 0 1 -29.54-30.45c-8.46-12.82-14.59-26.58-17.27-38.73-2.92-13.27-1.19-22.77 4.85-26.76 8.5-5.61 22.72 1.53 38.56 19.16-.87-20.15 4-33.2 13.42-35.29 6.86-1.49 14.47 3.13 21.45 13.08 6.45 9.21 11.74 22.1 14.87 36.3 3.25 14.59 4.55 29.51 3.57 40.39a73.1 73.1 0 0 1 28.08 10.29c28.22 17.4 40 49.7 26.23 72-7.38 12-21.44 19.3-37.77 19.73l-16.06 51.09c9 2.56 13 9.33 13 15.23 0 3.13-.41 7.68-4 11.18s-9.11 4.91-17.8 4.72h-56.09a5.12 5.12 0 0 1 -.69 0c-9.3 3.88-20.1 5.87-32.13 5.87zm-86.53-54.81.6 1.93c3.78 12.28 10.2 22.35 19.05 30 14.95 12.86 37.47 19.39 66.92 19.39 11.76 0 22.27-2 31.24-5.85l.57-.25.61.17 56.54.05c7.41.13 12.52-1 15.29-3.73s2.92-6.16 2.92-8.65c0-4.86-3.75-10.53-12.11-12.23l-1.92-.39 18-57.2h1.29c15.66-.07 29.15-6.82 36.09-18.07 12.72-20.65 1.47-50.77-25.09-67.15a69.12 69.12 0 0 0 -28.35-10l-1.76-.2.2-1.76c1.26-10.63 0-25.94-3.33-41-3-13.76-8.12-26.2-14.31-35s-12.45-12.88-17.87-11.69c-8.06 1.8-12.12 16.24-10.34 36.8l.49 5.55-3.59-4.27c-15.46-18.42-30.16-27.21-37.37-22.45-4.67 3.08-5.89 11.49-3.35 23.06 2.59 11.75 8.54 25.08 16.77 37.55 7.4 11.22 17.48 21.48 29.95 30.48l1.31.94-.82 1.39c-3.69 6.2-5.59 10.78-6.36 15.3l-.43 2.55-2.21-1.33a72.18 72.18 0 0 0 -34.18-10.83c-29.54-1.72-55.85 7-74.37 24.49a75.21 75.21 0 0 0 -21.27 35.24l-.34 1.28h-1.32c-11.44.27-20.75 10.77-20.75 23.4 0 12.92 9.52 23.43 21.22 23.43a1.29 1.29 0 0 0 .5-.11zm86.57 48.8c-28.83 0-50.8-6.32-65.3-18.79-14.84-12.76-22.36-32.45-22.36-58.51 0-19.65 8.14-38.15 22.91-52.1 18-17 43.79-25.46 72.52-23.81 16.68 1 28.15 7.15 37.17 13.08a1.26 1.26 0 0 0 1.94-1.07c-.16-6.88 2.84-13.21 7.38-20.61 5.78-9.36 16-15.26 28.73-16.6s26.75 2.1 39.1 9.72 21.47 18.26 26.09 30.2c4.69 12.12 4.05 24-1.81 33.51-7 11.28-20.06 17.45-36.13 16.85a1.09 1.09 0 0 0 -1.23.88l-18.78 59.68a1.3 1.3 0 0 0 .2 1.14 1.21 1.21 0 0 0 1 .52c9.75.54 13.28 6.39 13.28 10.19 0 3.33-.64 5.39-2.15 6.87-2.26 2.2-6.66 3.2-13.53 3h-52.14l4.5-3.2c10.3-7.32 17.35-18.2 19.35-29.85 3.41-19.81-6.56-38-24.24-44.28-.95-.13-1.42.25-1.59.74a1.26 1.26 0 0 0 .76 1.6c16.51 5.85 25.81 22.93 22.61 41.52-3.28 19-20.32 39.32-58.32 39.32zm.73-149.89c-25 0-47.19 8.07-63.06 23.05-14.06 13.28-21.81 30.87-21.81 49.54 0 25 7.12 43.78 21.14 55.84 13.84 11.9 35 17.94 63 17.94 35.81 0 51.82-18.82 54.85-36.42 2.9-16.87-5.46-32.34-20.32-37.61a4.77 4.77 0 1 1 3.21-9c19.31 6.84 30.22 26.66 26.51 48.2a50 50 0 0 1 -16.76 28.92h41.5c7.55.12 10.15-1.19 11-2 .52-.5 1.1-1.45 1.1-4.35 0-2.46-2.65-6.27-9.95-6.67a4.71 4.71 0 0 1 -3.65-2 4.79 4.79 0 0 1 -.64-4.14l18.75-59.7a4.81 4.81 0 0 1 4.56-3.34h.15c14.71.61 26.73-5 33-15.18 5.27-8.53 5.81-19.33 1.52-30.39-4.34-11.23-13.1-21.34-24.65-28.47-11.71-7.22-24.82-10.46-36.88-9.22-11.64 1.23-20.91 6.54-26.1 14.95-4.22 6.86-7 12.66-6.86 18.69a4.75 4.75 0 0 1 -2.48 4.27 4.69 4.69 0 0 1 -4.92-.19c-8.62-5.67-19.58-11.59-35.43-12.49-2.28-.16-4.57-.23-6.82-.23zm-87.7 99.61h-2.27c-10.14-.21-18.39-9.59-18.39-20.92 0-10.7 7.16-19.65 16.66-20.8l2.36-.29-.41 2.34a73.11 73.11 0 0 0 -1.13 12.7 109.55 109.55 0 0 0 2.58 24.76zm-5.93-37.78c-6.53 2-11.21 8.82-11.21 16.81 0 8.54 5.5 15.74 12.66 17.16a115.75 115.75 0 0 1 -2.22-23.21 76.88 76.88 0 0 1 .73-10.76zm146.19-76.84-1.38-1c-12.19-8.83-22-18.81-29.17-29.67-8.06-12.21-13.89-25.25-16.41-36.71-2.27-10.37-1.42-18 2.27-20.45 7.09-4.67 24.89 8.62 40.57 30.23l.3.39c1.41 2 2.82 4 4.23 6.13 8.25 12.51 14.41 25.32 17.35 36.07l.38 1.48-1.46.59a36.84 36.84 0 0 0 -15.68 11.57zm-41.27-85.24a2.77 2.77 0 0 0 -1.48.36c-1.08.72-3.32 5.11-.77 16.76 2.44 11 8.09 23.65 15.91 35.52a111.38 111.38 0 0 0 27 27.77 40.14 40.14 0 0 1 14.51-10.7c-3-10-8.92-22.12-16.47-33.58-1.37-2.08-2.74-4.05-4.1-6a3.14 3.14 0 0 1 -.38-.5c-15.22-20.92-29.05-29.63-34.26-29.63zm61.81 71-.46-1.66c-3-10.78-9.4-24.08-17.59-36.49-1.3-2-2.63-3.91-4-5.81l-.32-.76c-3.85-23.77-.84-42.32 7.14-44.09 4.22-.92 9.9 3 15.23 10.65 6 8.58 11 20.71 13.93 34.16 3.32 15 4.52 30.1 3.23 40.47l-.2 1.55h-1.57c-2.3 0-4.42.06-6.47.27a52.46 52.46 0 0 0 -7.23 1.29zm-19-45.7c1.33 1.84 2.62 3.72 3.86 5.61 8.1 12.28 14.3 24.93 17.57 35.85a56.67 56.67 0 0 1 6.08-1c1.69-.17 3.42-.27 5.27-.3 1-9.92-.26-23.86-3.34-37.72-2.88-13-7.62-24.69-13.38-32.9-4.95-7.07-9.38-9.69-11.58-9.23-4.4.96-8.38 15.28-4.49 39.65z"/><path d="m335.89 225.48a8.43 8.43 0 1 1 -8.42 8.43 8.42 8.42 0 0 1 8.42-8.43"/></g></svg>