<svg viewBox="0 0 500 500" xmlns="http://www.w3.org/2000/svg"><g fill="#fff"><path d="m250 499.58c-135.09 0-245-109.91-245-245s109.91-245 245-245 245 109.91 245 245-109.91 245-245 245zm0-483.29c-131.39 0-238.28 106.9-238.28 238.29s106.89 238.29 238.28 238.29 238.29-106.87 238.29-238.29-106.9-238.29-238.29-238.29z"/><path d="m250 378.4a2 2 0 0 1 -2-2v-42.09h-28.88a2 2 0 0 1 -1.42-3.44l30.88-30.87a2 2 0 0 1 2.84 0l30.88 30.85a2 2 0 0 1 -1.42 3.44h-28.88v42.07a2 2 0 0 1 -2 2.04zm0-48.12h26l-26-26-26 26z"/><path d="m250 209.74a2 2 0 0 1 -1.43-.59l-30.86-30.86a2 2 0 0 1 1.42-3.44h28.87v-42.07a2 2 0 1 1 4 0v42.07h28.86a2 2 0 0 1 1.43 3.44l-30.88 30.86a2 2 0 0 1 -1.41.59zm-26-30.86 26 26 26-26z"/><path d="m172.29 287.47a2.07 2.07 0 0 1 -.77-.15 2 2 0 0 1 -1.25-1.86v-28.86h-42.07a2 2 0 1 1 0-4h42.07v-28.89a2 2 0 0 1 3.44-1.42l30.86 30.88a2 2 0 0 1 0 2.84l-30.86 30.87a2 2 0 0 1 -1.42.59zm2-58.89v52l26-26z"/><path d="m327.72 287.46a2 2 0 0 1 -1.43-.59l-30.85-30.87a2 2 0 0 1 0-2.84l30.85-30.87a2 2 0 0 1 3.44 1.43v28.85h42.08a2 2 0 0 1 0 4h-42.08v28.87a2 2 0 0 1 -1.24 1.86 1.89 1.89 0 0 1 -.77.16zm-28-32.89 26 26v-52z"/></g></svg>