<svg id="Layer_1" data-name="Layer 1" xmlns="http://www.w3.org/2000/svg" viewBox="0 0 500 500"><defs><style>.cls-1{fill:#fff}</style></defs><path class="cls-1" d="M335,247.89a36.07,36.07,0,0,1-35.23-28.08,50.36,50.36,0,0,1-11.22-4.6,52.48,52.48,0,0,1-36.93,15.28,51.77,51.77,0,0,1-36.55-14.91,49.8,49.8,0,0,1-16.58,5.5,33.56,33.56,0,1,1-61.67-24A43.12,43.12,0,0,1,164,128.7c1-.65,2-1.26,3.12-1.84a45.36,45.36,0,0,1,42.17-28.18,45.84,45.84,0,0,1,19,4.15,28.53,28.53,0,0,1,47.94.07,38.94,38.94,0,0,1,60.22,22.89,45.43,45.43,0,0,1,32.95,75A36.17,36.17,0,0,1,335,247.89Zm-46.89-38.5a2.56,2.56,0,0,1,1.35.38,44.87,44.87,0,0,0,13.11,5.44,2.57,2.57,0,0,1,1.93,2,31,31,0,1,0,59.61-16.14,2.59,2.59,0,0,1,.53-2.63A40.29,40.29,0,0,0,335,130.91a4.68,4.68,0,0,1-2-.42,2.09,2.09,0,0,1-1.16-1.71,33.8,33.8,0,0,0-54.73-20.07,2.64,2.64,0,0,1-2.17.53,2.58,2.58,0,0,1-1.77-1.36,23.39,23.39,0,0,0-41.58-.48,2.58,2.58,0,0,1-3.47,1.07,40.72,40.72,0,0,0-18.83-4.64,40.25,40.25,0,0,0-37.74,25.8,2.55,2.55,0,0,1-1.22,1.35c-1.36.71-2.69,1.48-4,2.32a2.72,2.72,0,0,1-1,.4A38,38,0,0,0,142,195.3a2.58,2.58,0,0,1,.14,3.08,28.42,28.42,0,0,0,23.51,44.37,28.54,28.54,0,0,0,28.13-24.35,2.57,2.57,0,0,1,2.27-2.19,44.75,44.75,0,0,0,18.2-6.06,2.58,2.58,0,0,1,3.18.45,46.74,46.74,0,0,0,34.23,14.74,47.27,47.27,0,0,0,34.6-15.13A2.57,2.57,0,0,1,288.1,209.39Z"/><path class="cls-1" d="M250.29,340.69,219.36,340a2.58,2.58,0,0,1-2.52-2.58c0-71.27-19.53-114.34-19.73-114.77a2.57,2.57,0,1,1,4.67-2.16c.2.43,19.75,43.42,20.2,114.41l28.31.63,28.21-.63c.45-71,20-114,20.19-114.41a2.57,2.57,0,1,1,4.67,2.16c-.2.43-19.73,43.5-19.73,114.77a2.57,2.57,0,0,1-2.52,2.58Z"/><path class="cls-1" d="M250.24,285c-5.77-.72-8-6.93-8.41-10.49l-5.91-46.69a2.57,2.57,0,0,1,2.23-2.87,2.55,2.55,0,0,1,2.88,2.23l5.9,46.69c.16,1.19,1.23,5.7,3.63,6l3.74,0c2.08-.29,3.15-4.8,3.31-6l6.13-48.43a2.57,2.57,0,1,1,5.1.64l-6.13,48.44c-.44,3.55-2.64,9.76-8.07,10.46Z"/><path class="cls-1" d="M87.29,388.8c8.07,0,12.82,5.51,12.82,12.11S95.36,413,87.29,413H79.81v14.62H72.23V388.8Zm-7.48,6.76v10.7h7.1c3.43,0,5.61-2.19,5.61-5.35s-2.18-5.35-5.61-5.35Z"/><path class="cls-1" d="M122.47,427.64V410.46c0-3.88-2.45-5.19-4.69-5.19s-4.74,1.31-4.74,5.19v17.18h-7.1V388.8H113v13a9.09,9.09,0,0,1,6.93-2.95,9.22,9.22,0,0,1,6.7,2.51c2.3,2.29,2.9,5,2.9,8.07v18.17Z"/><path class="cls-1" d="M147.79,432.22a10.36,10.36,0,0,1-2.13,3.66,8.24,8.24,0,0,1-6.11,2.18h-2.78v-6.38h1.63c2,0,2.84-.55,3.55-2.57l1.2-3.49-9.71-26.4h7.47l5.9,17.56,5.67-17.56H160Z"/><path class="cls-1" d="M172.28,400h5v5.4h-5v13.64c0,1.63.77,2.56,2.46,2.56h2.56v6h-3.87c-5.78,0-8.24-4.09-8.24-8.13V405.44h-3V400h3v-8.4h7.09Z"/><path class="cls-1" d="M203.1,424.48a12.86,12.86,0,0,1-17.62,0c-2.56-2.73-3.21-6-3.21-11.08s.65-8.29,3.21-11a11.78,11.78,0,0,1,8.79-3.49,11.65,11.65,0,0,1,8.83,3.49c2.57,2.73,3.22,5.89,3.22,11S205.72,421.8,203.1,424.48Zm-5.51-18a5,5,0,0,0-6.6,0c-1.47,1.42-1.63,4-1.63,6.87s.16,5.51,1.63,6.93a5,5,0,0,0,6.6,0c1.48-1.42,1.64-4,1.64-6.93S199.07,408,197.59,406.53Z"/><path class="cls-1" d="M233.82,401.4c2.29,2.35,2.89,5,2.89,8.07v18.17h-7.09V410.46c0-3.88-2.4-5.19-4.69-5.19s-4.75,1.31-4.75,5.19v17.18h-7.09V399.22H220v2.62a9.69,9.69,0,0,1,7.09-2.95A9,9,0,0,1,233.82,401.4Z"/><path class="cls-1" d="M267.64,427.64h-6.93V425a9.69,9.69,0,0,1-7.09,3,9.22,9.22,0,0,1-6.71-2.51c-2.29-2.29-2.89-5-2.89-8.08V399.22h7.09V416.4c0,3.88,2.46,5.18,4.69,5.18s4.75-1.3,4.75-5.18V399.22h7.09Z"/><path class="cls-1" d="M283.36,400h5v5.4h-5v13.64c0,1.63.76,2.56,2.45,2.56h2.56v6H284.5c-5.78,0-8.24-4.09-8.24-8.13V405.44h-3V400h3v-8.4h7.1Z"/><path class="cls-1" d="M315.6,401.56l-5.29,5.4a4.75,4.75,0,0,0-3.77-1.69c-2.18,0-4.64,1.64-4.64,5.24v17.13h-7.09V399.22h6.93V402a9.62,9.62,0,0,1,7.15-3.06A8.36,8.36,0,0,1,315.6,401.56Z"/><path class="cls-1" d="M326.78,394.36h-7.25v-5.78h7.25Zm0,33.28h-7.09V400h7.09Z"/><path class="cls-1" d="M358,412.64v3H340.2c0,3.71,2.18,6.33,6.22,6.33a7.82,7.82,0,0,0,6.38-2.68l4.37,4.2c-2.89,2.95-5.68,4.48-10.81,4.48-6.76,0-13.14-3.06-13.14-14.57,0-9.27,5-14.51,12.38-14.51C353.51,398.89,358,404.56,358,412.64Zm-17.18-4.91a7,7,0,0,0-.6,3H351a7,7,0,0,0-.6-3,5.34,5.34,0,0,0-9.55,0Z"/><path class="cls-1" d="M385.26,401.4c2.29,2.35,2.89,5,2.89,8.07v18.17h-7.09V410.46c0-3.88-2.4-5.19-4.69-5.19s-4.75,1.31-4.75,5.19v17.18h-7.09V399.22h6.93v2.62a9.71,9.71,0,0,1,7.09-2.95A9,9,0,0,1,385.26,401.4Z"/><path class="cls-1" d="M403.54,400h5v5.4h-5v13.64c0,1.63.76,2.56,2.45,2.56h2.57v6h-3.88c-5.78,0-8.23-4.09-8.23-8.13V405.44h-3V400h3v-8.4h7.09Z"/><path class="cls-1" d="M435.51,402.22l-4.37,4.42c-1.63-1.47-4.09-1.91-6.6-1.91-2.84,0-4,1.31-4,2.73s.81,2.23,2.94,2.45l4.47.44c5.62.54,8.46,3.49,8.46,8.34,0,6.28-5.35,9.28-12.06,9.28-4.47,0-8.45-.49-12.11-4.09l4.64-4.64c2.29,2.34,5.4,2.67,7.58,2.67,2.46,0,5-.82,5-2.94,0-1.42-.71-2.4-3-2.62l-4.47-.44c-5.13-.49-8.29-2.73-8.29-8,0-5.95,5.18-9.06,11-9.06C429.12,398.89,432.78,399.71,435.51,402.22Z"/><path class="cls-1" d="M488.29,487.38h-468v-468h468ZM31.23,476.47H477.37V30.33H31.23Z"/></svg>