<svg viewBox="0 0 500 500" xmlns="http://www.w3.org/2000/svg"><g fill="#fff"><path d="m284.47 338.79h7.38v37.25h-7.38z" transform="matrix(.91706007 -.39874907 .39874907 .91706007 -118.63 144.57)"/><path d="m281.67 342.46s-54.88 23.86-81.17-36.61c0 0 54.87-23.86 81.17 36.61"/><path d="m281.66 342.46s54.88-23.86 28.58-84.32c0 0-54.87 23.86-28.58 84.32"/><path d="m258.94 290.2s-54.87 23.86-81.16-36.61c0 0 54.87-23.86 81.16 36.61"/><path d="m258.94 290.2s54.87-23.86 28.58-84.32c0 0-54.87 23.86-28.58 84.32"/><path d="m236.22 237.94s-54.87 23.87-81.17-36.61c0 0 54.88-23.86 81.17 36.61"/><path d="m236.22 237.94s54.87-23.86 28.58-84.32c0 0-54.88 23.85-28.58 84.32"/><path d="m213.5 185.68s-54.88 23.87-81.17-36.61c0 0 54.87-23.86 81.17 36.61"/><path d="m213.5 185.68s54.87-23.86 28.58-84.32c0 0-54.88 23.86-28.58 84.32"/><path d="m196.41 145.94s24.39-54.64-35.84-81.52c0 0-24.37 54.64 35.84 81.52"/><path d="m18.15 247.81h459.32v14.5h-459.32z" transform="matrix(.77350847 -.63378597 .63378597 .77350847 -105.53 214.86)"/><path d="m248.64 488.78c-130.13 0-236-105.87-236-236s105.87-236 236-236 236 105.87 236 236-105.87 236-236 236zm0-457.5c-122.14 0-221.5 99.37-221.5 221.51s99.36 221.49 221.5 221.49 221.5-99.36 221.5-221.49-99.36-221.51-221.5-221.51z"/><path d="m276.35 447.47-1.35-2.38a8.26 8.26 0 0 1 -2.8 3 10.38 10.38 0 0 1 -4.31 1.46q-6.54.82-10.72-4.76c-2.81-3.73-4.69-9.5-5.68-17.31s-.62-13.77 1.12-18.08a11.51 11.51 0 0 1 18.59-4.31q3.85 3.69 4.74 10.69v.11.11.12l-7.1.9a19 19 0 0 0 -.82-3.72 10.25 10.25 0 0 0 -1.39-2.73 4 4 0 0 0 -4-1.76q-3 .38-3.85 4.72t.22 13c.75 6 1.81 10.27 3.14 12.87s3.08 3.79 5.26 3.51a3.93 3.93 0 0 0 3.1-2.28 8.67 8.67 0 0 0 .63-5.2l-.56-4.41-5.1.65-.78-6.1 12.31-1.57 2.92 23z"/><path d="m297.89 444.84-14.71-43.49 7.26-2.46 12.4 36.65 13.45-4.54 2.31 6.85z"/><path d="m346.36 407.35q3.94 6.88 3.28 11.51c-.44 3.08-2.49 5.66-6.12 7.75s-6.84 2.51-9.74 1.34-5.64-4-8.27-8.61l-15.75-27.4 6.8-3.91 16.44 28.59c1.23 2.16 2.37 3.52 3.42 4.11a3.38 3.38 0 0 0 3.49-.27 3.61 3.61 0 0 0 2.07-3 6.29 6.29 0 0 0 -.44-2.24 19.82 19.82 0 0 0 -1.52-3.15l-16.22-28.2 6.8-3.91z"/><path d="m372.56 406.1-25.56-29.44-5.73 4.95-4.55-5.26 17.33-15 4.55 5.26-5.76 5 25.56 29.39z"/><path d="m395.73 384.42-36.11-28.37 13-16.54 5.6 4.41-8.22 10.51 9.06 7.11 6.32-8.05 5.62 4.51-6.29 8 10.07 7.91 8.77-11.17 5.7 4.47z"/><path d="m419.85 353.32-41.85-18.92 2.9-6.4 26 1.95c.93.07 2.2.24 3.76.52l4.64 1 .11-.22-5.1-1.46c-1.59-.54-2.86-1-3.78-1.45l-21.42-9.68 2.77-6.12 41.85 18.92-2.65 5.84-28-2.2c-.6-.05-1.31-.12-2.13-.22-.54-.07-1.24-.17-2.08-.31-1.37-.25-2.71-.55-4-.9l-.09.22q2.32.54 4.92 1.38c.82.29 1.61.57 2.37.87s1.63.67 2.56 1.09l22 10z"/><path d="m442.08 289.78-45.55-5.78 2.65-20.88 7.09.9-1.69 13.27 11.42 1.44 1.29-10.16 7.18.91-1.29 10.16 19.89 2.53z"/><path d="m444.63 227.53.62 7.78-18.65 6.9.24 1.55.12 1.6.08 1.07 18.96-1.43.58 7.7-45.79 3.49-.79-10.19a28.38 28.38 0 0 1 .07-6.7 10.43 10.43 0 0 1 1.57-4.08 10.61 10.61 0 0 1 4.28-3.58 17.28 17.28 0 0 1 6.4-1.69 15.53 15.53 0 0 1 7.31 1 11.94 11.94 0 0 1 5.24 4.32zm-23.88 19.39v-.68l-.08-1.06c-.22-2.87-.94-4.85-2.2-6s-3.22-1.57-5.92-1.36q-3.68.27-5.21 2.16c-1 1.26-1.43 3.17-1.25 5.74l.26 2v.28z"/><path d="m441.55 209.13-44.18 12.55-5.74-20.25 6.87-1.94 3.65 12.86 11.07-3.15-2.81-9.85 7-2 2.8 9.86 12.32-3.49-3.89-13.67 7-2z"/><path d="m429.44 172.88-40.87 20.94-9.57-18.73 6.36-3.26 6.09 11.91 10.25-5.25-4.7-9.11 6.44-3.3 4.67 9.12 11.39-5.84-6.5-12.65 6.44-3.29z"/></g></svg>