<?xml version="1.0" encoding="utf-8"?><svg xmlns="http://www.w3.org/2000/svg" xmlns:xlink="http://www.w3.org/1999/xlink"><symbol viewBox="0 0 500 500" id="svg1" xmlns="http://www.w3.org/2000/svg"><g fill="#fff"><path d="M251.13 496c-135.13 0-245-109.95-245-245S116 6 251.13 6s245 109.9 245 245-109.91 245-245 245zm0-483.18C119.79 12.78 13 119.62 13 251s106.79 238.14 238.13 238.14S489.31 382.29 489.31 251 382.46 12.78 251.13 12.78z"/><path d="M126.25 234.09c-7.13 8.79-16.24 14.94-20.49 25.1-7.25 17.34-5.83 33.68 5.75 48.81 2.77 3.62 5.94 7 8.23 10.91 5.7 9.71 5.7 19.65.06 29.5-1 1.73-2.28 2.76-4.36 1.65-1.68-.89-2.18-2.68-1.06-4.61 6.16-10.53 3.25-20.67-3.82-28.58-6.8-7.6-12.17-16-14.16-26.23-3.3-16.95-.15-32.32 11.24-45.59 4.17-4.85 8.73-9.36 13-14.1 1.35-1.49 2.34-3.31 3.61-4.87 6.37-7.85 8.52-17.64 12.24-26.68 6.84-16.61 15.49-32.17 26.91-46a272.93 272.93 0 0121-22.47c11.58-11.16 24.36-20.78 39.16-27.39 4.73-2.11 9.52-4.09 14.33-6 2.33-.94 4-.3 4.64 1.52s-.31 3.39-2.41 4.35c-7.55 3.42-15.18 6.68-22.57 10.4a94.76 94.76 0 00-21.59 15.34c-5.53 5.12-11.2 10.12-16.45 15.52a166.65 166.65 0 00-35.16 52.75c-3.91 9.49-7.68 19.05-11 28.77-1.1 3.26-.81 7.1-.65 10.66.19 4.46.82 8.91 1.39 13.35.93 7.17 1.68 14.38 3 21.48 2 10.55 4.15 21.08 6.67 31.52 3 12.63 9.16 23.91 17 34.16a280.79 280.79 0 0018.94 22.37 235 235 0 0021.51 20.48c11.67 9.61 23.78 18.71 36 27.63 4.9 3.58 10.83 5.22 17 5.93 12.54 1.45 23.09-3.06 32.73-10.5q13.18-10.27 26.36-20.59c2.45-1.91 4.73-4 7.07-6.09 1.56-1.37 3.16-1.42 4.49.14s1 3.21-.57 4.5c-6.48 5.49-12.82 11.14-19.51 16.35-7 5.43-14.11 10.63-21.45 15.53a43.77 43.77 0 01-21.7 7c-14.27 1-26.12-4.65-36.92-13.26-10.51-8.38-21.44-16.29-31.42-25.26-9.73-8.74-18.7-18.37-27.63-27.95a133.9 133.9 0 01-21.35-31.13 105.68 105.68 0 01-8.71-26.15c-2.29-10.92-4.49-21.87-6.34-32.87-1.08-6.41-1.43-12.95-2.08-19.43-.32-3.06-.58-6.17-.93-9.97zM385.71 226.77c-1.25-3.3-2.44-6.63-3.74-9.9a238.39 238.39 0 00-26.4-49.47 197.88 197.88 0 00-28.47-32.26c-14.08-12.81-30-22.8-46.42-32.23-9.29-5.35-18.77-10.36-28.12-15.6a4.75 4.75 0 01-2.36-2.52 3.56 3.56 0 011.24-3.08 4.3 4.3 0 013.58 0c6.34 3.28 12.66 6.6 18.82 10.2 11.41 6.66 23 13.12 33.94 20.42a218.07 218.07 0 0123.46 18.32c25 22.07 42.21 49.64 55 80.16 1 2.39 1.82 4.86 3 7.16 3.09 6.11 2.05 12.49 1.52 18.86-.37 4.47-.55 9-1.08 13.4q-1.32 11.13-3 22.2a7.89 7.89 0 01-2.15 3.51 2.14 2.14 0 01-2.11.28c-.86-.69-1.94-1.79-1.93-2.71a65.26 65.26 0 01.89-7.71c.66-5.16 1.42-10.3 1.95-15.47.75-7.46 1.33-14.94 2-22.41v-1z"/><path d="M261.29 347.65A82.68 82.68 0 01229 341c-2.93-1.26-3.62-3.29-1.64-5.73 3.1-3.83 6.09-7.88 9.82-11 4.7-3.95 10.57-4.29 16.36-2.52a20.71 20.71 0 0012.13.25c9.41-2.63 16.87.38 22.85 8.67 1.19 1.65 2.43 3.26 3.58 4.93 1.55 2.25 1.18 3.89-1.33 5.08a68.17 68.17 0 01-19.41 5.87c-3.93.6-7.92.87-10.07 1.1zm23.51-11.3c-1-1.31-1.82-2.4-2.62-3.51a12.19 12.19 0 00-13.7-5 27 27 0 01-16.7 0c-6.93-2.31-14.27 1.55-17 8.51 13.33 6.09 33.89 6.9 50.02 0zM338.28 323.89c14.1.16 24.13 10.77 24 24.22-.1 15.13-11.28 23.89-23.43 24.19-16 .33-25.37-11.74-24.92-25.1.47-14.2 11.07-23.31 24.35-23.31zm-.59 43.92c10.57.39 19.92-8.37 20.42-18.94.51-10.81-8.64-20.75-20.35-20.61-10.35.13-19 8.63-19.61 18.26a19.83 19.83 0 0019.54 21.29zM334.86 231.42c1.7 2.21 3.44 4.2 4.87 6.41a2.74 2.74 0 01-1.12 4.3c-1.85 1-3.27.26-4.56-1.48a22.24 22.24 0 00-4.25-4.14c-2.11-1.64-4.46-1-6.87-.48a41.64 41.64 0 01-21.12-1.29c-5.17-1.58-10.42-2.9-15.61-4.4-2.5-.72-3.35-2.05-2.8-4s2-2.68 4.54-2c4.13 1.11 8.21 2.45 12.36 3.47 4.39 1.08 8.8 2.39 13.27 2.73 8.66.66 16.14-2.6 22.85-8a17.34 17.34 0 0121.24-.13c1.64 1.28 2 2.87.92 4.43s-2.6 1.84-4.47.66c-5.67-3.56-10.43-3.08-15.58 1.24-1.29 1.08-2.72 1.99-3.67 2.68zM181.32 231.45c-1.91-1.43-3.88-3.12-6.06-4.5a11.05 11.05 0 00-11.19-.61c-.81.38-1.54.94-2.32 1.39a2.73 2.73 0 01-4.05-.94 3.12 3.12 0 01.7-4.37c6-4.75 15.87-4.66 21.73.28 6.63 5.58 14.25 8.7 22.86 7.81 6-.62 11.83-2.52 17.71-3.94 2.5-.61 4.92-1.55 7.42-2.19 1.84-.48 3.69-.35 4.56 1.72.79 1.88-.31 3.65-2.79 4.33-7.55 2.09-15.07 4.37-22.72 6a33.83 33.83 0 01-14.8-.51 8.9 8.9 0 00-10.17 4.36c-1.18 2.06-2.92 2.84-4.54 2s-2.27-2.92-1-4.92a70.87 70.87 0 014.66-5.91zM387.79 329.86c-9.28.62-18.46-8-18.61-17.86-.18-12.14 8.49-19.61 18.05-19.89a18.64 18.64 0 0119.51 18c.32 11.8-8.64 20.22-18.95 19.75zm.78-4.25c7.6-1 13-4.72 13.79-15.28.48-6.68-6.8-13.88-14.81-13.72-7.27.15-13.23 4.7-14 15.08-.46 6.84 6.71 13.38 15.02 13.92zM318.35 174c6.41.63 12.82 1.25 19.23 1.9a2.72 2.72 0 012.73 3.31c-.23 1.93-1.45 2.75-3.42 2.65-7.34-.39-14.68-.86-22-1-8.88-.21-17.56 1.08-25.38 5.54a54 54 0 00-8.6 6.68c-1.58 1.38-3.1 1.55-4.56.39a2.76 2.76 0 01-.46-4.12c3.45-4.64 8.24-7.56 13.36-9.9 9.21-4.28 19.05-5.23 29.1-5.45zM229.58 194.62a11.87 11.87 0 01-2.51-1.47c-6.38-6.7-14.33-10.05-23.35-11.39a107.1 107.1 0 00-29.33 0 21.35 21.35 0 01-3.89.37c-1.7-.09-3-1-3-2.86 0-1.67.75-3.14 2.5-3.34 9.09-1 18.15-1.93 27.36-1.15 7.6.64 14.93 1.83 21.85 5.06a34.71 34.71 0 0112 8.64 6.07 6.07 0 01.92 4.14c-.13.71-1.58 1.27-2.55 2zM259.76 368.38c-4.85-.84-10-1-14.49-2.72-3.9-1.47-7.27-4.53-10.57-7.25-.76-.62-.8-3-.27-4.11.7-1.48 2.46-1.79 4-.69a67.74 67.74 0 015.79 4.44 13.39 13.39 0 008.73 3.24c5.3.2 10.62-.15 15.93-.4 3.89-.19 6.74-2.57 9.56-4.93.94-.79 1.86-1.59 2.85-2.3 1.5-1.05 3.27-.93 4 .54.58 1.1.66 3.45-.07 4.11-5 4.55-10.2 8.92-17.55 9-2.61 0-5.21.37-7.81.57zM280.75 285.43c-1 1.63-1.56 3.39-2.75 4.21-4.42 3.05-8.47 6.85-14.08 7.78-6.32 1-12.46.82-17.94-3a91.9 91.9 0 01-7.94-6.06c-1.25-1.08-1.9-2.9-.73-4.36a5.5 5.5 0 013.26-1.46c.59-.1 1.5.58 2 1.14 4.34 5 9.63 8.09 16.37 8.11a16 16 0 0010.74-4 60 60 0 015-4.34 4.87 4.87 0 013.54-.77c.91.26 1.53 1.61 2.53 2.75zM325.54 282.62c-.07-6.71 5.56-13 11.88-12.89 8.36.14 13.18 5.88 13.36 12.52.2 7.35-5.62 13-13.08 13-6.43.07-12.09-5.82-12.16-12.63zm20.74.19c.18-4.55-3.48-8.3-8.48-8.68-3.64-.27-7.63 3.86-7.79 8.05s3.38 8.45 7.41 8.64a8.57 8.57 0 008.86-8.01zM333.6 312.56c.29-9 6.74-15.54 16.24-15.72 7.09-.14 14.44 5.87 15.23 14.12.58 6-1.58 10.75-6.19 14.54-1.12.91-2.06 1-3 .06-1.14-1.1-.69-2.17.23-3.21a28 28 0 003.08-3.75 11.42 11.42 0 00-1.85-14.13 10.77 10.77 0 00-13.22-1.84c-5 2.9-7.22 7.9-5.75 13.22.15.54.56 1.14.43 1.6a15.54 15.54 0 01-1.22 2.58c-.83-.44-2.13-.7-2.38-1.36a48.91 48.91 0 01-1.6-6.11zM381.35 334.74c8 .13 11.79 5 12.13 11.14.35 6.35-6.31 12.46-12.65 12.34-5.48-.1-11.16-5.83-11.15-11.13.03-7.88 5.01-11.96 11.67-12.35zm7.77 11.78c0-4.23-3.59-8-7.55-7.78-4.29.21-7.17 2.73-7.54 7.72-.28 3.88 4 7.65 8.15 7.52 3.15-.1 6.96-4.2 6.94-7.46zM376.91 280.54a49 49 0 00-1.69-5.84c-1.22-2.89-3.85-3.73-6.68-3.45a7.18 7.18 0 00-6.49 5.21 6.88 6.88 0 002.07 7.78 11.72 11.72 0 005.05 2.09c1.49.32 2.62.83 2.45 2.37s-1.26 2.07-2.84 2a11.93 11.93 0 01-5.11-22.51c4.94-2.52 11-1.6 14.21 2.74 2.17 2.94 3.62 6.51 2.74 10.35-.23 1-1.58 1.72-2.41 2.58-.8-.91-1.59-1.82-2.39-2.72zM312.47 289.36c5.4 0 10.19 4.54 10.14 9.56a10.25 10.25 0 01-10.5 10.52c-4.72 0-9.87-5.21-9.76-9.88a10.37 10.37 0 0110.12-10.2zm-.1 4.41a5.76 5.76 0 00-5.55 5.68 5.76 5.76 0 0011.51-.33c-.05-2.86-2.87-5.39-5.96-5.35z"/></g></symbol><symbol viewBox="0 0 500 500" id="svg10" xmlns="http://www.w3.org/2000/svg"><g fill="#fff"><path d="M246 488.79c-130.14 0-236-105.87-236-236s105.86-236 236-236 236 105.87 236 236-105.9 236-236 236zM246 28C122 28 21.21 128.85 21.21 252.79S122 477.55 246 477.55s224.73-100.83 224.73-224.76S369.9 28 246 28z"/><path d="M166.75 297.63a24.86 24.86 0 013.35-5.43c2.41-3.17 5.6-6.69 8.33-10.35a35.81 35.81 0 003.66-5.77 18.86 18.86 0 001.52-4.51l75.46-75.47 12.28 12.29-75.48 75.48a18.14 18.14 0 00-3 .85 34.11 34.11 0 00-7.68 4.71c-3.63 2.76-7.14 5.92-10.29 8.24a32.43 32.43 0 01-4.23 2.68 6.88 6.88 0 01-2.55.76l-.55-.11a2.14 2.14 0 01-.68-.48 3.45 3.45 0 01-.49-.67l-.12-.52a5.23 5.23 0 01.43-1.7m117.43-160.15L330 183.32l-22.39 22.41-45.86-45.85zm47-13.43a8.57 8.57 0 016.12-2.55 8.69 8.69 0 018.7 8.7 8.81 8.81 0 01-2.54 6.15l-22.76 22.75-12.29-12.3zm-30.88 98.63l-55.49-55.47 5.1-5.06 4.19 4.18 47.06 47.07 4.17 4.18zm-140.42 84.91a12.52 12.52 0 003.9 2.64 11.39 11.39 0 004.42.88 15.23 15.23 0 005.35-1.09 34.16 34.16 0 007.9-4.7c3.69-2.79 7.2-6 10.34-8.28a28.82 28.82 0 014.15-2.69 5.46 5.46 0 012.32-.74 4.94 4.94 0 003.51-1.46l76.92-76.91 15.14 15.12a9.09 9.09 0 0012.9 0l-3.55-3.55 3.57 3.54 6.31-6.31a9 9 0 001.37-11l23.67-23.66a8.32 8.32 0 002.38-5.89 9.37 9.37 0 00-2.77-6.61l-10.34-10.33 23.15-23.13A18.69 18.69 0 00324 117l-23.1 23.11-10.3-10.32A9.31 9.31 0 00284 127a8.33 8.33 0 00-5.92 2.41l-23.66 23.66a9 9 0 00-11 1.41l-6.31 6.29a9.05 9.05 0 000 12.92l15.1 15.13-76.87 76.91a5 5 0 00-1.48 3.55 4.53 4.53 0 01-.41 1.64 24.16 24.16 0 01-3.36 5.41c-2.4 3.17-5.6 6.68-8.33 10.36a40.51 40.51 0 00-3.66 5.78 16.17 16.17 0 00-1.75 6.88 11.2 11.2 0 00.87 4.39 12.58 12.58 0 002.63 3.87M144 373.38c2.13-9.05 8-22 13.59-32.42 2.75-5.22 5.46-9.81 7.55-13a3.37 3.37 0 00.19-.32c1.23 1.85 2.63 4.12 4.16 6.8a223.73 223.73 0 0112.15 24.31 114.48 114.48 0 014.4 12.08 35.17 35.17 0 011.61 8.92 28.7 28.7 0 01-6.78 18.8 19.9 19.9 0 01-31 0 28.53 28.53 0 01-6.87-18.81 28.22 28.22 0 01.92-6.36M165.3 416a30.56 30.56 0 0023.07-10.86 38.48 38.48 0 009.2-25.36 39.06 39.06 0 00-1.18-8.71c-2.62-10.67-8.7-23.9-14.47-34.79-2.91-5.42-5.71-10.22-8-13.76-1.18-1.77-2.18-3.21-3.11-4.37a15.23 15.23 0 00-1.5-1.62 7 7 0 00-1.13-.87 5.49 5.49 0 00-2.86-.81 5.39 5.39 0 00-3.06.94 10.76 10.76 0 00-2 1.8 44.49 44.49 0 00-3.16 4.3 222.72 222.72 0 00-14.89 27.47 150.82 150.82 0 00-6.41 16.13c-1.65 5.17-2.78 9.93-2.81 14.29a38.52 38.52 0 009.25 25.36 30.48 30.48 0 0023 10.86"/><path d="M160.77 404.74a5 5 0 003.29-9.44c-4.78-1.64-8.91-6.79-9.59-13.48a5 5 0 10-9.95 1c1.06 10.09 7.24 18.7 16.25 21.88M54.62 381.043L411.71 87.099l7.144 8.678-357.09 293.944z"/></g></symbol><symbol viewBox="0 0 500 500" id="svg11" xmlns="http://www.w3.org/2000/svg"><g fill="#fff"><path d="M245.62 488.79c-130.13 0-236-105.88-236-236s105.87-236 236-236 236 105.87 236 236-105.87 236-236 236zm0-460.77C121.69 28 20.86 128.85 20.86 252.79s100.83 224.76 224.76 224.76 224.76-100.83 224.76-224.76S369.55 28 245.62 28z"/><path d="M136.33 251.1H354.9v4.12H136.33zM162.48 152.16c-1.42-3.73-2.76-7.49-4-11.32s-2.5-7.69-3.69-11.62v91.63h-9.13V121.5h15.15l21 56.35c1.58 4.47 3.09 8.76 4.46 12.84s2.63 8.07 3.76 11.92c-.26-3-.48-6-.61-9.14s-.21-7.32-.21-12.61V121.5h9.12v99.35H188.1zM245.58 128.81c-5.87 0-10.15 3.23-12.89 9.65s-4.14 16.56-4.14 30.33q0 23.69 4 34.16c2.69 7 7 10.46 13 10.46s10.15-3.35 12.89-10.07 4.06-17.44 4.06-32.21-1.35-25.39-4.06-32.14-7-10.18-12.89-10.18m0 94q-13.87 0-20.93-13.11t-7.07-38.55q0-25.47 7.07-38.5t20.93-13q13.8 0 20.93 13t7.14 38.47q0 25.44-7.14 38.55t-20.93 13.11M309.81 152.16c-1.42-3.73-2.76-7.49-4.05-11.32s-2.52-7.69-3.71-11.62v91.63h-9.13V121.5h15.18l21 56.35c1.61 4.47 3.09 8.76 4.46 12.84s2.65 8.07 3.79 11.92c-.29-3-.51-6-.62-9.14s-.22-7.32-.22-12.61V121.5h9.14v99.35h-10.21zM185.51 383.77l-2.39-5.45a18.09 18.09 0 01-7.07 5.74 23.35 23.35 0 01-9.77 1.9c-9.8 0-17.25-4.39-22.27-13.13s-7.56-21.63-7.56-38.66 2.55-29.74 7.55-38.49 12.47-13.09 22.27-13.09q12.5 0 19.87 8.93c4.89 6 7.37 14 7.37 24.22a3.4 3.4 0 01-.16.53.33.33 0 00.16.27h-16c-.13-6.4-1.14-11.23-3-14.45a9 9 0 00-8.27-4.84q-6.65 0-9.75 9c-2.1 6-3.12 15.31-3.12 27.94q0 19.49 3.33 28.45t10.5 8.95a8.74 8.74 0 007.5-4.05c1.87-2.68 2.81-6.34 2.81-10.95V347h-11.23v-13.35h27.24v50.12zM208.65 383.77v-99.25h22.54l11.52 52.37a82.8 82.8 0 011.26 8.68c.36 3.77.75 8.25 1.11 13.48q.16-7.44.64-13.26a70.89 70.89 0 011.27-9.18l11.67-52.09h22.23v99.25h-15.67l.16-64.11c0-.8.11-3 .3-6.47s.51-8.44.91-14.8c-.4 2.3-.89 5-1.5 8.07s-1.4 7.32-2.5 12.68l-13.51 64.63h-8.75l-13.5-64.63c-1.07-5.36-1.93-9.58-2.51-12.68s-1.09-5.77-1.48-8.07l.9 14.8c.22 3.52.3 5.67.3 6.47l.16 64.11zM311.94 334.17c0 12.7 1 22 3.12 28s5.31 9 9.76 9 7.69-3 9.76-9 3.12-15.31 3.12-28-1-21.94-3.12-27.94-5.32-9-9.76-9-7.7 3-9.76 9-3.12 15.32-3.12 27.94m-17 0q0-25.37 7.55-38.49c5.05-8.72 12.51-13.09 22.31-13.09s17.25 4.37 22.28 13.09 7.55 21.58 7.55 38.49-2.52 29.92-7.55 38.66S334.63 386 324.82 386s-17.26-4.39-22.31-13.13-7.51-21.67-7.51-38.7"/></g></symbol><symbol viewBox="0 0 500 500" id="svg12" xmlns="http://www.w3.org/2000/svg"><g fill="#fff"><path d="M163.36 113.84h27l32.77 117.09 32.39-117.09h27.25L240 257.39h-33.8zM119.3 329.61h9l10.94 39 10.79-39h9.08l-14.28 47.85h-11.25zM163.21 329.61h8.16v7.7h-8.16zm0 13.36h8.16v34.49h-8.16zM192.56 371.14a23 23 0 003.36-.26v6.71a33.59 33.59 0 01-6.78.59c-5.66 0-8.09-2.49-8.09-8.09v-20.4h-4.48V343h4.48v-11.08h8.15V343h6.72v6.72h-6.72v17.44c0 2.84.4 3.98 3.36 3.98zM218.57 374.43a17 17 0 01-10.27 3.43c-5.79 0-9.22-3.49-9.22-9.22 0-7.7 6.39-11.78 19.55-13.42v-2.7c0-2.5-1.71-3.95-4.87-3.95a9 9 0 00-7.57 3.95l-5.52-3.52q4.34-6.7 13.22-6.72c8.1 0 12.64 3.89 12.64 10.21v20.27a30.61 30.61 0 00.52 4.67h-7.76zM207.11 368a3.37 3.37 0 003.7 3.69c2.56 0 5.06-1.18 7.56-3.62v-7.37c-7.63 1.03-11.26 3.2-11.26 7.3zM235.1 343h7.5v4a12.4 12.4 0 019.75-4.68c4.07 0 6.77 1.65 8.48 5.14 3.49-3.49 6.78-5.14 11.12-5.14 5.73 0 9.22 3.36 9.22 8.76v26.39H273V353.7c0-3-1.32-4.67-3.75-4.67s-4.94 1.18-7.24 3.55v24.88h-8v-22.83c0-3.76-1.05-5.54-3.55-5.54a9.65 9.65 0 00-7.31 3.56v24.81h-8.05zM289.74 329.61h8.16v7.7h-8.16zm0 13.36h8.16v34.49h-8.16zM306.53 343H314v4.08c3.81-3.09 6.84-4.74 10.66-4.74 6.38 0 9.68 3.75 9.68 11.19v24h-8.14v-22.44c0-4.22-1-6.13-3.95-6.13-2.44 0-4.87 1.25-7.63 3.82v24.68h-8.09zM345.49 228.34h-16.75c-1.66-6.89-6.06-12-14.26-12a13.62 13.62 0 00-10.57 4.4c-3.09 3.56-4.16 7.72-4.16 23.88s1.07 20.32 4.16 23.88a13.65 13.65 0 0010.57 4.4c8.2 0 12.6-5.11 14.26-12h16.75c-3 17.7-15.21 26.73-31 26.73-9.74 0-16.87-3.21-22.69-8.91-8.44-8.44-8.56-17.94-8.56-34.1s.12-25.67 8.56-34.1c5.82-5.71 12.95-8.91 22.69-8.91 15.79 0 28.03 9.03 31 26.73zM393.09 343.88H383c-1-4.15-3.64-7.23-8.58-7.23a8.26 8.26 0 00-6.37 2.65c-1.86 2.15-2.5 4.65-2.5 14.38s.64 12.23 2.5 14.38a8.26 8.26 0 006.37 2.65c4.94 0 7.58-3.08 8.58-7.23h10.09c-1.79 10.66-9.15 16.1-18.67 16.1a18.41 18.41 0 01-13.66-5.37c-5.08-5.08-5.15-10.8-5.15-20.53s.07-15.45 5.15-20.53a18.41 18.41 0 0113.66-5.36c9.52 0 16.88 5.43 18.67 16.09z"/><path d="M490.18 487.38h-468v-468h468zM33.12 476.47h446.14V30.33H33.12z"/></g></symbol><symbol viewBox="0 0 500 500" id="svg13" xmlns="http://www.w3.org/2000/svg"><g fill="#fff"><path d="M247.33 496c-135.09 0-245-109.91-245-245S112.24 6 247.33 6s245 109.9 245 245-109.9 245-245 245zm0-483.18C116 12.78 9.15 119.62 9.15 251S116 489.14 247.33 489.14 485.51 382.29 485.51 251 378.67 12.78 247.33 12.78z"/><path d="M345.63 330.85h-1.59L338.11 313l.91-1a82.82 82.82 0 0022.4-56.75 84.13 84.13 0 00-60.2-80.46l-2.75-.8 16.4-28.42a3.87 3.87 0 00-1.41-5.27l-7.24-4.18 8.35-14.47 7.24 4.18a3.89 3.89 0 002.93.39 3.82 3.82 0 002.34-1.8l12.22-21.16a3.87 3.87 0 00-1.41-5.26l-42.32-24.4a3.87 3.87 0 00-5.27 1.4l-12.22 21.17a3.88 3.88 0 001.41 5.28l7.24 4.17-8.36 14.47-7.23-4.17a3.8 3.8 0 00-2.93-.39 3.87 3.87 0 00-2.35 1.8l-46.93 81.29-7.23-4.17a3.86 3.86 0 00-5.28 1.41L194.2 217a3.84 3.84 0 00-.38 2.93 3.76 3.76 0 001.8 2.34l63.47 36.65a3.86 3.86 0 005.28-1.41l12.21-21.16a3.85 3.85 0 00-1.41-5.27l-7.24-4.18 6.24-10.79 1.18-.09a38.29 38.29 0 0129.12 10.3 39.7 39.7 0 0112.58 29 38.7 38.7 0 01-5.21 19.44l-1.06 1.83-1.89-.95a54.68 54.68 0 00-58.48 5.88l-.61.48h-60.39a28.15 28.15 0 00-25.31 15.64l-5.46 10.93a3.83 3.83 0 00.17 3.75 3.89 3.89 0 003.29 1.83H230l-5.57 16.71h-86.8a16.09 16.09 0 00-16.08 16.08v30.54a3.86 3.86 0 003.86 3.86h232.15a3.87 3.87 0 003.86-3.86v-30.56a16.16 16.16 0 00-15.79-16.07zM286.7 96.69l8.35-14.47 35.63 20.57-8.35 14.47zm6.72 12.79l14.47 8.36-8.36 14.47-14.47-8.31zM268 235.85l-8.36 14.47-56.79-32.78 8.36-14.47zm-6.72-12.79l-35.63-20.57 45-77.95 24 13.84 1.72 1 .32.19.34.19 1 .56h.08l.27.16 1 .56h.06l.22.13.65.37.13.08h.1l.17.1 3.46 2 1.94 1.13zm21.05-14.65l-3.5-.31 15.59-27.1 1.64.4a75.63 75.63 0 0157.63 73.86 74.56 74.56 0 01-16.05 46.52l-2.26 2.87-1.54-3.31a55.11 55.11 0 00-15.1-19.34l-1.5-1.23 1-1.67a46.32 46.32 0 006.54-23.82c-.01-24.14-18.66-44.73-42.48-46.87zm2 69.08a46.92 46.92 0 0144.57 32.12l7.08 21.23H232.61l7.08-21.23a46.92 46.92 0 0144.57-32.12zM167.1 306.41l3.11-3.72c5-10.79 13.21-13.05 19.2-13.05h52.4l-2.45 3.53a55 55 0 00-6.21 11.8l-.55 1.44zm186.59 67.19H129.31v-26.68a8.36 8.36 0 018.36-8.35h207.67a8.35 8.35 0 018.35 8.35z"/></g></symbol><symbol viewBox="0 0 500 500" id="svg14" xmlns="http://www.w3.org/2000/svg"><g fill="#fff"><path d="M252.85 496c-135.09 0-245-109.91-245-245S117.76 6 252.85 6s245 109.91 245 245-109.85 245-245 245zm0-483.18C121.52 12.78 14.67 119.62 14.67 251s106.85 238.14 238.18 238.14S491 382.29 491 251 384.19 12.78 252.85 12.78z"/><path d="M376 288a9.74 9.74 0 00-11.78 7.25 117.49 117.49 0 01-228.58-.12 9.79 9.79 0 10-19.06 4.49 137.06 137.06 0 00266.68.16A9.78 9.78 0 00376 288z"/><circle cx="171.66" cy="189.66" r="19.57"/><circle cx="328.26" cy="189.66" r="19.57"/><path d="M31.55 145.33c2.79.22 5.62 0 8.4 0 .31 3 .78 5.79.83 8.56.2 11.78 2.46 23.24 5.49 34.55a101.76 101.76 0 0020.11 39.44 84 84 0 0047.33 28.92 87.79 87.79 0 0015.2 1.72 118 118 0 0018.23-.07 136.39 136.39 0 0020.1-3.89 104 104 0 0033.1-15.76 113 113 0 0027.94-27.51A109.53 109.53 0 00245.85 173a11.89 11.89 0 01.66-1.81c.06-.13.29-.18.54-.32 1.67 4.85 3.24 9.71 5 14.5A99.49 99.49 0 00269 215.21a171.47 171.47 0 0011.93 13 107.72 107.72 0 0032.61 21.53 109.93 109.93 0 0024.79 7.76 52.09 52.09 0 008.84 1c9.31 0 18.69.34 27.9-.73 6.76-.79 13.5-3.08 19.88-5.63a82.85 82.85 0 0032.14-23.47c6.11-7.1 11.5-14.79 14.77-23.69 2.6-7.09 5.37-14.17 7.22-21.47 1.72-6.78 2.47-13.83 3.38-20.79.63-4.8.78-9.66 1.2-14.49a3.65 3.65 0 01.74-2.14v-.71h1.19a4.35 4.35 0 011.26-.12c2.65.09 4.29 0 5.44.12h37.57V127H-7.88v17.78c4.58.19 9.16.43 13.74.55a4.38 4.38 0 01.89.1h23a5 5 0 011.8-.1zm403.22.25a98.5 98.5 0 01-2.22 28 114.49 114.49 0 01-9.45 28.26c-8.92 17.71-22.41 30.09-41.57 35.73-5.11 1.5-10.49 2.12-15.77 2.9-13.49 2-26.45-.74-39.09-5.11A95.14 95.14 0 01296.54 218 87.74 87.74 0 01272 185.88c-3.88-8.79-7.12-17.85-8.09-27.52-.42-4.17-.57-8.38-.85-12.78zm-203.31 0c-.83 16.36-4.57 31.83-12.48 46.07a96.05 96.05 0 01-22 26.84c-7.88 6.68-16.37 12.3-26 15.74a151.07 151.07 0 01-21.6 5.65 67.08 67.08 0 01-15 1.16c-14.65-.48-28.72-3.43-40.76-12.42a76.76 76.76 0 01-20.85-23.47c-6.33-11-9.67-23.13-11.9-35.53-1-5.84-1.22-11.83-1.81-17.75-.2-2-.47-4-.74-6.29z"/></g></symbol><symbol viewBox="0 0 500 500" id="svg15" xmlns="http://www.w3.org/2000/svg"><g fill="#fff"><path d="M253.2 496.23c-135.09 0-245-109.91-245-245s109.9-245 245-245 245 109.91 245 245-109.92 245-245 245zm0-482.39c-130.89 0-237.37 106.5-237.37 237.4S122.31 488.61 253.2 488.61s237.37-106.48 237.37-237.37S384.09 13.84 253.2 13.84z"/><path d="M178.64 305.13a90.67 90.67 0 0029.72 24.21l16.19-19a66.41 66.41 0 01-10.71-5.16zM246.44 339.59c-6.2 0-11.24-5.42-11.24-12.11s5-12.12 11.24-12.12 11.24 5.42 11.24 12.12-5 12.11-11.24 12.11m57.5 21.31l-40.93-48a21.4 21.4 0 00-33.14.06l-40.93 47.95a2.91 2.91 0 002.08 4.86h110.85a2.88 2.88 0 002.07-4.83M211.75 213.76l-1.45 5.85a6.12 6.12 0 004 7.43 3 3 0 012 3.7L209 260a3.08 3.08 0 002 3.72l16.28 4.71a2.82 2.82 0 003.44-2.15L238 237a2.79 2.79 0 013.44-2.13 5.59 5.59 0 006.88-4.29l1.47-5.85-38-11M281.74 96l-38-11a2.78 2.78 0 00-3.42 2.15L238.84 93a3.08 3.08 0 002 3.72l38 11a2.8 2.8 0 003.44-2.15l1.45-5.84a3.06 3.06 0 00-2-3.72M262.51 287h-95.24a2.39 2.39 0 00-2.3 2.48v6.84a2.7 2.7 0 002.59 2.8h94.95c1.55 0 3.61-1.63 3.61-3.3v-6.12c0-1.67-2.06-2.75-3.61-2.75M305.33 168.21A30.89 30.89 0 01294 190.07c35.29 38 21.46 102.75-25.71 120.2l16.18 19.05c58.9-29.74 70-115 20.82-161.11M277.35 183.91c-9.31 0-16.86-8.13-16.86-18.17s7.55-18.18 16.86-18.18 16.86 8.13 16.86 18.18-7.56 18.17-16.86 18.17m0-42.42c-12.41 0-22.48 10.86-22.48 24.25S264.94 190 277.35 190s22.48-10.85 22.48-24.24-10.07-24.25-22.48-24.25"/><path d="M288.59 165.74c0 6.7-5 12.12-11.24 12.12s-11.24-5.42-11.24-12.12 5-12.13 11.24-12.13 11.24 5.42 11.24 12.13M239.4 102.43L213.18 208l38 11 7.6-30.55c-17.36-16.58-9.68-47.46 13-52.4l5.63-22.62z"/></g></symbol><symbol viewBox="0 0 500 500" id="svg16" xmlns="http://www.w3.org/2000/svg"><g fill="#fff"><path d="M153 121.11h27l32.77 117.1 32.39-117.1h27.25l-42.84 143.55h-33.76zM299.31 205.62H319l25.22 83.73h-15.77L323.27 271h-28.92l-5.29 18.31h-15zm20.16 52.06l-10.71-37.44-10.61 37.44zM108.9 336.89h9l10.93 39 10.79-39h9.09l-14.28 47.85h-11.25zM152.81 336.89H161v7.7h-8.16zm0 13.35H161v34.5h-8.16zM182.17 378.42a24.57 24.57 0 003.36-.26v6.71a34.54 34.54 0 01-6.78.59c-5.67 0-8.1-2.5-8.1-8.1V357h-4.48v-6.72h4.48v-11.09h8.16v11.05h6.72V357h-6.72v17.4c0 2.9.4 4.02 3.36 4.02zM208.17 381.71a17.06 17.06 0 01-10.27 3.42c-5.79 0-9.22-3.49-9.22-9.21 0-7.7 6.39-11.78 19.55-13.43v-2.7c0-2.5-1.7-4-4.86-4a9 9 0 00-7.57 4l-5.53-3.49q4.35-6.71 13.23-6.71c8.09 0 12.63 3.88 12.63 10.2v20.27a30.81 30.81 0 00.53 4.68h-7.77zm-11.45-6.45a3.36 3.36 0 003.69 3.68c2.57 0 5.06-1.18 7.56-3.62V368c-7.63 1-11.25 3.18-11.25 7.26zM224.7 350.24h7.5v4a12.42 12.42 0 019.75-4.67c4.07 0 6.77 1.64 8.49 5.13 3.49-3.49 6.78-5.13 11.12-5.13 5.72 0 9.21 3.36 9.21 8.75v26.4h-8.16V361c0-3-1.31-4.68-3.75-4.68s-4.93 1.19-7.24 3.56v24.88h-8V361.9c0-3.75-1.06-5.53-3.56-5.53a9.69 9.69 0 00-7.31 3.55v24.82h-8.05zM279.34 336.89h8.16v7.7h-8.16zm0 13.35h8.16v34.5h-8.16zM296.13 350.24h7.5v4.09c3.81-3.1 6.84-4.74 10.66-4.74 6.38 0 9.68 3.75 9.68 11.19v24h-8.16v-22.42c0-4.21-1-6.12-3.95-6.12-2.44 0-4.88 1.25-7.64 3.81v24.69h-8.09zM362.61 336.89h11.27l14.41 47.85h-9l-3-10.47h-16.5l-3 10.47h-8.59zm11.53 29.75L368 345.25l-6 21.39z"/><path d="M482.58 487.38h-468v-468h468zM25.52 476.47h446.15V30.33H25.52z"/></g></symbol><symbol viewBox="0 0 500 500" id="svg17" xmlns="http://www.w3.org/2000/svg"><g fill="#fff"><path d="M162.31 113.84h27l32.78 117.09 32.39-117.09h27.25l-42.81 143.55h-33.77zM118.25 329.61h9l10.93 39 10.8-39h9.08l-14.28 47.85h-11.25zM162.15 329.61h8.17v7.7h-8.17zm0 13.36h8.17v34.49h-8.17zM191.51 371.14a23 23 0 003.36-.26v6.71a33.59 33.59 0 01-6.78.59c-5.67 0-8.09-2.49-8.09-8.09v-20.4h-4.49V343H180v-11.08h8.15V343h6.72v6.72h-6.72v17.44c0 2.84.4 3.98 3.36 3.98zM217.52 374.43a17 17 0 01-10.27 3.43c-5.79 0-9.22-3.49-9.22-9.22 0-7.7 6.39-11.78 19.55-13.42v-2.7c0-2.5-1.71-3.95-4.87-3.95a9 9 0 00-7.57 3.95l-5.53-3.52q4.35-6.7 13.23-6.72c8.1 0 12.64 3.89 12.64 10.21v20.27a30.61 30.61 0 00.52 4.67h-7.76zM206.06 368a3.36 3.36 0 003.69 3.69c2.57 0 5.07-1.18 7.57-3.62v-7.37c-7.64 1.03-11.26 3.2-11.26 7.3zM234.05 343h7.5v4a12.38 12.38 0 019.75-4.68c4.07 0 6.77 1.65 8.48 5.14 3.49-3.49 6.78-5.14 11.12-5.14 5.73 0 9.22 3.36 9.22 8.76v26.39H272V353.7c0-3-1.32-4.67-3.75-4.67s-4.94 1.18-7.25 3.55v24.88h-8v-22.83c0-3.76-1.05-5.54-3.55-5.54a9.64 9.64 0 00-7.31 3.56v24.81h-8.09zM288.69 329.61h8.16v7.7h-8.16zm0 13.36h8.16v34.49h-8.16zM305.47 343H313v4.08c3.81-3.09 6.84-4.74 10.66-4.74 6.38 0 9.68 3.75 9.68 11.19v24h-8.17v-22.44c0-4.22-1-6.13-3.95-6.13-2.44 0-4.87 1.25-7.63 3.82v24.68h-8.1zM340.76 217.05h-39.21v19.85h33.5v14.73h-33.5v20.55h39.21v14.74H285v-84.6h55.73zM389.82 337.08h-23.6V349h20.17v8.87h-20.17v12.38h23.6v8.87h-33.55v-50.91h33.55z"/><path d="M488 487.38H20v-468h468zM31 476.47h446.1V30.33H31z"/></g></symbol><symbol viewBox="0 0 500 500" id="svg18" xmlns="http://www.w3.org/2000/svg"><g fill="#fff"><path d="M241.58 488.82c-130 0-235.77-105.77-235.77-235.77S111.58 17.28 241.58 17.28s235.78 105.77 235.78 235.77-105.78 235.77-235.78 235.77zm0-460.32C117.77 28.5 17 129.24 17 253.05S117.77 477.6 241.58 477.6s224.55-100.74 224.55-224.55S365.4 28.5 241.58 28.5z"/><path d="M128.85 227.42A15.06 15.06 0 00114 242.21c0 .57-.52 57.43 33.39 93.45 28.14 29.9 58.82 36.33 80 36.33h1.12a93 93 0 0015.73-1.46 10.72 10.72 0 007.85-5.58 11.08 11.08 0 000-9.81c.9-35-19.06-122.21-122.16-127.68zm0 11h.57c41.07 2.21 71.8 18.31 91.34 47.85C236.4 309.94 241.45 338 241 354.85l-.06 2.41 1 2.23.11.25a83 83 0 01-13.74 1.26h-1c-18.72 0-46.4-5.7-72-32.87-30.54-32.43-30.41-85.26-30.41-85.67a4.26 4.26 0 011.29-3 4.05 4.05 0 012.63-1.11"/><path d="M354.15 226.84h-1c-103.09 6.57-122.1 94.07-120.81 129a11 11 0 00.08 9.81 10.73 10.73 0 007.91 5.5 94.57 94.57 0 0015.75 1.29c21.18 0 52.39-6.45 80.69-37.18 33.67-36.52 32.41-93.24 32.4-93.86a15.18 15.18 0 00-4.92-10.64 15 15 0 00-10.14-3.93m.12 11a4.08 4.08 0 014 3.87c0 .54.87 53.2-29.49 86.14-25.62 27.81-53.63 33.64-72.62 33.64a82.17 82.17 0 01-13.73-1.11 1.21 1.21 0 01.05-.14l1-2.29-.09-2.48c-.61-16.82 4.13-44.92 19.53-68.76 19.22-29.75 49.78-46.19 90.84-48.85zM241.88 252a59.17 59.17 0 1159.17-59.17A59.24 59.24 0 01241.88 252zm0-107.35a48.18 48.18 0 1048.19 48.18 48.23 48.23 0 00-48.19-48.19z"/><path d="M59.512 395.39L416.51 102.044l7.124 8.669L66.635 404.059z"/></g></symbol><symbol viewBox="0 0 500 500" id="svg19" xmlns="http://www.w3.org/2000/svg"><g fill="#fff"><path d="M250.15 499.58c-135.1 0-245-109.91-245-245s109.9-245 245-245 245 109.91 245 245-109.91 245-245 245zm0-483.29c-131.4 0-238.29 106.9-238.29 238.29s106.89 238.28 238.29 238.28S488.43 386 488.43 254.58 381.54 16.29 250.15 16.29z"/><path d="M363.51 365.06h-4v-38.48h-31.2l33.19-33.2 33.19 33.2h-31.18zM338 322.55h47l-23.5-23.48zm-90.5 42.51h-4v-38.48h-31.2l33.19-33.2 33.2 33.2H247.5zM222 322.55h47l-23.48-23.48zm-90.5 42.51h-4v-38.48H96.29l33.2-33.2 33.19 33.2H131.5zM106 322.55h47l-23.47-23.48zm290-58H95v-4h301zm.58-22.31a14.09 14.09 0 01-14.08-14.07 10 10 0 10-20.1 0 14.07 14.07 0 11-28.14 0 10 10 0 10-20.09 0h-4a14.07 14.07 0 1128.14 0 10 10 0 1020.1 0 14.07 14.07 0 1128.14 0 10.07 10.07 0 0010.06 10.05zm-96.49 0A14.08 14.08 0 01286 228.17h4a10.05 10.05 0 0020.1 0h4a14.09 14.09 0 01-14.05 14.07zm-48.24 0a14.09 14.09 0 01-14.08-14.07 10 10 0 10-20.09 0 14.08 14.08 0 01-28.15 0h4a10 10 0 1020.09 0 14.08 14.08 0 1128.15 0 10.05 10.05 0 0020.1 0h4a14.08 14.08 0 01-14.06 14.07zm-96.48 0a14.09 14.09 0 01-14.08-14.07 10 10 0 10-20.09 0 14.08 14.08 0 01-28.15 0h4a10 10 0 1020.09 0 14.08 14.08 0 1128.15 0 10 10 0 1020.09 0 14.08 14.08 0 1128.15 0h-4a10 10 0 10-20.09 0 14.08 14.08 0 01-14.11 14.07zM290 228.17h-4a10 10 0 00-20.1 0h-4a14.07 14.07 0 1128.14 0zm106-35.6H95v-4h301z"/></g></symbol><symbol viewBox="0 0 500 500" id="svg2" xmlns="http://www.w3.org/2000/svg"><g fill="#fff"><path d="M251.13 488.34c-130 0-235.77-105.77-235.77-235.78S121.13 16.79 251.13 16.79 486.9 122.56 486.9 252.56 381.13 488.34 251.13 488.34zm0-460.33C127.31 28 26.58 128.74 26.58 252.56s100.73 224.55 224.55 224.55 224.55-100.73 224.55-224.55S374.94 28 251.13 28z"/><path d="M113.66 304.18c0-9.87 6.63-18 15.12-19.06a75.11 75.11 0 00-1.16 13 111.25 111.25 0 002.7 25.21c-9.21-.19-16.66-8.7-16.66-19.16m20-6.05c0-19.15 7.94-37.2 22.36-50.82 17.67-16.67 42.94-24.95 71.21-23.32 16.27.93 27.48 7 36.3 12.78a3 3 0 004.66-2.57c-.14-6.48 2.75-12.53 7.13-19.65 5.49-8.89 15.23-14.5 27.41-15.78 12.49-1.31 26 2.06 38 9.47 24.57 15.15 35.21 42.64 23.71 61.28-6.62 10.72-19.2 16.57-34.56 16a3.07 3.07 0 00-3 2.11l-18.74 59.68a3 3 0 002.7 3.91c8.52.46 11.62 5.29 11.62 8.42 0 2.81-.49 4.49-1.64 5.61-1.85 1.82-6 2.68-12.24 2.52H262a48.41 48.41 0 0020.06-31c3.56-20.66-6.88-39.69-25.38-46.25a3 3 0 00-1-.18 3 3 0 00-1 5.85c15.7 5.57 24.52 21.84 21.48 39.57-3.16 18.3-19.68 37.88-56.58 37.88-28.41 0-50-6.19-64.16-18.36-14.43-12.42-21.75-31.65-21.75-57.18M308.75 192.5a59.22 59.22 0 00-6.67.28 55 55 0 00-7.48 1.33c-3.06-11-9.45-24.3-17.82-37-1.31-2-2.66-4-4.07-5.87-4-24.68-.24-40.76 5.79-42.09 3.43-.76 8.56 3 13.4 9.94 5.86 8.38 10.72 20.29 13.65 33.53 3.29 14.87 4.47 29.71 3.2 39.87m-41.18-38.14c1.39 1.94 2.8 3.95 4.19 6.07 8.1 12.3 14.26 25.1 17.13 35.56a38.76 38.76 0 00-16.42 12.12c-12-8.66-21.65-18.47-28.73-29.21-8-12.05-13.68-24.88-16.16-36.12s-.74-17.11 1.52-18.6c5-3.31 21.34 6.61 38.17 29.79a4 4 0 00.3.39M107.64 304.18c0 13.89 10.31 25.19 23 25.19a2.9 2.9 0 001.25-.28c3.89 12.59 10.41 22.88 19.59 30.78 15.28 13.15 38.19 19.81 68.08 19.81 12.75 0 23.32-2.27 31.93-6a2.84 2.84 0 00.88.12h56.14c8.09.2 13.37-1.15 16.52-4.22s3.45-7.11 3.45-9.92c0-5.91-4.63-12.15-13.52-14l17-54.1c16.33-.07 30.27-7.05 37.59-18.91 13.23-21.47 1.72-52.68-25.66-69.57a70.93 70.93 0 00-29.09-10.26c1.27-10.79.05-26.21-3.36-41.54-3.09-14-8.28-26.66-14.59-35.67-6.54-9.33-13.49-13.72-19.62-12.37-9.23 2-13.58 17.1-11.71 38.67-14.27-17-30.51-28.85-39.69-22.79-5.4 3.56-6.85 12.4-4.1 24.91 2.63 12 8.68 25.49 17 38.14 7.52 11.4 17.75 21.81 30.4 30.93-3.28 5.52-5.68 10.59-6.58 15.92a73.55 73.55 0 00-35-11.08c-29.92-1.73-56.81 7.14-75.69 25A76.64 76.64 0 00130.11 279c-12.44.3-22.47 11.46-22.47 25.16"/><path d="M219.53 381.44c-30.32 0-53.61-6.81-69.22-20.24-9-7.73-15.59-17.84-19.64-30.07-13.64 0-24.74-12.09-24.74-26.95 0-14.05 10.14-25.8 22.87-26.85a78.8 78.8 0 0121.91-35.66c19.23-18.17 46.6-27.15 77-25.45a74.9 74.9 0 0133.67 10.08 49.69 49.69 0 015.47-12.67 121.16 121.16 0 01-29.54-30.45c-8.46-12.82-14.59-26.58-17.27-38.73-2.92-13.27-1.19-22.77 4.85-26.76 8.5-5.61 22.72 1.53 38.56 19.16-.87-20.15 4-33.2 13.42-35.29 6.86-1.49 14.47 3.13 21.45 13.08 6.45 9.21 11.74 22.1 14.87 36.3 3.25 14.59 4.55 29.51 3.57 40.39a73.1 73.1 0 0128.08 10.29c28.22 17.4 40 49.7 26.23 72-7.38 12-21.44 19.3-37.77 19.73l-16.06 51.09c9 2.56 13 9.33 13 15.23 0 3.13-.41 7.68-4 11.18s-9.11 4.91-17.8 4.72h-56.09a5.12 5.12 0 01-.69 0c-9.3 3.88-20.1 5.87-32.13 5.87zM133 326.63l.6 1.93c3.78 12.28 10.2 22.35 19.05 30 14.95 12.86 37.47 19.39 66.92 19.39 11.76 0 22.27-2 31.24-5.85l.57-.25.61.17 56.54.05c7.41.13 12.52-1 15.29-3.73s2.92-6.16 2.92-8.65c0-4.86-3.75-10.53-12.11-12.23l-1.92-.39 18-57.2H332c15.66-.07 29.15-6.82 36.09-18.07 12.72-20.65 1.47-50.77-25.09-67.15a69.12 69.12 0 00-28.35-10l-1.76-.2.2-1.76c1.26-10.63 0-25.94-3.33-41-3-13.76-8.12-26.2-14.31-35S283 103.81 277.58 105c-8.06 1.8-12.12 16.24-10.34 36.8l.49 5.55-3.59-4.27c-15.46-18.42-30.16-27.21-37.37-22.45-4.67 3.08-5.89 11.49-3.35 23.06 2.59 11.75 8.54 25.08 16.77 37.55 7.4 11.22 17.48 21.48 29.95 30.48l1.31.94-.82 1.39c-3.69 6.2-5.59 10.78-6.36 15.3l-.43 2.55-2.21-1.33a72.18 72.18 0 00-34.18-10.83c-29.54-1.72-55.85 7-74.37 24.49a75.21 75.21 0 00-21.27 35.24l-.34 1.28h-1.32c-11.44.27-20.75 10.77-20.75 23.4 0 12.92 9.52 23.43 21.22 23.43a1.29 1.29 0 00.5-.11zm86.57 48.8c-28.83 0-50.8-6.32-65.3-18.79-14.84-12.76-22.36-32.45-22.36-58.51 0-19.65 8.14-38.15 22.91-52.1 18-17 43.79-25.46 72.52-23.81 16.68 1 28.15 7.15 37.17 13.08a1.26 1.26 0 001.94-1.07c-.16-6.88 2.84-13.21 7.38-20.61 5.78-9.36 16-15.26 28.73-16.6s26.75 2.1 39.1 9.72 21.47 18.26 26.09 30.2c4.69 12.12 4.05 24-1.81 33.51-7 11.28-20.06 17.45-36.13 16.85a1.09 1.09 0 00-1.23.88l-18.78 59.68a1.3 1.3 0 00.2 1.14 1.21 1.21 0 001 .52c9.75.54 13.28 6.39 13.28 10.19 0 3.33-.64 5.39-2.15 6.87-2.26 2.2-6.66 3.2-13.53 3h-52.14l4.5-3.2c10.3-7.32 17.35-18.2 19.35-29.85 3.41-19.81-6.56-38-24.24-44.28-.95-.13-1.42.25-1.59.74a1.26 1.26 0 00.76 1.6c16.51 5.85 25.81 22.93 22.61 41.52-3.28 19-20.32 39.32-58.32 39.32zm.73-149.89c-25 0-47.19 8.07-63.06 23.05-14.06 13.28-21.81 30.87-21.81 49.54 0 25 7.12 43.78 21.14 55.84 13.84 11.9 35 17.94 63 17.94 35.81 0 51.82-18.82 54.85-36.42 2.9-16.87-5.46-32.34-20.32-37.61a4.77 4.77 0 113.21-9c19.31 6.84 30.22 26.66 26.51 48.2A50 50 0 01267.06 366h41.5c7.55.12 10.15-1.19 11-2 .52-.5 1.1-1.45 1.1-4.35 0-2.46-2.65-6.27-9.95-6.67a4.71 4.71 0 01-3.65-2 4.79 4.79 0 01-.64-4.14l18.75-59.7a4.81 4.81 0 014.56-3.34h.15c14.71.61 26.73-5 33-15.18 5.27-8.53 5.81-19.33 1.52-30.39-4.34-11.23-13.1-21.34-24.65-28.47-11.71-7.22-24.82-10.46-36.88-9.22-11.64 1.23-20.91 6.54-26.1 14.95-4.22 6.86-7 12.66-6.86 18.69a4.75 4.75 0 01-2.48 4.27 4.69 4.69 0 01-4.92-.19c-8.62-5.67-19.58-11.59-35.43-12.49-2.28-.16-4.57-.23-6.82-.23zm-87.7 99.61h-2.27c-10.14-.21-18.39-9.59-18.39-20.92 0-10.7 7.16-19.65 16.66-20.8l2.36-.29-.41 2.34a73.11 73.11 0 00-1.13 12.7 109.55 109.55 0 002.58 24.76zm-5.93-37.78c-6.53 2-11.21 8.82-11.21 16.81 0 8.54 5.5 15.74 12.66 17.16a115.75 115.75 0 01-2.22-23.21 76.88 76.88 0 01.73-10.76zm146.19-76.84l-1.38-1c-12.19-8.83-22-18.81-29.17-29.67-8.06-12.21-13.89-25.25-16.41-36.71-2.27-10.37-1.42-18 2.27-20.45 7.09-4.67 24.89 8.62 40.57 30.23l.3.39c1.41 2 2.82 4 4.23 6.13 8.25 12.51 14.41 25.32 17.35 36.07L291 197l-1.46.59a36.84 36.84 0 00-15.68 11.57zm-41.27-85.24a2.77 2.77 0 00-1.48.36c-1.08.72-3.32 5.11-.77 16.76 2.44 11 8.09 23.65 15.91 35.52a111.38 111.38 0 0027 27.77 40.14 40.14 0 0114.51-10.7c-3-10-8.92-22.12-16.47-33.58-1.37-2.08-2.74-4.05-4.1-6a3.14 3.14 0 01-.38-.5c-15.22-20.92-29.05-29.63-34.26-29.63zm61.81 71l-.46-1.66c-3-10.78-9.4-24.08-17.59-36.49-1.3-2-2.63-3.91-4-5.81l-.32-.76c-3.85-23.77-.84-42.32 7.14-44.09 4.22-.92 9.9 3 15.23 10.65 6 8.58 11 20.71 13.93 34.16 3.32 15 4.52 30.1 3.23 40.47l-.2 1.55h-1.57c-2.3 0-4.42.06-6.47.27a52.46 52.46 0 00-7.23 1.29zm-19-45.7c1.33 1.84 2.62 3.72 3.86 5.61 8.1 12.28 14.3 24.93 17.57 35.85a56.67 56.67 0 016.08-1c1.69-.17 3.42-.27 5.27-.3 1-9.92-.26-23.86-3.34-37.72-2.88-13-7.62-24.69-13.38-32.9-4.95-7.07-9.38-9.69-11.58-9.23-4.4.96-8.38 15.28-4.49 39.65z"/><path d="M335.89 225.48a8.43 8.43 0 11-8.42 8.43 8.42 8.42 0 018.42-8.43"/></g></symbol><symbol viewBox="0 0 500 500" id="svg20" xmlns="http://www.w3.org/2000/svg"><path d="M247.33 16.79c-130.12 0-236 105.87-236 236s105.87 236 236 236 236-105.87 236-236-105.87-236-236-236zm53.83 176.35l122.37-79.46q6.9 8.71 12.92 18.12L342 193.14zm150-34.53a222.5 222.5 0 0112.68 34.53H398zM416.21 105l-120.8 78.4V33.33A224.69 224.69 0 01416.21 105zM96.7 193.14H30.86a223.49 223.49 0 0112.67-34.53zm-48.22-44.79q5.21-9.89 11.33-19.16l98.48 63.95h-40.84zm150.77-115V183.4L78.47 104.94a224.68 224.68 0 01120.78-71.61zm-174 186.84l113.2.07h78.77l1.43-190.21A224.66 224.66 0 01247.33 28a225.26 225.26 0 0128.74 2.05l.68 190.1v.11h79.43l.17-.11h113.1a224.88 224.88 0 012.64 32.62 224.43 224.43 0 01-3.32 37.08l-192 1.88-.69 183.75a225 225 0 01-28.73 2.05 225 225 0 01-28.72-2.05l-1.42-183.75-191.31-1.86a224.43 224.43 0 01-3.33-37.08 223.48 223.48 0 012.65-32.62zm409.6 156.21l-98.47-64h40.82l69 44.79q-5.2 9.93-11.35 19.21zm-36.89-64h65.84a221.82 221.82 0 01-12.67 34.6zm69.63-14.91c-.09.46-.2.91-.3 1.36.1-.41.21-.85.3-1.32zM58.22 373.78l94.45-61.34h40.84L71.14 391.9q-6.9-8.73-12.92-18.12zM43.53 347a223.87 223.87 0 01-12.67-34.53h65.85zm-16.17-48.14c-.09-.44-.2-.87-.29-1.31.09.45.2.87.29 1.31zm51.11 101.77l120.78-78.45v150.06a224.68 224.68 0 01-120.78-71.61zm216.94 71.61V322.18l120.79 78.45a224.61 224.61 0 01-120.79 71.61z" fill="#fff"/></symbol><symbol viewBox="0 0 500 500" id="svg21" xmlns="http://www.w3.org/2000/svg"><g fill="#fff"><path d="M250 499.58c-135.09 0-245-109.91-245-245s109.91-245 245-245 245 109.91 245 245-109.91 245-245 245zm0-483.29c-131.39 0-238.28 106.9-238.28 238.29S118.61 492.87 250 492.87 488.29 386 488.29 254.58 381.39 16.29 250 16.29z"/><path d="M250 378.4a2 2 0 01-2-2v-42.09h-28.88a2 2 0 01-1.42-3.44L248.58 300a2 2 0 012.84 0l30.88 30.85a2 2 0 01-1.42 3.44H252v42.07a2 2 0 01-2 2.04zm0-48.12h26l-26-26-26 26zM250 209.74a2 2 0 01-1.43-.59l-30.86-30.86a2 2 0 011.42-3.44H248v-42.07a2 2 0 114 0v42.07h28.86a2 2 0 011.43 3.44l-30.88 30.86a2 2 0 01-1.41.59zm-26-30.86l26 26 26-26zM172.29 287.47a2.07 2.07 0 01-.77-.15 2 2 0 01-1.25-1.86V256.6H128.2a2 2 0 110-4h42.07v-28.89a2 2 0 013.44-1.42l30.86 30.88a2 2 0 010 2.84l-30.86 30.87a2 2 0 01-1.42.59zm2-58.89v52l26-26zM327.72 287.46a2 2 0 01-1.43-.59L295.44 256a2 2 0 010-2.84l30.85-30.87a2 2 0 013.44 1.43v28.85h42.08a2 2 0 010 4h-42.08v28.87a2 2 0 01-1.24 1.86 1.89 1.89 0 01-.77.16zm-28-32.89l26 26v-52z"/></g></symbol><symbol viewBox="0 0 500 500" id="svg22" xmlns="http://www.w3.org/2000/svg"><g fill="#fff"><path d="M250.59 496C115.5 496 5.6 386.05 5.6 251S115.5 6 250.59 6s245 109.91 245 245-109.9 245-245 245zm0-484.24C118.68 11.72 11.36 119 11.36 251s107.32 239.19 239.23 239.19S489.83 382.88 489.83 251 382.51 11.72 250.59 11.72z"/><path d="M250.59 349.72h.01l-.01-.01zM406.76 241.87c-4.74-59.4-44-111.62-100.12-133a156.82 156.82 0 00-56.29-10.74c-21.25 0-42.42 4.6-63.32 13.8a151 151 0 00-45.95 31.82l-6.19 5 23.35 20-71.34 21.76 11.59-73.29 23.08 20.19L125 134c35.72-35.58 79.35-52.94 130-51.64 37.24 1 71.06 12.76 100.54 35.06s50.31 52 61.61 88.11c5.25 16.76 7.56 39.18 7.79 52.21-6.08-5.29-12.18-10.59-18.18-15.87z"/><path d="M402.37 392.82l-23.83-21.08-3.45 3.49c-35 35.42-75 53-122.52 53.82-34 .61-65.06-7.87-92.33-25.11-55.35-35-82.91-84.57-84-151.26l.8.7c5.65 4.91 11.3 9.83 17.11 15.07 4 42.05 22 77.3 53.54 104.77 29.2 25.42 63.63 38.41 102.33 38.6 37.87.07 73.11-13.36 104-40.26 1.66-1.45 3.27-2.93 4.93-4.47l6.56-6-22.86-19.66L414 319.61z"/></g></symbol><symbol viewBox="0 0 500 500" id="svg23" xmlns="http://www.w3.org/2000/svg"><g fill="#fff"><path d="M248.06 490.29c-130.13 0-236-105.88-236-236s105.87-236 236-236 236 105.87 236 236-105.86 236-236 236zm0-460.77C124.13 29.52 23.3 130.35 23.3 254.29s100.83 224.76 224.76 224.76 224.77-100.83 224.77-224.76S372 29.52 248.06 29.52z"/><path d="M284.89 202.61a6.45 6.45 0 001.85-9 6.66 6.66 0 00-9.15-1.82c-32 21-54.11 58.82-63.84 109.46a301 301 0 00-5.15 70.26 6.58 6.58 0 006.59 6.06h.45a6.55 6.55 0 006.15-6.93c-.08-1.22-7.52-121.78 63.1-168"/><path d="M173.19 287.36a6.65 6.65 0 009 2.4 6.47 6.47 0 002.43-8.9c-.33-.56-32.22-56.42 6.55-100.92 31.33-36 99.82-36.72 127.22-35.46-6.67 9.92-14.89 25.3-11.83 37.36 1.89 7.5 6.75 55.23-17.54 85.89-13.4 16.92-33.56 25.49-59.93 25.49a6.51 6.51 0 100 13c30.65 0 54.31-10.25 70.35-30.49 27.87-35.21 22.2-88.11 19.93-97.07S328.3 152 335.88 143a6.39 6.39 0 001.06-6.59 6.6 6.6 0 00-5.37-4c-4.32-.48-106.36-11.44-150.4 39.1-18.59 21.34-25.85 48.2-21 77.69a121.46 121.46 0 0013 38.21"/></g></symbol><symbol viewBox="0 0 500 500" id="svg24" xmlns="http://www.w3.org/2000/svg"><g fill="#fff"><path d="M248.64 496c-135.09 0-245-109.91-245-245S113.55 6 248.64 6s245 109.9 245 245-109.91 245-245 245zm0-483.18C117.31 12.78 10.46 119.62 10.46 251s106.85 238.14 238.18 238.14S486.82 382.29 486.82 251 380 12.78 248.64 12.78z"/><path d="M371.81 288a9.74 9.74 0 00-11.81 7.2 117.49 117.49 0 01-228.59-.12 9.79 9.79 0 10-19 4.49 137.05 137.05 0 00266.67.16 9.76 9.76 0 00-7.27-11.73z"/><circle cx="167.45" cy="189.66" r="19.57"/><circle cx="324.05" cy="189.66" r="19.57"/></g></symbol><symbol viewBox="0 0 500 500" id="svg3" xmlns="http://www.w3.org/2000/svg"><g fill="#fff"><path d="M250.81 496c-135.09 0-245-109.91-245-245S115.72 6 250.81 6s245 109.91 245 245-109.91 245-245 245zm0-483.18C119.47 12.78 12.63 119.62 12.63 251s106.84 238.14 238.18 238.14S489 382.29 489 251 382.14 12.78 250.81 12.78z"/><path d="M65.34 286.76h375.97v13.64H65.34zM95.27 354.37a4.93 4.93 0 01-1.81-.34 5 5 0 01-1.62-1.03 4.88 4.88 0 010-6.87 6 6 0 01.76-.61 4.12 4.12 0 01.8-.43 4.86 4.86 0 011-.29 4.76 4.76 0 011.84 0 3.9 3.9 0 01.89.27 4.1 4.1 0 01.93.52 4.2 4.2 0 01.63.51 4.85 4.85 0 01-3.4 8.3zm.16-5.67h-.05l-.6.11a.88.88 0 00-.34.67.86.86 0 00.25.6l.58.24a.79.79 0 00.57-.25.8.8 0 00.26-.59.82.82 0 00-.23-.57zM130.89 394.72a4.82 4.82 0 01-3.41-1.41 3.88 3.88 0 01-.64-.79 4.71 4.71 0 01-.43-.78 4.57 4.57 0 01-.24-.82 5.17 5.17 0 01-.12-1 4.93 4.93 0 01.09-.87 4.76 4.76 0 01.33-1.06 4.46 4.46 0 01.37-.69 4.06 4.06 0 01.69-.83 4.78 4.78 0 013.35-1.32 4.87 4.87 0 013.42 1.37 4.48 4.48 0 01.6.7 5.72 5.72 0 01.46.86 4 4 0 01.29 1.08 2.86 2.86 0 01.07.76 5.29 5.29 0 01-.07.9 5.66 5.66 0 01-.31 1 4.32 4.32 0 01-.43.77 4.2 4.2 0 01-.61.73 4.84 4.84 0 01-3.41 1.4zm0-5.58a.84.84 0 00-.57.2h-2.2l2 .57.16.46a.83.83 0 001.26.06l.22-.55-.18-.5a.89.89 0 00-.68-.24zM160.1 354.37a4.85 4.85 0 01-4.83-4.84 4.83 4.83 0 015.82-4.75 4.87 4.87 0 011.81.79 4.73 4.73 0 01.67.56 4.94 4.94 0 011.4 3.4 4.94 4.94 0 01-.38 1.84 5 5 0 01-.42.8 5.21 5.21 0 01-.66.8 4.23 4.23 0 01-.68.56 5.72 5.72 0 01-.78.45 4.4 4.4 0 01-1 .29 5 5 0 01-.95.1zm.23-4l2.14.77-1.7-1.06h2.13l-2-.56a.9.9 0 00-.28-.61c-.67-.26-1-.17-1.16 0a.89.89 0 00-.22.59.82.82 0 00.23.58.83.83 0 00.58.25zM195.74 394.72a4.85 4.85 0 01-3.43-1.42 7.88 7.88 0 01-.59-.72 4.39 4.39 0 01-.46-.85 3.94 3.94 0 01-.29-1.08 2.65 2.65 0 01-.07-.78 4.09 4.09 0 01.13-1.08 2.77 2.77 0 01.23-.76 5.24 5.24 0 01.47-.87 5.94 5.94 0 01.5-.63 4.41 4.41 0 01.88-.7 4.47 4.47 0 01.76-.42 4.93 4.93 0 01.88-.27 4.84 4.84 0 014.42 1.33 3.87 3.87 0 01.63.77 5.05 5.05 0 01.43.79 4.3 4.3 0 01.29 1.12 2.57 2.57 0 01.06.72 3.81 3.81 0 01-.14 1.13 2 2 0 01-.22.75 3.89 3.89 0 01-.5.88 3.41 3.41 0 01-.61.71 4.72 4.72 0 01-3.37 1.38zm0-5.67h-.14l-.69.79-1.18 2 1.41-1.43a.84.84 0 001.17 0l.29-.61-.19-.49a1 1 0 00-.68-.26zM224.93 354.37a4.8 4.8 0 01-3.42-1.42 5.14 5.14 0 01-.57-.68 5.54 5.54 0 01-.49-.88 5.47 5.47 0 01-.26-.9 3.89 3.89 0 01-.1-1 4.93 4.93 0 011.4-3.41 5.32 5.32 0 01.8-.65 4.82 4.82 0 011.76-.71 4.62 4.62 0 011.85 0 4.29 4.29 0 01.89.27 3.8 3.8 0 01.9.51 4.45 4.45 0 01.61.49 5 5 0 011.47 3.48 4.86 4.86 0 01-1.4 3.42 5.19 5.19 0 01-.8.64 5.68 5.68 0 01-.67.39 5.25 5.25 0 01-1 .3 5.7 5.7 0 01-.97.15zm0-3.91l.06 1.9.16-2c.52-.36.61-.58.61-.8a1 1 0 00-.25-.61l-.76-.2c-.5.36-.6.59-.6.8l-1.54 1.58 1.74-1a.87.87 0 00.62.29zM260.59 394.72a4.79 4.79 0 01-3.43-1.43 4.53 4.53 0 01-.64-.78 4.34 4.34 0 01-.41-.78 4.79 4.79 0 01-.27-.86 5.22 5.22 0 01-.09-1 5.1 5.1 0 01.07-.87 5.65 5.65 0 01.29-1 4.94 4.94 0 01.41-.79 4.54 4.54 0 01.65-.78 4.78 4.78 0 014.38-1.33 6.1 6.1 0 01.88.27 5.16 5.16 0 01.86.47 3.49 3.49 0 01.77.64 3.55 3.55 0 01.61.75 6.92 6.92 0 01.39.77 5.27 5.27 0 01.27.88 6.14 6.14 0 01.1 1 5.3 5.3 0 01-.09.91 5.94 5.94 0 01-.29 1 5.25 5.25 0 01-.43.81 4.22 4.22 0 01-.61.73 4.77 4.77 0 01-3.42 1.39zm0-5.67a.83.83 0 00-.57.22l-.25.6.15.51a.81.81 0 001.25.08l.25-.59-.19-.53-.08-2.24-.4 2zM289.78 354.37a5.27 5.27 0 01-.89-.09 5.66 5.66 0 01-1-.26 5.55 5.55 0 01-.84-.48 4.8 4.8 0 01-.67-.54 4.87 4.87 0 01-1.47-3.48 5 5 0 011.39-3.41 7.17 7.17 0 01.81-.65 3.54 3.54 0 01.78-.42 5.21 5.21 0 011-.29 4.62 4.62 0 011.85 0 4 4 0 01.88.27 3.85 3.85 0 01.92.51 3.62 3.62 0 01.64.52 4.89 4.89 0 011.44 3.45 4.78 4.78 0 01-.08.84 4.88 4.88 0 01-.28 1 4.51 4.51 0 01-.47.87 5.07 5.07 0 01-.66.78 4.72 4.72 0 01-3.35 1.38zm-.22-5.65c-.51.36-.61.58-.61.8a.86.86 0 00.25.6l.58.24a.79.79 0 00.57-.25l2.21-.07-1.95-.52a.89.89 0 00-.26-.6zM325.41 394.72a4.81 4.81 0 01-3.43-1.43 3.83 3.83 0 01-.63-.78 3.68 3.68 0 01-.43-.78 5.33 5.33 0 01-.24-.83 3.75 3.75 0 01-.12-1 4 4 0 01.14-1.08 4.21 4.21 0 01.22-.76 6.35 6.35 0 01.41-.77 4.23 4.23 0 01.71-.86 3.78 3.78 0 01.71-.56 4.85 4.85 0 01.82-.44 5.09 5.09 0 01.84-.26 5.23 5.23 0 011.93 0 6.43 6.43 0 01.93.28 5.07 5.07 0 01.82.46 3.75 3.75 0 01.74.6 3.84 3.84 0 01.64.78 4.89 4.89 0 01.42.79 4 4 0 01.29 1.08 2.6 2.6 0 01.07.76 4.17 4.17 0 01-.14 1.13 2.39 2.39 0 01-.23.75 4.9 4.9 0 01-.42.78 4.17 4.17 0 01-.63.76 4.77 4.77 0 01-3.42 1.38zm.55-7.62l-.39 2-.67.2-.33.58.18.52a.8.8 0 001.24.08l.26-.6-.19-.49zM354.6 354.37a4.87 4.87 0 01-4.85-4.85 4.85 4.85 0 011.44-3.44 4.45 4.45 0 01.77-.62 4.57 4.57 0 01.78-.42 4.53 4.53 0 01.95-.28 4.42 4.42 0 011.88 0 4.29 4.29 0 01.89.27 3.87 3.87 0 011 .55 3.25 3.25 0 01.65.54 4.8 4.8 0 011.38 3.39 6.36 6.36 0 01-.06.87 5 5 0 01-.3 1 6.8 6.8 0 01-.42.8 5 5 0 01-.64.78 4.78 4.78 0 01-3.47 1.41zm-1.08-7.48l.68 1.91a.93.93 0 00-.43.72.78.78 0 00.24.58.82.82 0 001.18 0l.23-.59a.82.82 0 00-.23-.58l-.46-.24zM390.25 394.72a4.8 4.8 0 01-3.41-1.41 4.73 4.73 0 01-.61-.72 5.49 5.49 0 01-.46-.85 3.72 3.72 0 01-.28-1.07 2.46 2.46 0 01-.08-.77 3.89 3.89 0 01.14-1.08 2.38 2.38 0 01.22-.76 6.15 6.15 0 01.4-.76 4.67 4.67 0 01.72-.85 4.8 4.8 0 013.36-1.32 4.8 4.8 0 013.41 1.38 3.8 3.8 0 01.64.77 5.25 5.25 0 01.4.78 6.44 6.44 0 01.28.88 5.91 5.91 0 01.1 1A3.86 3.86 0 01395 391a4.89 4.89 0 01-.24.78 4.71 4.71 0 01-.47.82 3.75 3.75 0 01-.63.73 4.76 4.76 0 01-3.41 1.39zm0-5.58a.82.82 0 00-.58.21l-.25.54-1.17 2 1.41-1.43a.84.84 0 001.18 0l.26-.57 1.51-1.54-1.7 1.07a.92.92 0 00-.65-.27zM419.44 354.37a4.75 4.75 0 01-3.43-1.44 4.06 4.06 0 01-.56-.66 5.11 5.11 0 01-.49-.88 4.73 4.73 0 01-.29-1.08 2.84 2.84 0 01-.07-.78 4.79 4.79 0 011.45-3.45 4.87 4.87 0 014.35-1.29 4.41 4.41 0 01.92.27 4.13 4.13 0 01.95.56 2.83 2.83 0 01.57.46 4.82 4.82 0 011.45 3.45 4.26 4.26 0 01-.13 1.07 2.88 2.88 0 01-.23.77 6.25 6.25 0 01-.45.85 6.63 6.63 0 01-.69.8 4.71 4.71 0 01-1.44 1 5.11 5.11 0 01-1.91.35zm-.14-5.6a.58.58 0 00-.44.17.82.82 0 00-.24.59l-1.54 1.57 1.74-1a.82.82 0 001 .22l2.25.33-1.86-.77c.06-.52 0-.75-.17-.88a2.1 2.1 0 00-.74-.23zM65.86 229.77h375.97v6.82H65.86zM65.86 202.9h375.97v5.45H65.86zM65.86 257.67h375.97v10.23H65.86z"/></g></symbol><symbol viewBox="0 0 500 500" id="svg4" xmlns="http://www.w3.org/2000/svg"><g fill="#fff"><path d="M245.62 496c-135.09 0-245-109.95-245-245S110.53 6 245.62 6s245 109.9 245 245-109.91 245-245 245zm0-483.18C114.28 12.78 7.44 119.62 7.44 251s106.84 238.14 238.18 238.14S483.8 382.29 483.8 251 377 12.78 245.62 12.78z"/><path d="M399.4 360.53c0-.33-.09-.66-.13-1a9.47 9.47 0 00-.63-2.83c-1.14-2.52-2.34-5-3.54-7.5-2.11-4.4-4.3-8.94-6.07-13.51-1.85-4.82-3.37-9.85-4.82-14.73-2.39-7.95-4.85-16.19-9-24-6.86-13-12.58-26.9-18.11-40.35q-3.22-7.87-6.54-15.72a10.67 10.67 0 01-.29-4.14c.08-2.21.2-4.43.32-6.64.22-4 .45-8.23.4-12.35a25.09 25.09 0 00-1.26-6.54c-.27-.89-.53-1.79-.74-2.69l-.36-1.55-5.23.81v7.42c.06 1.06.21 2.13.36 3.19.12.87.24 1.74.31 2.61 1 14.25-3.24 27.25-7.56 38.09-1.31 3.29-2.91 6.59-4.45 9.77-2.54 5.22-5.16 10.62-6.66 16.3a137.44 137.44 0 00-4.4 32.33c-.24 13-.22 26.7 2.72 39.41 1.12 4.83 2.31 9.64 3.49 14.45 3.63 14.72 7.38 29.94 9.06 45.29a30.58 30.58 0 001.27 5.4c.23.76.46 1.51.65 2.27l.39 1.46 4.69-.62.12-1.37c.05-.55.14-1.1.23-1.65a13.92 13.92 0 00.21-4.24c-.89-5.69-1.86-11.37-2.83-17q-1.08-6.28-2.11-12.58a193.92 193.92 0 00-5-20.7c-2.79-10-5.69-20.38-5.92-31.12l-.08-3.49c-.33-13.63-.66-27.73 3.15-40.78 3.05-10.45 7.29-20.35 11.77-30.84 1.44-3.36 2.88-6.75 4.29-10.16l25.3 56.06c.42.94.9 1.86 1.39 2.78a25.21 25.21 0 012.08 4.65c.9 3.11 1.67 6.25 2.45 9.39a149.45 149.45 0 004.32 15.27 129.49 129.49 0 007.91 16.62l2.15 4c.66 1.25 2 1.66 3.27 2a10.51 10.51 0 011.08.36l2.9 1.25zM148.46 212.39a4.72 4.72 0 00-.92-3.32 7.94 7.94 0 01-.46-.85l-.51-1.19-3.53.49-.38.88a36.17 36.17 0 00-2.5 19.11c1.19 8.77.31 15.67-2.87 22.39-6.26 13.22-12.26 26.83-18.06 40l-6.44 14.55a99.7 99.7 0 00-4.66 11.55c-1 3.25-1.87 6.54-2.76 9.83-3 11.13-5.83 21.65-12.76 30.79a5.46 5.46 0 00-.85 3.08c0 .32 0 .63-.08.92l-.19 1.09L94.8 364l1-1c.42-.43.88-.84 1.35-1.24a10.92 10.92 0 003.13-3.68c3.77-8.59 7.67-17.48 10.9-26.57a82.18 82.18 0 002.52-9.4 62 62 0 013.23-11.11c5-11.52 10.5-23.09 15.8-34.27q4-8.46 8-16.94c1.27-2.74 2.4-5.54 3.57-8.45a2.44 2.44 0 01.1-.24c.27.77.55 1.52.82 2.28 1.73 4.78 3.38 9.29 5.23 13.78 1.14 2.78 2.46 5.51 3.77 8.23a90.84 90.84 0 015.48 13c4.65 15.29 4.13 31.43 3.63 47.05-.08 2.37-.16 4.74-.22 7.11a46.11 46.11 0 01-1.94 12.82 344.74 344.74 0 00-12.92 59.28c-.06.47-.18 1-.3 1.51-.6 2.5-1.49 6.28 2.47 9.51l1.87 1.51.81-2.27c.24-.68.49-1.28.71-1.85a17.56 17.56 0 001.12-3.48c.79-4.4 1.47-8.82 2.16-13.24 1.37-8.85 2.79-18 5-26.74l.16-.63c4.44-17.67 9-35.94 8.46-55.08-.53-18-2.34-37.21-11.88-55.85-10.72-20.8-14-38.48-10.37-55.65zM249.43 138.06l-1.37-.27c-2-.38-3.51-.18-4.5.7-1.34 1.18-1.23 3-1.15 4.26v212.54a8.14 8.14 0 00.28 3 4.25 4.25 0 003.33 2.62h.14c1.6 0 2.91-1.95 3.13-3a11.64 11.64 0 00.16-3zM335.41 122c9.45-1.12 17.68 3.14 24.43 12.65a56.89 56.89 0 017.36 13.78c2.47 7 4.76 14.2 7 21.17 2.08 6.55 4.16 13.09 6.41 19.57 3.24 9.3 7 18.58 10.59 27.57l1.54 3.83a5.48 5.48 0 002.72 2.47 8.34 8.34 0 01.94.56l2.41 1.73.28-3c0-.32.1-.66.16-1a6.46 6.46 0 00.06-3.19c-.55-1.77-1.24-3.5-1.93-5.23-.48-1.21-1-2.41-1.39-3.63q-2.88-8.17-5.73-16.35c-3.31-9.47-6.61-18.92-10-28.35-.72-2-1.42-4-2.12-6a172 172 0 00-8.23-20.79c-8.48-17-21.39-24.46-39.56-22.63-.62-.1-1.39-.18-2.25-.26-2.33-.22-5.51-.52-7.83-1.87-10.92-6.36-22-13.47-33.9-21.74a16.76 16.76 0 01-7.41-14.79 11.82 11.82 0 00-.56-3.41 19.1 19.1 0 01-.32-1.25l-.77-3.65-2.25 3c-.28.36-.56.7-.85 1.06a15.89 15.89 0 00-2.1 3 6.73 6.73 0 00-.32 4.15A27.94 27.94 0 00283.28 98c1.78 1.26 3.54 2.57 5.29 3.87 2.91 2.17 5.91 4.4 9 6.41l3.08 2c10.19 6.56 20.68 13.44 34.76 11.72zM219.36 75.55a7.7 7.7 0 00-1.66-3.5c-.25-.36-.51-.73-.73-1.1l-.67-1.17-4.3 1.31.23 1.47c1.15 7.09-.65 12.8-5.34 17a119.42 119.42 0 01-9.85 7.6l-2.91 2.1c-14 10.21-26 17.9-42.71 16-4.3-.49-9.79 1.58-16.6 6.32-10.48 7.3-15.47 18.43-19.31 29.37-1.7 4.88-3.11 9.93-4.46 14.81s-2.74 9.88-4.43 14.67c-2.73 7.78-5.84 15.6-8.85 23.15-1.68 4.24-3.37 8.47-5 12.73a19.4 19.4 0 00-.93 3.94c-.09.55-.18 1.11-.3 1.66l-.25 1.23 3.35 1.86.9-.83a9.21 9.21 0 01.76-.61 5.75 5.75 0 002.18-2.43l3.22-8.3c4.58-11.79 9.32-24 13.64-36.09 1.56-4.39 2.87-8.93 4.13-13.32 1.45-5 3-10.24 4.82-15.16a67.37 67.37 0 019.11-15.95c5-6.81 12.44-10.4 21.38-10.4h1.14c8.23.13 16.73.16 24.39-5.11 3.51-2.42 7.11-4.75 10.7-7.06 5.5-3.57 11.2-7.25 16.55-11.27 8.97-6.75 12.83-14.25 11.8-22.92zM223 169.69a6.41 6.41 0 00-1-3.09 8.86 8.86 0 01-.47-.92l-.52-1.17-4.79.65v1.5c0 .88 0 1.77-.06 2.67a46.65 46.65 0 00.11 6.13 169.68 169.68 0 01-2.51 51 131.46 131.46 0 01-13.3 37.77 5.73 5.73 0 00-.38 3.29 6.74 6.74 0 01.06 1l-.05 3.06 2.63-1.57a8.92 8.92 0 011-.48 6.11 6.11 0 002.84-2.1 73.66 73.66 0 004.64-8.93c7.36-16.75 11.25-32.67 11.89-48.65.4-10.17.25-20.5.12-30.49q-.14-4.83-.21-9.67zM294.47 267.45a7.38 7.38 0 00-.35-3.32c-1-2.35-2.05-4.65-3.12-7-1.54-3.31-3.13-6.72-4.41-10.16-5.1-13.78-7.73-26.61-8.07-39.22-.2-7-.15-14.24-.1-21.19v-11.64c0-1.94-.12-3.88-.23-5.81l-.2-4.09-4-.52-.57.94c-.16.26-.34.5-.52.75a5.77 5.77 0 00-1.3 2.81c-.43 3.5-.89 7.64-1 11.83-.32 13.21-.24 28.81 2.74 44.39 3.25 17 7.91 30.39 14.68 42.11a5.87 5.87 0 002.83 2.19 8.87 8.87 0 011 .51l2.71 1.67-.1-3.18a10.06 10.06 0 01.01-1.07zM213.72 395l-.23-.4a6.46 6.46 0 00-1.73-1.79c-.38-.31-.85-.69-1.41-1.2l-2.66-2.39-.18 3.57c0 .75-.12 1.41-.2 2a6.08 6.08 0 00.2 3.53 104.47 104.47 0 005.43 10 5.56 5.56 0 002.42 1.9 7.33 7.33 0 01.79.42l2.2 1.4.39-2.58a7.61 7.61 0 01.24-1 5.06 5.06 0 00.08-3.5c-1.6-3.42-3.5-6.74-5.34-9.96zM286.1 394.34a3.9 3.9 0 00-1.8-1.68c-1.13-.42-3.23-.18-4 1.13-2.58 4.41-4.77 8.4-6.72 12.22-.53 1-.18 2.4 1 4.05a2.18 2.18 0 001.84.79h.22a2.77 2.77 0 002.33-1.13c2-3.34 4-6.73 6-10.2l2.18-3.78-.74-.92a4 4 0 01-.31-.48z"/></g></symbol><symbol viewBox="0 0 500 500" id="svg5" xmlns="http://www.w3.org/2000/svg"><g fill="#fff"><path d="M247.55 499.58c-135.09 0-245-109.9-245-245s109.9-245 245-245 245 109.91 245 245-109.9 245-245 245zm0-483.09c-131.28 0-238.09 106.8-238.09 238.09s106.81 238.09 238.09 238.09 238.1-106.81 238.1-238.09S378.84 16.49 247.55 16.49z"/><path d="M249.26 371.08c-9.37 0-15.87-2-19.3-6-5.89-6.83-3.89-20.24-2-33.21 1.29-8.65 2.61-17.5 1.77-25.09-3.92-35.1-32.18-41.56-33.38-41.81a4.83 4.83 0 00-1.06-.1H40.19v-4.66l157.48.29c3.55.85 32.61 8.94 36.73 45.78.91 8.19-.46 17.34-1.78 26.2-1.71 11.46-3.63 24.36.86 29.57 2.48 2.88 7.93 4.39 15.78 4.39s13.3-1.51 15.78-4.39c4.51-5.23 2.57-18.16.86-29.57-1.33-8.86-2.7-18-1.78-26.2 4.12-36.88 33.25-44.95 36.73-45.78v-.27h164.49v4.66H303.18a5 5 0 00-1.07.1c-1.19.25-29.45 6.71-33.37 41.81-.85 7.59.48 16.44 1.76 25 1.95 13 4 26.45-1.94 33.3-3.43 3.96-9.92 5.98-19.3 5.98zM72.45 348.88a6.73 6.73 0 01-1.47-.15 7.3 7.3 0 01-1.38-.41 8.35 8.35 0 01-1.31-.72 5 5 0 01-1.13-.93 7.5 7.5 0 01-2.16-5.28 10.31 10.31 0 01.15-1.47 9.37 9.37 0 01.44-1.42 10.45 10.45 0 01.68-1.28 9.35 9.35 0 01.94-1.16 5.88 5.88 0 011.13-.9 6.41 6.41 0 011.31-.71A6.11 6.11 0 0171 334a7.44 7.44 0 019 7.36 7.48 7.48 0 01-7.49 7.49M112.11 393.76a6 6 0 01-1.46-.15 5.79 5.79 0 01-1.42-.41 5.89 5.89 0 01-1.27-.68c-.42-.3-.79-.6-1.17-.93a13.26 13.26 0 01-.93-1.17 5.7 5.7 0 01-.68-1.27 6.19 6.19 0 01-.41-1.43 5.76 5.76 0 01-.15-1.45 7.55 7.55 0 012.17-5.29 7.69 7.69 0 016.79-2.07 10.74 10.74 0 011.39.45 8.48 8.48 0 011.3.68 5.71 5.71 0 011.13.94 7.59 7.59 0 012.21 5.29 9.62 9.62 0 01-.15 1.45 9.16 9.16 0 01-.44 1.43 7.27 7.27 0 01-.68 1.27 8.6 8.6 0 01-.94 1.17 7.55 7.55 0 01-5.29 2.17M144.58 348.88a6.58 6.58 0 01-1.46-.15 6.27 6.27 0 01-2.69-1.13 6.37 6.37 0 01-1.17-.93 6.9 6.9 0 01-.9-1.12 5.08 5.08 0 01-.71-1.32 5 5 0 01-.41-1.38 7.23 7.23 0 010-2.93 5.38 5.38 0 01.41-1.42 6 6 0 01.71-1.28 8.21 8.21 0 01.9-1.16 7.75 7.75 0 011.17-.9 7.51 7.51 0 011.27-.71 9.33 9.33 0 011.42-.42 7.56 7.56 0 016.75 2 6.29 6.29 0 01.94 1.16 8.47 8.47 0 01.71 1.28 6.26 6.26 0 01.41 1.42 7.23 7.23 0 010 2.93 5.79 5.79 0 01-.41 1.38 6.64 6.64 0 01-.71 1.32 5.48 5.48 0 01-.94 1.12 7.37 7.37 0 01-5.29 2.21M184.21 393.76a7.53 7.53 0 01-5.28-2.17 8 8 0 01-1.62-2.44 9.16 9.16 0 01-.44-1.43 8.48 8.48 0 01-.15-1.45 9 9 0 01.15-1.47 11.13 11.13 0 01.44-1.39 9.58 9.58 0 01.68-1.31 6.34 6.34 0 01.94-1.12 7.72 7.72 0 0110.6 0 8 8 0 01.94 1.12 7.77 7.77 0 01.68 1.31 13.18 13.18 0 01.45 1.39 9 9 0 01.11 1.47 7.43 7.43 0 01-7.5 7.49M328.49 393.76a7.5 7.5 0 01-5.32-12.76 6.13 6.13 0 011.15-.94 6.78 6.78 0 011.28-.68 12.47 12.47 0 011.39-.45 7.68 7.68 0 016.78 2.07 7.37 7.37 0 012.06 6.74 9.16 9.16 0 01-.44 1.43 6.14 6.14 0 01-.68 1.27 7.37 7.37 0 01-2.06 2.1 8.68 8.68 0 01-1.32.68 6 6 0 01-1.38.41 6.09 6.09 0 01-1.46.15M361 348.88a6.73 6.73 0 01-1.47-.15 7.7 7.7 0 01-1.42-.41 8.53 8.53 0 01-1.28-.72 6.25 6.25 0 01-1.15-.93 7 7 0 01-.91-1.12 5.08 5.08 0 01-.71-1.32 5.37 5.37 0 01-.41-1.38 7.23 7.23 0 010-2.93 5.79 5.79 0 01.41-1.42 6 6 0 01.71-1.28 6.19 6.19 0 01.91-1.12 5.93 5.93 0 011.15-.94 6.74 6.74 0 012.7-1.13 8 8 0 012.93 0 5.81 5.81 0 011.38.42 6.41 6.41 0 011.31.71 4.84 4.84 0 011.13.94 6.8 6.8 0 01.94 1.12 9.24 9.24 0 01.68 1.28 9.37 9.37 0 01.44 1.42 9 9 0 01.15 1.47 9.15 9.15 0 01-.15 1.46 8.55 8.55 0 01-.44 1.38 7.12 7.12 0 01-.68 1.32 7.75 7.75 0 01-.94 1.12 5 5 0 01-1.13.93 8.35 8.35 0 01-1.31.72 6.89 6.89 0 01-1.38.41 6.64 6.64 0 01-1.46.15M400.59 393.76a6.07 6.07 0 01-1.47-.15 5.82 5.82 0 01-1.39-.41 8.58 8.58 0 01-1.31-.68 9.53 9.53 0 01-1.12-.93 6.35 6.35 0 01-.94-1.17 7.51 7.51 0 01-.71-1.27 9.13 9.13 0 01-.42-1.43 6.48 6.48 0 01-.14-1.45 7.38 7.38 0 012.21-5.27 5.94 5.94 0 011.12-.94 8.58 8.58 0 011.31-.68 11.26 11.26 0 011.39-.45 8 8 0 012.93 0 10.69 10.69 0 011.42.45 7.46 7.46 0 011.28.68 6.34 6.34 0 011.13.94 7.37 7.37 0 012.2 5.29 6 6 0 01-.15 1.45 5.74 5.74 0 01-.41 1.43 5.88 5.88 0 01-.71 1.27 7.23 7.23 0 01-.93 1.17 10.56 10.56 0 01-1.13.93 7.46 7.46 0 01-1.28.68 5.79 5.79 0 01-1.42.41 6.09 6.09 0 01-1.46.15M433.05 348.88a7.38 7.38 0 01-5.28-2.21 7.5 7.5 0 01-2.21-5.28 9 9 0 01.15-1.47 11.54 11.54 0 01.44-1.42 9.24 9.24 0 01.68-1.28 9.35 9.35 0 01.94-1.16 7.6 7.6 0 016.75-2 6.43 6.43 0 011.42.42 9.75 9.75 0 012.43 1.61 10.36 10.36 0 01.94 1.16 7.5 7.5 0 01.68 1.28 6.49 6.49 0 01.41 1.42 6.07 6.07 0 01.15 1.47 7.47 7.47 0 01-2.18 5.28 5.21 5.21 0 01-1.16.93 8 8 0 01-1.27.72 7.7 7.7 0 01-1.42.41 6.43 6.43 0 01-1.47.15"/><path d="M312.28 306.45h149.6v4.71h-149.6z"/><path d="M461.64 311.14H312.52v-4.66h149.12zm-268.86 0H43.65v-4.66h149.13z"/></g></symbol><symbol id="svg6" viewBox="0 0 500 500" xmlns="http://www.w3.org/2000/svg"><defs><style>.ucls-1{fill:#fff}</style></defs><path class="ucls-1" d="M335 247.89a36.07 36.07 0 01-35.23-28.08 50.36 50.36 0 01-11.22-4.6 52.48 52.48 0 01-36.93 15.28 51.77 51.77 0 01-36.55-14.91 49.8 49.8 0 01-16.58 5.5 33.56 33.56 0 11-61.67-24A43.12 43.12 0 01164 128.7c1-.65 2-1.26 3.12-1.84a45.36 45.36 0 0142.17-28.18 45.84 45.84 0 0119 4.15 28.53 28.53 0 0147.94.07 38.94 38.94 0 0160.22 22.89 45.43 45.43 0 0132.95 75 36.17 36.17 0 01-34.4 47.1zm-46.89-38.5a2.56 2.56 0 011.35.38 44.87 44.87 0 0013.11 5.44 2.57 2.57 0 011.93 2 31 31 0 1059.61-16.14 2.59 2.59 0 01.53-2.63A40.29 40.29 0 00335 130.91a4.68 4.68 0 01-2-.42 2.09 2.09 0 01-1.16-1.71 33.8 33.8 0 00-54.73-20.07 2.64 2.64 0 01-2.17.53 2.58 2.58 0 01-1.77-1.36 23.39 23.39 0 00-41.58-.48 2.58 2.58 0 01-3.47 1.07 40.72 40.72 0 00-18.83-4.64 40.25 40.25 0 00-37.74 25.8 2.55 2.55 0 01-1.22 1.35c-1.36.71-2.69 1.48-4 2.32a2.72 2.72 0 01-1 .4A38 38 0 00142 195.3a2.58 2.58 0 01.14 3.08 28.42 28.42 0 0023.51 44.37 28.54 28.54 0 0028.13-24.35 2.57 2.57 0 012.27-2.19 44.75 44.75 0 0018.2-6.06 2.58 2.58 0 013.18.45 46.74 46.74 0 0034.23 14.74 47.27 47.27 0 0034.6-15.13 2.57 2.57 0 011.84-.82z"/><path class="ucls-1" d="M250.29 340.69l-30.93-.69a2.58 2.58 0 01-2.52-2.58c0-71.27-19.53-114.34-19.73-114.77a2.57 2.57 0 114.67-2.16c.2.43 19.75 43.42 20.2 114.41l28.31.63 28.21-.63c.45-71 20-114 20.19-114.41a2.57 2.57 0 114.67 2.16c-.2.43-19.73 43.5-19.73 114.77a2.57 2.57 0 01-2.52 2.58z"/><path class="ucls-1" d="M250.24 285c-5.77-.72-8-6.93-8.41-10.49l-5.91-46.69a2.57 2.57 0 012.23-2.87 2.55 2.55 0 012.88 2.23l5.9 46.69c.16 1.19 1.23 5.7 3.63 6h3.74c2.08-.29 3.15-4.8 3.31-6l6.13-48.43a2.57 2.57 0 115.1.64l-6.13 48.44c-.44 3.55-2.64 9.76-8.07 10.46zM87.29 388.8c8.07 0 12.82 5.51 12.82 12.11S95.36 413 87.29 413h-7.48v14.62h-7.58V388.8zm-7.48 6.76v10.7h7.1c3.43 0 5.61-2.19 5.61-5.35s-2.18-5.35-5.61-5.35zM122.47 427.64v-17.18c0-3.88-2.45-5.19-4.69-5.19s-4.74 1.31-4.74 5.19v17.18h-7.1V388.8H113v13a9.09 9.09 0 016.93-2.95 9.22 9.22 0 016.7 2.51c2.3 2.29 2.9 5 2.9 8.07v18.17zM147.79 432.22a10.36 10.36 0 01-2.13 3.66 8.24 8.24 0 01-6.11 2.18h-2.78v-6.38h1.63c2 0 2.84-.55 3.55-2.57l1.2-3.49-9.71-26.4h7.47l5.9 17.56 5.67-17.56H160zM172.28 400h5v5.4h-5v13.64c0 1.63.77 2.56 2.46 2.56h2.56v6h-3.87c-5.78 0-8.24-4.09-8.24-8.13v-14.03h-3V400h3v-8.4h7.09zM203.1 424.48a12.86 12.86 0 01-17.62 0c-2.56-2.73-3.21-6-3.21-11.08s.65-8.29 3.21-11a11.78 11.78 0 018.79-3.49 11.65 11.65 0 018.83 3.49c2.57 2.73 3.22 5.89 3.22 11s-.6 8.4-3.22 11.08zm-5.51-18a5 5 0 00-6.6 0c-1.47 1.42-1.63 4-1.63 6.87s.16 5.51 1.63 6.93a5 5 0 006.6 0c1.48-1.42 1.64-4 1.64-6.93s-.16-5.35-1.64-6.82zM233.82 401.4c2.29 2.35 2.89 5 2.89 8.07v18.17h-7.09v-17.18c0-3.88-2.4-5.19-4.69-5.19s-4.75 1.31-4.75 5.19v17.18h-7.09v-28.42H220v2.62a9.69 9.69 0 017.09-2.95 9 9 0 016.73 2.51zM267.64 427.64h-6.93V425a9.69 9.69 0 01-7.09 3 9.22 9.22 0 01-6.71-2.51c-2.29-2.29-2.89-5-2.89-8.08v-18.19h7.09v17.18c0 3.88 2.46 5.18 4.69 5.18s4.75-1.3 4.75-5.18v-17.18h7.09zM283.36 400h5v5.4h-5v13.64c0 1.63.76 2.56 2.45 2.56h2.56v6h-3.87c-5.78 0-8.24-4.09-8.24-8.13v-14.03h-3V400h3v-8.4h7.1zM315.6 401.56l-5.29 5.4a4.75 4.75 0 00-3.77-1.69c-2.18 0-4.64 1.64-4.64 5.24v17.13h-7.09v-28.42h6.93V402a9.62 9.62 0 017.15-3.06 8.36 8.36 0 016.71 2.62zM326.78 394.36h-7.25v-5.78h7.25zm0 33.28h-7.09V400h7.09zM358 412.64v3h-17.8c0 3.71 2.18 6.33 6.22 6.33a7.82 7.82 0 006.38-2.68l4.37 4.2c-2.89 2.95-5.68 4.48-10.81 4.48-6.76 0-13.14-3.06-13.14-14.57 0-9.27 5-14.51 12.38-14.51 7.91 0 12.4 5.67 12.4 13.75zm-17.18-4.91a7 7 0 00-.6 3H351a7 7 0 00-.6-3 5.34 5.34 0 00-9.55 0zM385.26 401.4c2.29 2.35 2.89 5 2.89 8.07v18.17h-7.09v-17.18c0-3.88-2.4-5.19-4.69-5.19s-4.75 1.31-4.75 5.19v17.18h-7.09v-28.42h6.93v2.62a9.71 9.71 0 017.09-2.95 9 9 0 016.71 2.51zM403.54 400h5v5.4h-5v13.64c0 1.63.76 2.56 2.45 2.56h2.57v6h-3.88c-5.78 0-8.23-4.09-8.23-8.13v-14.03h-3V400h3v-8.4h7.09zM435.51 402.22l-4.37 4.42c-1.63-1.47-4.09-1.91-6.6-1.91-2.84 0-4 1.31-4 2.73s.81 2.23 2.94 2.45l4.47.44c5.62.54 8.46 3.49 8.46 8.34 0 6.28-5.35 9.28-12.06 9.28-4.47 0-8.45-.49-12.11-4.09l4.64-4.64c2.29 2.34 5.4 2.67 7.58 2.67 2.46 0 5-.82 5-2.94 0-1.42-.71-2.4-3-2.62l-4.47-.44c-5.13-.49-8.29-2.73-8.29-8 0-5.95 5.18-9.06 11-9.06 4.42.04 8.08.86 10.81 3.37z"/><path class="ucls-1" d="M488.29 487.38h-468v-468h468zM31.23 476.47h446.14V30.33H31.23z"/></symbol><symbol viewBox="0 0 500 500" id="svg7" xmlns="http://www.w3.org/2000/svg"><g fill="#fff"><path d="M248.07 496c-135.1 0-245-109.91-245-245S113 6 248.07 6s245 109.9 245 245-109.91 245-245 245zm0-483.18C116.73 12.78 9.88 119.62 9.88 251s106.85 238.14 238.19 238.14S486.24 382.29 486.24 251 379.4 12.78 248.07 12.78z"/><path d="M400.55 253.53a432.84 432.84 0 00-56.68-9.4c-10.34-1-21.06-1.75-30.26-6.59-12.89-6.76-18.57-22.35-30.23-31.06-53.36-39.91-78 4.08-102.63 28.71-12.31 12.32-68.64 9.37-96 18.82-5.68 2-12.25 7.79-8.83 12.74 2.23 3.22 7 2.93 10.85 2.28l87.86-14.7c6.66-1.11 13.52-2.3 19.22-5.92 10.53-6.7 20.57-25.24 29.12-34.34 18.07-19.21 50.07-5.42 58.17 19.68 2.73 8.44 3.8 19.43 12.14 22.47 3.62 1.31 7.62.57 11.42 0a160.51 160.51 0 0190.86 11.92c4.23 1.9 8.64 4 13.27 3.69s9.34-4.34 8.57-8.91-6.17-6.72-10.74-7.86q-3.03-.8-6.11-1.53zM400.58 322.92a7.38 7.38 0 01-5.27-2.21 7.49 7.49 0 01-2.2-5.27 8.92 8.92 0 01.15-1.45 8.74 8.74 0 01.45-1.43 7.61 7.61 0 01.67-1.26 7.88 7.88 0 01.93-1.16 7.56 7.56 0 016.73-2 6.1 6.1 0 012.69 1.12 6.35 6.35 0 011.15.9 10.58 10.58 0 01.94 1.16 7.66 7.66 0 01.68 1.26 7 7 0 01.4 1.43 6 6 0 01.15 1.45 7.38 7.38 0 01-2.17 5.27 4.89 4.89 0 01-1.15.94 7.91 7.91 0 01-1.27.71 8.29 8.29 0 01-1.42.41 6.35 6.35 0 01-1.46.15M97.06 322.92a6.55 6.55 0 01-1.45-.15 7.61 7.61 0 01-1.38-.41 7.5 7.5 0 01-1.31-.71 5 5 0 01-1.13-.94 7.49 7.49 0 01-2.2-5.27 10.19 10.19 0 01.15-1.45 8.8 8.8 0 01.45-1.43 7.61 7.61 0 01.67-1.26 7.88 7.88 0 01.93-1.16 6.57 6.57 0 011.13-.9 6 6 0 011.31-.72 5.78 5.78 0 011.38-.4 7.42 7.42 0 018.93 7.32 7.48 7.48 0 01-7.48 7.48M136.29 367.3a6 6 0 01-1.46-.15 5.66 5.66 0 01-1.42-.41 6.14 6.14 0 01-1.27-.67 6.8 6.8 0 01-2.09-2.09 6.78 6.78 0 01-.68-1.28 6.1 6.1 0 01-.4-1.42 5.84 5.84 0 01-.15-1.46 7.5 7.5 0 012.16-5.27 7.64 7.64 0 016.76-2.06 8.09 8.09 0 011.39.46 7.27 7.27 0 011.3.67 6.36 6.36 0 011.13.93 7.58 7.58 0 012.2 5.27 9.75 9.75 0 01-.15 1.46 8.11 8.11 0 01-.45 1.42 6.75 6.75 0 01-.67 1.28 9.09 9.09 0 01-.93 1.16 7.54 7.54 0 01-5.27 2.16M168.39 322.92a6.43 6.43 0 01-1.45-.15 6.4 6.4 0 01-2.7-1.12 6.22 6.22 0 01-1.16-.94 6.88 6.88 0 01-.89-1.11 5.71 5.71 0 01-.71-1.31 7.81 7.81 0 01-.56-2.85 6 6 0 01.15-1.45 6.49 6.49 0 01.41-1.43 6.06 6.06 0 01.71-1.26 8.3 8.3 0 01.89-1.16 8.82 8.82 0 011.16-.9 6.07 6.07 0 012.7-1.12 7.52 7.52 0 016.72 2 6.37 6.37 0 01.94 1.16 8.66 8.66 0 01.71 1.26 7.09 7.09 0 01.41 1.43 6.48 6.48 0 01.14 1.45 7.53 7.53 0 01-.55 2.85 7.81 7.81 0 01-.71 1.31 5.48 5.48 0 01-.94 1.11 7.31 7.31 0 01-5.27 2.21M207.58 367.39a7.49 7.49 0 01-5.27-2.17 7.65 7.65 0 01-.94-1.17 7.83 7.83 0 01-.67-1.29 7.55 7.55 0 01-.44-1.42 8.82 8.82 0 01-.15-1.47 9.16 9.16 0 01.15-1.47 8.27 8.27 0 01.44-1.39 10.21 10.21 0 01.67-1.32 7.32 7.32 0 01.94-1.13 7.66 7.66 0 0110.57 0 9.55 9.55 0 01.94 1.13 9.14 9.14 0 01.68 1.32 10.63 10.63 0 01.44 1.39 9.09 9.09 0 01.11 1.47 7.64 7.64 0 01-2.17 5.35 7.51 7.51 0 01-5.3 2.17M297.19 367.3a7.49 7.49 0 01-5.31-12.75 6.57 6.57 0 011.16-.93 5.9 5.9 0 011.27-.67 8.94 8.94 0 011.38-.46 7.52 7.52 0 019 7.33 8.6 8.6 0 01-.15 1.46 8.11 8.11 0 01-.45 1.42 6.22 6.22 0 01-.67 1.28 9.09 9.09 0 01-.93 1.16 9.37 9.37 0 01-1.12.93 7.44 7.44 0 01-1.32.67 5.88 5.88 0 01-1.38.41 6 6 0 01-1.45.15M329.29 322.92a7.06 7.06 0 01-1.45-.14 9.45 9.45 0 01-1.43-.42 7.91 7.91 0 01-1.27-.71 5.86 5.86 0 01-1.15-.94 7 7 0 01-.91-1.11 6.12 6.12 0 01-.71-1.31 6.21 6.21 0 01-.4-1.38 6.12 6.12 0 01-.15-1.47A6 6 0 01322 314a6.47 6.47 0 01.4-1.43 6.55 6.55 0 01.71-1.26 6.72 6.72 0 01.91-1.13 6.61 6.61 0 011.15-.93 6.68 6.68 0 011.27-.72 6.88 6.88 0 011.43-.4 7.5 7.5 0 012.91 0 6.44 6.44 0 011.38.4 7 7 0 011.31.72 5.49 5.49 0 011.12.93 6.88 6.88 0 01.94 1.13 8.44 8.44 0 01.67 1.26 7.89 7.89 0 01.44 1.43 9 9 0 01.15 1.45 9.16 9.16 0 01-.15 1.47 8.91 8.91 0 01-1.11 2.69 7.17 7.17 0 01-.94 1.11 5 5 0 01-1.12.94 8.3 8.3 0 01-1.31.71 8.84 8.84 0 01-1.38.42 7.22 7.22 0 01-1.46.14M368.48 367.3a6 6 0 01-1.46-.15 5.69 5.69 0 01-1.39-.41 8.52 8.52 0 01-1.31-.67 10.19 10.19 0 01-1.11-.94 6.83 6.83 0 01-.94-1.16 8.77 8.77 0 01-.71-1.27 9.65 9.65 0 01-.41-1.42 6.51 6.51 0 01-.14-1.46 7.3 7.3 0 012.2-5.27 7.67 7.67 0 011.11-.94 8.52 8.52 0 011.31-.67 8.35 8.35 0 011.39-.45 8 8 0 012.92 0 9 9 0 011.42.45 7.23 7.23 0 011.26.67 6.88 6.88 0 011.13.94 7.38 7.38 0 012.2 5.27 6 6 0 01-.15 1.46 5.91 5.91 0 01-.41 1.42 6.08 6.08 0 01-.7 1.27 6.83 6.83 0 01-.94 1.16 8.8 8.8 0 01-1.13.94 7.23 7.23 0 01-1.26.67 8.25 8.25 0 01-2.88.56"/></g></symbol><symbol viewBox="0 0 500 500" id="svg8" xmlns="http://www.w3.org/2000/svg"><g fill="#fff"><path d="M250.59 12.79c-87.56 0-164 48-204.7 119A193.65 193.65 0 0026 120.45l-.84-.26c-.73 1.28-1.5 2.54-2.21 3.84.71 1 1.63 2 2.77 3.31 2.81 3.17 5.49 6.25 8.1 9.31l-.11.23c1.66 2 3.69 4.42 5.82 7a234.17 234.17 0 00-24.94 104.9c0 101.37 64.38 187.77 154.3 221.11l2.05 9.64c.21.07.4.2.63.26 1.79 8.15 3.34 14.6 4.2 17.59 6.15 1.85 12.4 3.45 18.72 4.85 4.89 0 9.49-.28 11.21-.72 3-.87 4.77-2.55 6.89-11.54h.52l1.16-8.33a235.1 235.1 0 0036.32 3.09c130.14 0 236-105.86 236-236s-105.86-235.94-236-235.94zm-221.27 236a219.69 219.69 0 0120.4-92.23c.34.45.63.89 1 1.34.94 1.23 1.62 2.21 2.44 3.33a432.83 432.83 0 0143.21 67.72c16.63 32.56 28.16 64.92 49.03 139.15 5.2 18.62 16.57 65.58 20.52 85-80.1-33.28-136.6-112.3-136.6-204.32zm221.27 221.26a220.46 220.46 0 01-34.3-2.94l1.77-12.72 1-2c.48-3.08.9-5.73 1.42-9.2 5.31-35.21 9.84-56.3 18.91-87.81 15.35-53.65 31.67-93 41.63-99.38 1.42-.89 8.51-2.63 15.89-3.87 28.73-4.74 51.8-17.45 68.17-37.65 10.92-13.48 13.78-23.42 16.55-56.55 1.43-17.56 2.32-22.54 5.64-33 2.09-6.87 3.51-13 3.3-13.82-.77-2-2.52-1.75-20.54 3-8.83 2.33-27.5 6.52-41.4 9.29-35.47 7-41.09 9-56.9 20.75-22.41 16.68-38.1 48.95-38 78.18.11 11.18 1.77 19.14 3.64 17a49.13 49.13 0 003.32-7.08c6.74-16.21 26.28-41 43-54.33 8.5-6.83 25.62-13.58 25.62-10 0 1.2-5.85 8.49-12.81 15.77-6.52 7-8.73 9.84-21 27.6-12.67 18.68-29.26 52.06-40.42 81.76C224.25 321.8 216.3 344.79 211 362c-9 29.48-17 52.81-18.44 53.25-1.79.65-6.63-15.14-16.79-54.35-15.77-61.4-22.54-82.48-38.66-120.9-11.05-26.18-25.62-47.17-55.21-79.3-6.23-6.83-13.82-12.7-21.16-18.63-.91-.68-1.78-1.28-2.68-1.93C96.1 73 168.08 27.51 250.59 27.51c122 0 221.28 99.26 221.28 221.27s-99.26 221.27-221.28 221.27z"/><path d="M277.46 423.74c0 1.39.05 3.06.19 5 .06.6.14 1.56.25 2.84a33 33 0 00.43 3.49c-.19-1.11-.4-2-.57-2.77s-.52-2-1-3.7-1-3.26-1.47-4.58l-8.8-23.57-7.39 1.31 16.81 43.64 8.31-1.48.48-46.73-7.15 1.28zM312.66 428.51l-4.7-11.91 9.54-3.76-2.65-6.72-9.54 3.76-4.23-10.71 12.45-4.91-2.61-6.64-19.58 7.71 16.84 42.72 20.35-8.01-2.65-6.74zM341.37 398.09l3.33 5.2 4.33-2.78 2.4 3.74a8.64 8.64 0 011.65 5 3.92 3.92 0 01-1.84 3.39c-1.84 1.19-3.91.89-6.24-.9s-5.11-5.21-8.35-10.28q-4.71-7.32-5.78-11.62c-.71-2.87-.22-4.84 1.45-5.92a4 4 0 014.34-.12 10.15 10.15 0 012.41 1.87 18.76 18.76 0 012.36 3l6-3.86-.07-.1-.06-.11-.06-.09c-2.55-4-5.49-6.5-8.88-7.63a11.5 11.5 0 00-14.93 11.88c.27 4.63 2.53 10.23 6.74 16.81s8.45 11 12.55 13.2 8 2.06 11.74-.31a10.21 10.21 0 003.26-3.17 8.19 8.19 0 001.24-3.91l2.25 1.55 3-1.93-12.52-19.53zM378.73 388.46l-8.84-9.26 7.42-7.07-5-5.24-7.4 7.07-7.96-8.33 9.68-9.23-4.91-5.17-15.24 14.52 31.69 33.23 15.82-15.09-4.98-5.24zM385.17 333.11l-5.67-4.04-13.29 18.68 5.68 4.03 4.39-6.18 31.76 22.58 4.47-6.29-31.76-22.58zM384.93 319.39l38.4 26.54 3.05-6.75-8.44-5.46 3.53-7.81 9.59 2.92 3.11-6.9-45.24-11.39zm29.56 4.61l-2.57 5.64-18.22-11.48zM420.54 278.64a15.69 15.69 0 00-6.68-3.17 17.11 17.11 0 00-6.61-.29 10.65 10.65 0 00-5.14 2.14 10.78 10.78 0 00-2.73 3.42 28.55 28.55 0 00-2.05 6.38L395 297l44.74 10.33 1.73-7.53-18.47-4.22.24-1.05.36-1.58.25-1.55 19.83-1 1.74-7.6-21.21 1.57a12 12 0 00-3.67-5.73zm-3.17 13.82l-.24 1.06-.24.64-14-3.24.06-.21.37-2c.58-2.51 1.53-4.21 2.88-5.11s3.24-1.07 5.62-.52c2.64.61 4.4 1.64 5.25 3.08s.93 3.52.3 6.3zM401.765 264.184l.192-7.668 45.906 1.154-.193 7.668zM402.17 239.53l46.6 2.5-.93-7.36-10-.23-1.08-8.5 9.69-2.53-.95-7.51-44.51 14zM429.78 228l.76 6.15-21.54-.28zM415.79 190.09c1-.32 2.21-.83 3.76-1.53l4.71-2.4.08.22-4.06 2.45a35.56 35.56 0 00-3.1 2.17l-20.36 16.32 2.24 6.66 43.5-14.72-2.15-6.36-22.9 7.75a43.787 43.787 0 00-4.95 1.95c-1.65.78-3.17 1.54-4.55 2.35l-.07-.22c1.2-.67 2.4-1.35 3.56-2.1.71-.48 1.28-.88 1.73-1.21.67-.48 1.24-.91 1.71-1.28l22-17.52-2.06-6.07-43.5 14.72 2.16 6.37z"/></g></symbol><symbol viewBox="0 0 500 500" id="svg9" xmlns="http://www.w3.org/2000/svg"><g fill="#fff"><path d="M277.338 341.829l6.768-2.943 14.854 34.16-6.768 2.943z"/><path d="M281.67 342.46s-54.88 23.86-81.17-36.61c0 0 54.87-23.86 81.17 36.61"/><path d="M281.66 342.46s54.88-23.86 28.58-84.32c0 0-54.87 23.86-28.58 84.32M258.94 290.2s-54.87 23.86-81.16-36.61c0 0 54.87-23.86 81.16 36.61"/><path d="M258.94 290.2s54.87-23.86 28.58-84.32c0 0-54.87 23.86-28.58 84.32M236.22 237.94s-54.87 23.87-81.17-36.61c0 0 54.88-23.86 81.17 36.61"/><path d="M236.22 237.94s54.87-23.86 28.58-84.32c0 0-54.88 23.85-28.58 84.32M213.5 185.68s-54.88 23.87-81.17-36.61c0 0 54.87-23.86 81.17 36.61"/><path d="M213.5 185.68s54.87-23.86 28.58-84.32c0 0-54.88 23.86-28.58 84.32M196.41 145.94s24.39-54.64-35.84-81.52c0 0-24.37 54.64 35.84 81.52M65.568 395.04l355.288-291.11 9.19 11.215-355.288 291.11z"/><path d="M248.64 488.78c-130.13 0-236-105.87-236-236s105.87-236 236-236 236 105.87 236 236-105.87 236-236 236zm0-457.5c-122.14 0-221.5 99.37-221.5 221.51s99.36 221.49 221.5 221.49 221.5-99.36 221.5-221.49-99.36-221.51-221.5-221.51z"/><path d="M276.35 447.47l-1.35-2.38a8.26 8.26 0 01-2.8 3 10.38 10.38 0 01-4.31 1.46q-6.54.82-10.72-4.76c-2.81-3.73-4.69-9.5-5.68-17.31s-.62-13.77 1.12-18.08a11.51 11.51 0 0118.59-4.31q3.85 3.69 4.74 10.69V416.12l-7.1.9a19 19 0 00-.82-3.72 10.25 10.25 0 00-1.39-2.73 4 4 0 00-4-1.76q-3 .38-3.85 4.72t.22 13c.75 6 1.81 10.27 3.14 12.87s3.08 3.79 5.26 3.51a3.93 3.93 0 003.1-2.28 8.67 8.67 0 00.63-5.2l-.56-4.41-5.1.65-.78-6.1L277 424l2.92 23zM297.89 444.84l-14.71-43.49 7.26-2.46 12.4 36.65 13.45-4.54 2.31 6.85zM346.36 407.35q3.94 6.88 3.28 11.51c-.44 3.08-2.49 5.66-6.12 7.75s-6.84 2.51-9.74 1.34-5.64-4-8.27-8.61l-15.75-27.4 6.8-3.91L333 416.62c1.23 2.16 2.37 3.52 3.42 4.11a3.38 3.38 0 003.49-.27 3.61 3.61 0 002.07-3 6.29 6.29 0 00-.44-2.24 19.82 19.82 0 00-1.52-3.15l-16.22-28.2 6.8-3.91zM372.56 406.1L347 376.66l-5.73 4.95-4.55-5.26 17.33-15 4.55 5.26-5.76 5L378.4 401zM395.73 384.42l-36.11-28.37 13-16.54 5.6 4.41-8.22 10.51 9.06 7.11 6.32-8.05L391 358l-6.29 8 10.07 7.91 8.77-11.17 5.7 4.47zM419.85 353.32L378 334.4l2.9-6.4 26 1.95c.93.07 2.2.24 3.76.52l4.64 1 .11-.22-5.1-1.46c-1.59-.54-2.86-1-3.78-1.45l-21.42-9.68 2.77-6.12 41.85 18.92-2.65 5.84-28-2.2c-.6-.05-1.31-.12-2.13-.22-.54-.07-1.24-.17-2.08-.31a48.69 48.69 0 01-4-.9l-.09.22q2.32.54 4.92 1.38c.82.29 1.61.57 2.37.87s1.63.67 2.56 1.09l22 10zM442.08 289.78L396.53 284l2.65-20.88 7.09.9-1.69 13.27 11.42 1.44 1.29-10.16 7.18.91-1.29 10.16 19.89 2.53zM444.63 227.53l.62 7.78-18.65 6.9.24 1.55.12 1.6.08 1.07L446 245l.58 7.7-45.79 3.49L400 246a28.38 28.38 0 01.07-6.7 10.43 10.43 0 011.57-4.08 10.61 10.61 0 014.28-3.58 17.28 17.28 0 016.4-1.69 15.53 15.53 0 017.31 1 11.94 11.94 0 015.24 4.32zm-23.88 19.39v-.68l-.08-1.06c-.22-2.87-.94-4.85-2.2-6s-3.22-1.57-5.92-1.36q-3.68.27-5.21 2.16c-1 1.26-1.43 3.17-1.25 5.74l.26 2v.28zM441.55 209.13l-44.18 12.55-5.74-20.25 6.87-1.94 3.65 12.86 11.07-3.15-2.81-9.85 7-2 2.8 9.86 12.32-3.49-3.89-13.67 7-2zM429.44 172.88l-40.87 20.94-9.57-18.73 6.36-3.26 6.09 11.91 10.25-5.25-4.7-9.11 6.44-3.3 4.67 9.12 11.39-5.84-6.5-12.65 6.44-3.29z"/></g></symbol></svg>