<svg viewBox="0 0 500 500" xmlns="http://www.w3.org/2000/svg"><g fill="#6e4e60"><path d="m248.64 496c-135.09 0-245-109.91-245-245s109.91-245 245-245 245 109.9 245 245-109.91 245-245 245zm0-483.18c-131.33-.04-238.18 106.8-238.18 238.18s106.85 238.14 238.18 238.14 238.18-106.85 238.18-238.14-106.82-238.22-238.18-238.22z"/><path d="m247.56 337c-8.67 0-14.66-1.85-17.81-5.52-5.42-6.28-3.57-18.71-1.77-30.73 1.2-8 2.43-16.27 1.64-23.37-3.67-32.85-30.05-38.8-31.17-39a5.26 5.26 0 0 0 -1-.1h-144.29v-4h146.25v.22c2.47.57 30.26 7.64 34.15 42.45.85 7.62-.42 16.11-1.65 24.31-1.68 11.22-3.4 22.74.84 27.65 2.33 2.71 7.45 4.14 14.81 4.14s12.47-1.43 14.8-4.14c4.25-4.94 2.44-17 .84-27.65-1.23-8.21-2.5-16.72-1.65-24.31 3.89-34.8 31.63-41.87 34.16-42.45v-.21h152.76v4h-150.78a5 5 0 0 0 -1 .1c-1.13.24-27.52 6.16-31.19 39-.8 7.08.44 15.32 1.63 23.28 1.81 12.05 3.68 24.51-1.75 30.83-3.17 3.62-9.16 5.5-17.82 5.5zm3.25-118.88a38.7 38.7 0 0 1 -38.66-38.65c0-18.13 28.33-62 37-75l1.64-2.47 1.65 2.47c6.18 9.25 37 56.35 37 75a38.71 38.71 0 0 1 -38.63 38.62zm0-108.95c-16.37 24.84-34.7 57.2-34.7 70.3a34.7 34.7 0 0 0 69.4 0c0-13.14-18.32-45.47-34.7-70.33z"/><path d="m83.15 316.52a6.35 6.35 0 0 1 -1.36-.14 7.59 7.59 0 0 1 -1.28-.38 8 8 0 0 1 -1.22-.67 4.59 4.59 0 0 1 -1.05-.87 6.92 6.92 0 0 1 -2.06-4.91 8.83 8.83 0 0 1 .14-1.36 7.12 7.12 0 0 1 1.05-2.51 8.76 8.76 0 0 1 .87-1.08 5.73 5.73 0 0 1 1.05-.83 5.56 5.56 0 0 1 1.22-.66 5.13 5.13 0 0 1 1.28-.39 6.91 6.91 0 0 1 8.33 6.83 7 7 0 0 1 -7 7"/><path d="m120 358.25a5.8 5.8 0 0 1 -1.37-.14 6.46 6.46 0 0 1 -2.5-1 13.24 13.24 0 0 1 -1.08-.87 11.41 11.41 0 0 1 -.87-1.08 5.78 5.78 0 0 1 -.63-1.18 5.91 5.91 0 0 1 -.38-1.34 5.43 5.43 0 0 1 -.14-1.35 7 7 0 0 1 2-4.91 7.1 7.1 0 0 1 6.31-1.93 9.26 9.26 0 0 1 1.29.42 6.69 6.69 0 0 1 1.21.64 5.52 5.52 0 0 1 1 .87 7.06 7.06 0 0 1 2.06 4.91 7.34 7.34 0 0 1 -.15 1.35 8 8 0 0 1 -.41 1.34 7 7 0 0 1 -.63 1.18 8.07 8.07 0 0 1 -.87 1.08 7 7 0 0 1 -4.91 2"/><path d="m150.23 316.52a6.44 6.44 0 0 1 -1.37-.14 8.34 8.34 0 0 1 -1.32-.38 7.63 7.63 0 0 1 -1.18-.67 5.5 5.5 0 0 1 -1.08-.87 5.63 5.63 0 0 1 -.84-1 4.78 4.78 0 0 1 -.66-1.22 5.11 5.11 0 0 1 -.38-1.28 5.8 5.8 0 0 1 -.14-1.37 5.66 5.66 0 0 1 .14-1.36 5.41 5.41 0 0 1 .38-1.32 5.59 5.59 0 0 1 .66-1.19 7.66 7.66 0 0 1 .84-1.08 7.21 7.21 0 0 1 1.08-.83 6.84 6.84 0 0 1 1.18-.66 8.36 8.36 0 0 1 1.32-.39 7 7 0 0 1 6.28 1.88 6.15 6.15 0 0 1 .87 1.08 8.16 8.16 0 0 1 .66 1.19 5 5 0 0 1 .39 1.32 5.66 5.66 0 0 1 .14 1.36 5.8 5.8 0 0 1 -.14 1.37 4.74 4.74 0 0 1 -.39 1.28 6.45 6.45 0 0 1 -.66 1.22 4.76 4.76 0 0 1 -.87 1 6.84 6.84 0 0 1 -4.91 2.06"/><path d="m187.08 358.25a7 7 0 0 1 -4.92-2 6.14 6.14 0 0 1 -.87-1.08 7 7 0 0 1 -.63-1.18 8 8 0 0 1 -.41-1.34 8.34 8.34 0 0 1 -.14-1.35 8.83 8.83 0 0 1 .14-1.36 9.17 9.17 0 0 1 .41-1.29 9.38 9.38 0 0 1 .63-1.22 6.23 6.23 0 0 1 .87-1 7.17 7.17 0 0 1 9.86 0 8.12 8.12 0 0 1 .87 1 7.42 7.42 0 0 1 .63 1.22 10.76 10.76 0 0 1 .42 1.29 7.72 7.72 0 0 1 .11 1.36 6.91 6.91 0 0 1 -7 7"/><path d="m321.22 358.25a7 7 0 0 1 -4.94-11.88 6 6 0 0 1 1.07-.87 5.43 5.43 0 0 1 1.19-.64 10.76 10.76 0 0 1 1.29-.42 7 7 0 0 1 8.36 6.84 7.35 7.35 0 0 1 -.14 1.35 8 8 0 0 1 -.41 1.34 6.31 6.31 0 0 1 -.63 1.18 8.94 8.94 0 0 1 -.87 1.08 9 9 0 0 1 -1 .87 8.39 8.39 0 0 1 -1.23.63 6.3 6.3 0 0 1 -1.29.38 5.77 5.77 0 0 1 -1.36.14"/><path d="m351.41 316.52a6.35 6.35 0 0 1 -1.36-.14 8.34 8.34 0 0 1 -1.32-.38 8.22 8.22 0 0 1 -1.19-.67 5.75 5.75 0 0 1 -1.07-.87 5.63 5.63 0 0 1 -.84-1 4.52 4.52 0 0 1 -.67-1.22 4.72 4.72 0 0 1 -.38-1.28 5.8 5.8 0 0 1 -.14-1.37 5.66 5.66 0 0 1 .14-1.36 5 5 0 0 1 .38-1.32 5.23 5.23 0 0 1 .67-1.19 5.63 5.63 0 0 1 .84-1 5.75 5.75 0 0 1 1.07-.87 6.26 6.26 0 0 1 2.51-1 7.32 7.32 0 0 1 2.72 0 5.2 5.2 0 0 1 1.29.39 5.56 5.56 0 0 1 1.22.66 4.59 4.59 0 0 1 1.05.87 6.76 6.76 0 0 1 .87 1 9 9 0 0 1 .63 1.19 8.1 8.1 0 0 1 .41 1.32 8.83 8.83 0 0 1 .14 1.36 9.09 9.09 0 0 1 -.14 1.37 7.65 7.65 0 0 1 -.41 1.28 7 7 0 0 1 -.63 1.22 6.76 6.76 0 0 1 -.87 1 4.59 4.59 0 0 1 -1.05.87 8 8 0 0 1 -1.22.67 7.7 7.7 0 0 1 -1.29.38 6.35 6.35 0 0 1 -1.36.14"/><path d="m388.26 358.25a5.66 5.66 0 0 1 -1.36-.14 5.79 5.79 0 0 1 -1.29-.38 8.29 8.29 0 0 1 -1.22-.63 9 9 0 0 1 -1-.87 5.81 5.81 0 0 1 -.87-1.08 6.89 6.89 0 0 1 -.67-1.18 8 8 0 0 1 -.39-1.34 6.18 6.18 0 0 1 -.13-1.35 6.82 6.82 0 0 1 2.06-4.91 5.79 5.79 0 0 1 1-.87 6.77 6.77 0 0 1 1.22-.64 9.26 9.26 0 0 1 1.29-.42 7.37 7.37 0 0 1 2.73 0 9.66 9.66 0 0 1 1.32.42 6.14 6.14 0 0 1 1.18.64 5.85 5.85 0 0 1 1.05.87 6.85 6.85 0 0 1 2.05 4.91 5.63 5.63 0 0 1 -.14 1.35 5.91 5.91 0 0 1 -.38 1.34 5.72 5.72 0 0 1 -.66 1.18 6.24 6.24 0 0 1 -.87 1.08 9.16 9.16 0 0 1 -1.05.87 7.42 7.42 0 0 1 -1.18.63 6 6 0 0 1 -1.32.38 5.9 5.9 0 0 1 -1.37.14"/><path d="m418.45 316.52a7 7 0 0 1 -7-7 8.83 8.83 0 0 1 .14-1.36 9.54 9.54 0 0 1 .41-1.32 9 9 0 0 1 .63-1.19 9.79 9.79 0 0 1 .87-1.08 7.06 7.06 0 0 1 6.28-1.88 6.26 6.26 0 0 1 2.51 1 6 6 0 0 1 1.08.83 11.11 11.11 0 0 1 .87 1.08 7.15 7.15 0 0 1 .63 1.19 5.47 5.47 0 0 1 .38 1.32 5.66 5.66 0 0 1 .14 1.36 6.93 6.93 0 0 1 -2 4.91 4.74 4.74 0 0 1 -1.08.87 8.22 8.22 0 0 1 -1.19.67 8.34 8.34 0 0 1 -1.32.38 6.09 6.09 0 0 1 -1.36.14"/><path d="m306.16 278.98h139.1v.55h-139.1z"/><path d="m445 281.24h-138.63v-4h138.63zm-250 0h-138.62v-4h138.62z"/></g></svg>