<svg viewBox="0 0 500 500" xmlns="http://www.w3.org/2000/svg"><g fill="#6e4e60"><path d="m250.59 496c-135.09 0-244.99-109.95-244.99-245s109.9-245 244.99-245 245 109.91 245 245-109.9 245-245 245zm0-484.24c-131.91-.04-239.23 107.24-239.23 239.24s107.32 239.19 239.23 239.19 239.24-107.31 239.24-239.19-107.32-239.28-239.24-239.28z"/><path d="m407 390.24h-4.89v-50.41h-40.49l42.89-42.89 42.9 42.89h-40.41zm-33.52-55.3h62.15l-31.08-31.08zm-117.92 55.3h-4.89v-50.41h-40.49l42.9-42.89 42.92 42.89h-40.48zm-33.56-55.3h62.15l-31.07-31.08zm-117.92 55.3h-4.89v-50.41h-40.44l42.89-42.89 42.89 42.89h-40.45zm-33.52-55.3h62.16l-31.08-31.08zm378.94-76.08h-392.85v-4.86h392.85zm.75-29.12a18.21 18.21 0 0 1 -18.2-18.19 13.3 13.3 0 1 0 -26.59 0 18.19 18.19 0 0 1 -36.38 0 13.3 13.3 0 1 0 -26.59 0h-4.89a18.19 18.19 0 1 1 36.37 0 13.3 13.3 0 0 0 26.6 0 18.19 18.19 0 0 1 36.38 0 13.32 13.32 0 0 0 13.3 13.3zm-126 0a18.2 18.2 0 0 1 -18.18-18.19h4.93a13.3 13.3 0 1 0 26.6 0h4.89a18.21 18.21 0 0 1 -18.2 18.19zm-63 0a18.22 18.22 0 0 1 -18.2-18.19 13.3 13.3 0 1 0 -26.59 0 18.19 18.19 0 1 1 -36.38 0h4.9a13.3 13.3 0 1 0 26.59 0 18.19 18.19 0 1 1 36.38 0 13.3 13.3 0 0 0 26.6 0h4.9a18.21 18.21 0 0 1 -18.13 18.19zm-125.95 0a18.21 18.21 0 0 1 -18.19-18.19 13.3 13.3 0 1 0 -26.6 0 18.19 18.19 0 1 1 -36.37 0h4.96a13.3 13.3 0 1 0 26.59 0 18.19 18.19 0 1 1 36.38 0 13.3 13.3 0 1 0 26.59 0 18.2 18.2 0 0 1 36.39 0h-4.9a13.3 13.3 0 1 0 -26.59 0 18.21 18.21 0 0 1 -18.19 18.19zm175.7-18.19h-4.89a13.3 13.3 0 1 0 -26.59 0h-4.9a18.19 18.19 0 0 1 36.38 0zm138.5-46.66h-392.85v-4.89h392.85z"/></g></svg>