<svg viewBox="0 0 500 500" xmlns="http://www.w3.org/2000/svg"><g fill="#6e4e60"><path d="m247.33 496c-135.09 0-245-109.91-245-245s109.91-245 245-245 245 109.9 245 245-109.9 245-245 245zm0-483.18c-131.33-.04-238.18 106.8-238.18 238.18s106.85 238.14 238.18 238.14 238.18-106.85 238.18-238.14-106.84-238.22-238.18-238.22z"/><path d="m249.08 414.24a12.32 12.32 0 0 1 -7-2.2l-11-7.64c-9.23-6.41-56.14-39-72.9-52-20-15.57-32-42.76-32-72.73v-124.3a13.5 13.5 0 0 1 4-9.62 12.05 12.05 0 0 1 9.59-3.54l21.38 1.56c20.11 1.15 51.48-20.37 66-33.88l13.23-13.11a12.59 12.59 0 0 1 17.43 0l13.52 13.39c15.48 14.39 46.77 34.69 65.74 33.6l21.39-1.57h.89a12.37 12.37 0 0 1 8.68 3.58 13.54 13.54 0 0 1 4 9.62v124.23c0 30-12 57.17-32 72.73-15.46 12-56.06 40.34-72.81 52l-11.13 7.64a12.38 12.38 0 0 1 -7.01 2.24zm-110.25-267.78a8.07 8.07 0 0 0 -5.66 2.36 9.19 9.19 0 0 0 -2.71 6.55v124.26c0 28.66 11.34 54.58 30.33 69.34 16.67 12.95 63.49 45.5 72.71 51.89l11 7.64a8.08 8.08 0 0 0 9.12 0l11.12-7.71c16.72-11.6 57.24-39.87 72.62-51.82 19-14.76 30.32-40.68 30.32-69.34v-124.26a9.18 9.18 0 0 0 -2.7-6.55 8.09 8.09 0 0 0 -5.67-2.36h-.53l-21.46 1.57c-.7 0-1.39.07-2.09.07-21.43 0-52.42-21.38-66.92-34.86l-13.54-13.41a8.22 8.22 0 0 0 -11.38 0l-13.29 13.17c-14.62 13.62-45.75 35.14-67.21 35.14-.69 0-1.36 0-2-.07z"/><path d="m187.38 223.56a.79.79 0 0 0 -.82.74v18.61a.82.82 0 0 0 .79.82h8c5.9 0 9.29-3.68 9.29-10.08 0-8.35-4.93-10.09-9.06-10.09zm7.93 1.34c5.12 0 7.82 3 7.82 8.75 0 5.54-2.74 8.73-7.51 8.73h-7.55v-17.48z"/><path d="m309.32 223.56a.8.8 0 0 0 -.82.74v18.61a.82.82 0 0 0 .79.82h8c5.9 0 9.42-3.68 9.42-10.08 0-8.35-5.07-10.09-9.2-10.09zm7.93 1.34c5.11 0 7.81 3 7.81 8.75 0 5.54-2.73 8.73-7.5 8.73h-7.56v-17.48z"/><path d="m293.78 232.61a.7.7 0 0 0 0 1.39h5.91a.7.7 0 0 0 0-1.39z"/><path d="m291.07 223.55a.8.8 0 0 0 -.79.79v18.56a.79.79 0 0 0 .77.84h14.05a.68.68 0 0 0 .66-.68.7.7 0 0 0 -.69-.68h-13.28v-17.49h13.12a.67.67 0 0 0 .69-.66.7.7 0 0 0 -.7-.68z"/><path d="m262.25 223.54a.74.74 0 0 0 -.73.74v17.29l-14.58-17.77a.72.72 0 0 0 -.52-.25h-.76a.69.69 0 0 0 -.71.67v18.78a.76.76 0 0 0 .74.76h.05a.74.74 0 0 0 .73-.75v-17.3l14 17.08.57.69a.77.77 0 0 0 .51.25h.77a.7.7 0 0 0 .7-.68v-18.74a.73.73 0 0 0 -.71-.77z"/><path d="m183.32 248.92a.73.73 0 0 0 -.73.73v17.35l-14.59-17.83a.71.71 0 0 0 -.52-.24h-.76a.69.69 0 0 0 -.71.66v18.76a.75.75 0 0 0 .74.75h.05a.74.74 0 0 0 .73-.74v-17.28l14 17.09.57.69a.81.81 0 0 0 .51.24h.77a.7.7 0 0 0 .7-.68v-18.74a.72.72 0 0 0 -.71-.76z"/><path d="m324.9 248.92a.73.73 0 0 0 -.73.73v17.35l-14.58-17.78a.69.69 0 0 0 -.52-.24h-.76a.7.7 0 0 0 -.71.66v18.76a.75.75 0 0 0 .74.75h.05a.74.74 0 0 0 .73-.74v-17.33l14 17.09.56.69a.83.83 0 0 0 .51.24h.81a.7.7 0 0 0 .7-.68v-18.74a.72.72 0 0 0 -.71-.76z"/><path d="m267.62 233.64a8.91 8.91 0 0 0 9.22 9.19c4 0 7.05-2.07 8-5a.69.69 0 0 1 .72-.56h.35a.45.45 0 0 1 .44.62c-.86 3.67-4.59 6.31-9.5 6.31a10.53 10.53 0 1 1 0-21.06c4.91 0 8.64 2.65 9.5 6.32a.45.45 0 0 1 -.44.62h-.35a.69.69 0 0 1 -.72-.56c-.94-3-4-5-8-5a8.91 8.91 0 0 0 -9.22 9.2"/><path d="m292.85 269.55a10.54 10.54 0 1 0 -10.73-10.55 10.25 10.25 0 0 0 10.73 10.54m-9.2-10.54a9.21 9.21 0 1 1 9.2 9.24 8.93 8.93 0 0 1 -9.2-9.24"/><path d="m198.44 269.48c5.92 0 9.4-3.69 9.4-9.68v-10.15a.73.73 0 0 0 -.72-.73h-.07a.73.73 0 0 0 -.72.76v10.11c0 4.85-2.78 8.35-7.89 8.35s-7.9-3.5-7.9-8.35v-10.11a.73.73 0 0 0 -.72-.76h-.07a.73.73 0 0 0 -.72.73v10.15c0 6 3.48 9.68 9.41 9.68"/><path d="m252.9 249.65a.74.74 0 0 0 -.73-.73h-.06a.73.73 0 0 0 -.72.76v18.68a.73.73 0 0 0 .72.76h.06a.74.74 0 0 0 .73-.73z"/><path d="m278 249.65a.74.74 0 0 0 -.73-.73h-.06a.73.73 0 0 0 -.72.76v18.68a.73.73 0 0 0 .72.76h.06a.74.74 0 0 0 .73-.73z"/><path d="m227.11 248.92h-15.42a.65.65 0 0 0 -.65.64v.06a.66.66 0 0 0 .69.64h6.92v18.1a.72.72 0 0 0 .71.76h.07a.73.73 0 0 0 .72-.73v-18.13h6.94a.66.66 0 0 0 .68-.64v-.06a.65.65 0 0 0 -.66-.64"/><path d="m272.4 248.92h-15.4a.65.65 0 0 0 -.66.64v.06a.66.66 0 0 0 .69.64h6.93v18.1a.72.72 0 0 0 .71.76h.07a.73.73 0 0 0 .72-.73v-18.13h6.94a.66.66 0 0 0 .67-.64v-.06a.65.65 0 0 0 -.65-.64"/><path d="m246 268.21a1.29 1.29 0 0 0 -.14-.36l-5-8c3.07-.1 4.92-2.07 4.92-5.48 0-4.54-2.8-5.47-5.05-5.47h-8.93a.81.81 0 0 0 -.81.8v18.65a.72.72 0 0 0 .71.76h.07a.73.73 0 0 0 .72-.73v-18.12h8.1c2.42 0 3.69 1.43 3.69 4.13s-1.3 4.12-3.55 4.12h-5.94a.7.7 0 0 0 0 1.39h4.29l5.49 8.81a.82.82 0 0 0 .78.41.75.75 0 0 0 .66-.89"/><path d="m235 282.6h-3.27a.52.52 0 0 0 -.51.51.51.51 0 0 0 .51.51h3.27a.51.51 0 0 0 .51-.51.51.51 0 0 0 -.51-.51"/><path d="m234 275.77a.55.55 0 0 0 -.5-.32h-.36a.57.57 0 0 0 -.5.32c-.07.17-.63 1.38-4.92 10.72a.58.58 0 0 0 0 .57.55.55 0 0 0 .47.27.55.55 0 0 0 .5-.33c0-.08 3.93-8.61 4.61-10.11.69 1.5 4.57 10 4.61 10.12a.56.56 0 0 0 .5.32.55.55 0 0 0 .47-.27.55.55 0 0 0 0-.57c-4.3-9.34-4.84-10.55-4.93-10.72"/><path d="m271 280.67a.53.53 0 0 0 -.52.51.51.51 0 0 0 .52.51h3.17a.51.51 0 0 0 .51-.51.52.52 0 0 0 -.51-.51z"/><path d="m277.07 286.31h-7.47v-9.87h7.4a.5.5 0 0 0 .5-.5.52.52 0 0 0 -.51-.5h-7.9a.57.57 0 0 0 -.56.57v10.71a.61.61 0 0 0 .16.44.56.56 0 0 0 .39.15h8a.5.5 0 0 0 .5-.5.52.52 0 0 0 -.51-.5"/><path d="m199.75 281.38a5.21 5.21 0 1 1 -5.2-5.22 5.05 5.05 0 0 1 5.2 5.22m-5.2-6.19a6.18 6.18 0 0 0 -4.71 1.92 6.51 6.51 0 0 0 0 8.55 6.72 6.72 0 0 0 9.41 0 6.51 6.51 0 0 0 0-8.55 6.16 6.16 0 0 0 -4.7-1.92"/><path d="m183.45 282c1.73-.13 2.76-1.34 2.76-3.26 0-2.84-1.9-3.27-3-3.27h-5.21a.58.58 0 0 0 -.57.57v10.75a.54.54 0 0 0 .54.55.53.53 0 0 0 .53-.53v-10.37h4.56c1.35 0 2 .77 2 2.28s-.68 2.27-1.93 2.27h-3.43a.51.51 0 0 0 -.51.51.52.52 0 0 0 .51.51h2.41l3.14 5a.6.6 0 0 0 .49.3.1.1 0 0 0 .07 0 .49.49 0 0 0 .38-.21.57.57 0 0 0 .1-.42.81.81 0 0 0 -.1-.25z"/><path d="m223 282c1.73-.13 2.76-1.34 2.76-3.26 0-2.84-1.9-3.27-3-3.27h-5.16a.58.58 0 0 0 -.57.57v10.75a.53.53 0 0 0 .53.55.53.53 0 0 0 .53-.53v-10.37h4.56c1.35 0 2 .77 2 2.28s-.69 2.27-1.93 2.27h-3.43a.51.51 0 0 0 -.51.51.52.52 0 0 0 .51.51h2.41l3.14 5a.6.6 0 0 0 .49.3.11.11 0 0 0 .07 0 .46.46 0 0 0 .37-.21.49.49 0 0 0 .1-.42.5.5 0 0 0 -.1-.25z"/><path d="m171.68 275.45h-5.15a.57.57 0 0 0 -.58.57v10.75a.54.54 0 0 0 .53.55.54.54 0 0 0 .53-.54v-10.33h4.56c1.35 0 2 .76 2 2.26s-.69 2.27-1.94 2.27h-3.43a.51.51 0 0 0 -.51.51.51.51 0 0 0 .51.51h3.37c1.93 0 3.09-1.23 3.09-3.29 0-1.22-.4-3.26-3-3.26"/><path d="m265.06 275.44h-.35a.49.49 0 0 0 -.38.18l-4.14 5-4.12-5a.5.5 0 0 0 -.39-.18h-.35a.48.48 0 0 0 -.53.5v10.83a.54.54 0 0 0 .54.54.53.53 0 0 0 .53-.53v-9.67l3.85 4.66a.47.47 0 0 0 .37.18h.14a.49.49 0 0 0 .38-.19l3.85-4.65v9.67a.53.53 0 0 0 .53.53.54.54 0 0 0 .54-.54v-10.83a.48.48 0 0 0 -.53-.5"/><path d="m251.3 275.44h-.3a.5.5 0 0 0 -.39.18l-4.14 5-4.12-5a.5.5 0 0 0 -.39-.18h-.36a.47.47 0 0 0 -.52.5v10.83a.54.54 0 0 0 .54.54.53.53 0 0 0 .53-.53v-9.67l3.84 4.66a.49.49 0 0 0 .38.18h.13a.49.49 0 0 0 .39-.19l3.84-4.65v9.67a.54.54 0 0 0 .54.53.54.54 0 0 0 .53-.54v-10.83a.47.47 0 0 0 -.52-.5"/><path d="m214.3 281.71h-5.57a.51.51 0 0 0 0 1h5a4.53 4.53 0 0 1 -4.74 3.84 4.93 4.93 0 0 1 -5.22-5.19 5 5 0 0 1 5.22-5.19 4.39 4.39 0 0 1 4.39 2.61.55.55 0 0 0 .53.39h.22a.34.34 0 0 0 .28-.14.4.4 0 0 0 .06-.37c-.23-.82-1.34-3.5-5.48-3.5a6.06 6.06 0 0 0 -6.32 6.2 5.92 5.92 0 0 0 6.32 6.19 5.58 5.58 0 0 0 5.86-5.33.48.48 0 0 0 -.14-.37.54.54 0 0 0 -.4-.16"/><path d="m171.39 235.94a.69.69 0 1 0 0 1.37h5.9a.69.69 0 1 0 0-1.37z"/><path d="m174.35 225.39 8.16 17.9a.76.76 0 0 0 .69.44.77.77 0 0 0 .67-1.17l-8.52-18.56a.79.79 0 0 0 -.7-.44h-.6a.79.79 0 0 0 -.7.44l-8.53 18.57a.78.78 0 0 0 .68 1.17.76.76 0 0 0 .69-.44l8.16-17.9"/><path d="m229.66 235.94a.69.69 0 1 0 0 1.37h5.89a.69.69 0 1 0 0-1.37z"/><path d="m232.61 225.39 8.16 17.9a.77.77 0 0 0 .69.44.78.78 0 0 0 .68-1.17l-8.53-18.56a.79.79 0 0 0 -.7-.44h-.6a.79.79 0 0 0 -.7.44l-8.52 18.57a.78.78 0 0 0 .67 1.17.76.76 0 0 0 .69-.44l8.16-17.9"/><path d="m215.26 241.9-8.16-17.9a.77.77 0 0 0 -.69-.44.78.78 0 0 0 -.68 1.17l8.53 18.57a.78.78 0 0 0 .7.44h.6a.81.81 0 0 0 .7-.44l8.52-18.57a.78.78 0 0 0 -.67-1.17.76.76 0 0 0 -.69.44z"/><path d="m187.38 223.56a.79.79 0 0 0 -.82.74v18.61a.82.82 0 0 0 .79.82h8c5.9 0 9.29-3.68 9.29-10.08 0-8.35-4.93-10.09-9.06-10.09zm7.93 1.34c5.12 0 7.82 3 7.82 8.75 0 5.54-2.74 8.73-7.51 8.73h-7.55v-17.48z"/><path d="m309.32 223.56a.8.8 0 0 0 -.82.74v18.61a.82.82 0 0 0 .79.82h8c5.9 0 9.42-3.68 9.42-10.08 0-8.35-5.07-10.09-9.2-10.09zm7.93 1.34c5.11 0 7.81 3 7.81 8.75 0 5.54-2.73 8.73-7.5 8.73h-7.56v-17.48z"/><path d="m293.78 232.61a.7.7 0 0 0 0 1.39h5.91a.7.7 0 0 0 0-1.39z"/><path d="m291.07 223.55a.8.8 0 0 0 -.79.79v18.56a.79.79 0 0 0 .77.84h14.05a.68.68 0 0 0 .66-.68.7.7 0 0 0 -.69-.68h-13.28v-17.49h13.12a.67.67 0 0 0 .69-.66.7.7 0 0 0 -.7-.68z"/><path d="m262.25 223.54a.74.74 0 0 0 -.73.74v17.29l-14.58-17.77a.72.72 0 0 0 -.52-.25h-.76a.69.69 0 0 0 -.71.67v18.78a.76.76 0 0 0 .74.76h.05a.74.74 0 0 0 .73-.75v-17.3l14 17.08.57.69a.77.77 0 0 0 .51.25h.77a.7.7 0 0 0 .7-.68v-18.74a.73.73 0 0 0 -.71-.77z"/><path d="m183.32 248.92a.73.73 0 0 0 -.73.73v17.35l-14.59-17.83a.71.71 0 0 0 -.52-.24h-.76a.69.69 0 0 0 -.71.66v18.76a.75.75 0 0 0 .74.75h.05a.74.74 0 0 0 .73-.74v-17.28l14 17.09.57.69a.81.81 0 0 0 .51.24h.77a.7.7 0 0 0 .7-.68v-18.74a.72.72 0 0 0 -.71-.76z"/><path d="m324.9 248.92a.73.73 0 0 0 -.73.73v17.35l-14.58-17.78a.69.69 0 0 0 -.52-.24h-.76a.7.7 0 0 0 -.71.66v18.76a.75.75 0 0 0 .74.75h.05a.74.74 0 0 0 .73-.74v-17.33l14 17.09.56.69a.83.83 0 0 0 .51.24h.81a.7.7 0 0 0 .7-.68v-18.74a.72.72 0 0 0 -.71-.76z"/><path d="m267.62 233.64a8.91 8.91 0 0 0 9.22 9.19c4 0 7.05-2.07 8-5a.69.69 0 0 1 .72-.56h.35a.45.45 0 0 1 .44.62c-.86 3.67-4.59 6.31-9.5 6.31a10.53 10.53 0 1 1 0-21.06c4.91 0 8.64 2.65 9.5 6.32a.45.45 0 0 1 -.44.62h-.35a.69.69 0 0 1 -.72-.56c-.94-3-4-5-8-5a8.91 8.91 0 0 0 -9.22 9.2"/><path d="m292.85 269.55a10.54 10.54 0 1 0 -10.73-10.55 10.25 10.25 0 0 0 10.73 10.54m-9.2-10.54a9.21 9.21 0 1 1 9.2 9.24 8.93 8.93 0 0 1 -9.2-9.24"/><path d="m198.44 269.48c5.92 0 9.4-3.69 9.4-9.68v-10.15a.73.73 0 0 0 -.72-.73h-.07a.73.73 0 0 0 -.72.76v10.11c0 4.85-2.78 8.35-7.89 8.35s-7.9-3.5-7.9-8.35v-10.11a.73.73 0 0 0 -.72-.76h-.07a.73.73 0 0 0 -.72.73v10.15c0 6 3.48 9.68 9.41 9.68"/><path d="m252.9 249.65a.74.74 0 0 0 -.73-.73h-.06a.73.73 0 0 0 -.72.76v18.68a.73.73 0 0 0 .72.76h.06a.74.74 0 0 0 .73-.73z"/><path d="m278 249.65a.74.74 0 0 0 -.73-.73h-.06a.73.73 0 0 0 -.72.76v18.68a.73.73 0 0 0 .72.76h.06a.74.74 0 0 0 .73-.73z"/><path d="m227.11 248.92h-15.42a.65.65 0 0 0 -.65.64v.06a.66.66 0 0 0 .69.64h6.92v18.1a.72.72 0 0 0 .71.76h.07a.73.73 0 0 0 .72-.73v-18.13h6.94a.66.66 0 0 0 .68-.64v-.06a.65.65 0 0 0 -.66-.64"/><path d="m272.4 248.92h-15.4a.65.65 0 0 0 -.66.64v.06a.66.66 0 0 0 .69.64h6.93v18.1a.72.72 0 0 0 .71.76h.07a.73.73 0 0 0 .72-.73v-18.13h6.94a.66.66 0 0 0 .67-.64v-.06a.65.65 0 0 0 -.65-.64"/><path d="m246 268.21a1.29 1.29 0 0 0 -.14-.36l-5-8c3.07-.1 4.92-2.07 4.92-5.48 0-4.54-2.8-5.47-5.05-5.47h-8.93a.81.81 0 0 0 -.81.8v18.65a.72.72 0 0 0 .71.76h.07a.73.73 0 0 0 .72-.73v-18.12h8.1c2.42 0 3.69 1.43 3.69 4.13s-1.3 4.12-3.55 4.12h-5.94a.7.7 0 0 0 0 1.39h4.29l5.49 8.81a.82.82 0 0 0 .78.41.75.75 0 0 0 .66-.89"/><path d="m235 282.6h-3.27a.52.52 0 0 0 -.51.51.51.51 0 0 0 .51.51h3.27a.51.51 0 0 0 .51-.51.51.51 0 0 0 -.51-.51"/><path d="m234 275.77a.55.55 0 0 0 -.5-.32h-.36a.57.57 0 0 0 -.5.32c-.07.17-.63 1.38-4.92 10.72a.58.58 0 0 0 0 .57.55.55 0 0 0 .47.27.55.55 0 0 0 .5-.33c0-.08 3.93-8.61 4.61-10.11.69 1.5 4.57 10 4.61 10.12a.56.56 0 0 0 .5.32.55.55 0 0 0 .47-.27.55.55 0 0 0 0-.57c-4.3-9.34-4.84-10.55-4.93-10.72"/><path d="m271 280.67a.53.53 0 0 0 -.52.51.51.51 0 0 0 .52.51h3.17a.51.51 0 0 0 .51-.51.52.52 0 0 0 -.51-.51z"/><path d="m277.07 286.31h-7.47v-9.87h7.4a.5.5 0 0 0 .5-.5.52.52 0 0 0 -.51-.5h-7.9a.57.57 0 0 0 -.56.57v10.71a.61.61 0 0 0 .16.44.56.56 0 0 0 .39.15h8a.5.5 0 0 0 .5-.5.52.52 0 0 0 -.51-.5"/><path d="m199.75 281.38a5.21 5.21 0 1 1 -5.2-5.22 5.05 5.05 0 0 1 5.2 5.22m-5.2-6.19a6.18 6.18 0 0 0 -4.71 1.92 6.51 6.51 0 0 0 0 8.55 6.72 6.72 0 0 0 9.41 0 6.51 6.51 0 0 0 0-8.55 6.16 6.16 0 0 0 -4.7-1.92"/><path d="m183.45 282c1.73-.13 2.76-1.34 2.76-3.26 0-2.84-1.9-3.27-3-3.27h-5.21a.58.58 0 0 0 -.57.57v10.75a.54.54 0 0 0 .54.55.53.53 0 0 0 .53-.53v-10.37h4.56c1.35 0 2 .77 2 2.28s-.68 2.27-1.93 2.27h-3.43a.51.51 0 0 0 -.51.51.52.52 0 0 0 .51.51h2.41l3.14 5a.6.6 0 0 0 .49.3.1.1 0 0 0 .07 0 .49.49 0 0 0 .38-.21.57.57 0 0 0 .1-.42.81.81 0 0 0 -.1-.25z"/><path d="m223 282c1.73-.13 2.76-1.34 2.76-3.26 0-2.84-1.9-3.27-3-3.27h-5.16a.58.58 0 0 0 -.57.57v10.75a.53.53 0 0 0 .53.55.53.53 0 0 0 .53-.53v-10.37h4.56c1.35 0 2 .77 2 2.28s-.69 2.27-1.93 2.27h-3.43a.51.51 0 0 0 -.51.51.52.52 0 0 0 .51.51h2.41l3.14 5a.6.6 0 0 0 .49.3.11.11 0 0 0 .07 0 .46.46 0 0 0 .37-.21.49.49 0 0 0 .1-.42.5.5 0 0 0 -.1-.25z"/><path d="m171.68 275.45h-5.15a.57.57 0 0 0 -.58.57v10.75a.54.54 0 0 0 .53.55.54.54 0 0 0 .53-.54v-10.33h4.56c1.35 0 2 .76 2 2.26s-.69 2.27-1.94 2.27h-3.43a.51.51 0 0 0 -.51.51.51.51 0 0 0 .51.51h3.37c1.93 0 3.09-1.23 3.09-3.29 0-1.22-.4-3.26-3-3.26"/><path d="m265.06 275.44h-.35a.49.49 0 0 0 -.38.18l-4.14 5-4.12-5a.5.5 0 0 0 -.39-.18h-.35a.48.48 0 0 0 -.53.5v10.83a.54.54 0 0 0 .54.54.53.53 0 0 0 .53-.53v-9.67l3.85 4.66a.47.47 0 0 0 .37.18h.14a.49.49 0 0 0 .38-.19l3.85-4.65v9.67a.53.53 0 0 0 .53.53.54.54 0 0 0 .54-.54v-10.83a.48.48 0 0 0 -.53-.5"/><path d="m251.3 275.44h-.3a.5.5 0 0 0 -.39.18l-4.14 5-4.12-5a.5.5 0 0 0 -.39-.18h-.36a.47.47 0 0 0 -.52.5v10.83a.54.54 0 0 0 .54.54.53.53 0 0 0 .53-.53v-9.67l3.84 4.66a.49.49 0 0 0 .38.18h.13a.49.49 0 0 0 .39-.19l3.84-4.65v9.67a.54.54 0 0 0 .54.53.54.54 0 0 0 .53-.54v-10.83a.47.47 0 0 0 -.52-.5"/><path d="m214.3 281.71h-5.57a.51.51 0 0 0 0 1h5a4.53 4.53 0 0 1 -4.74 3.84 4.93 4.93 0 0 1 -5.22-5.19 5 5 0 0 1 5.22-5.19 4.39 4.39 0 0 1 4.39 2.61.55.55 0 0 0 .53.39h.22a.34.34 0 0 0 .28-.14.4.4 0 0 0 .06-.37c-.23-.82-1.34-3.5-5.48-3.5a6.06 6.06 0 0 0 -6.32 6.2 5.92 5.92 0 0 0 6.32 6.19 5.58 5.58 0 0 0 5.86-5.33.48.48 0 0 0 -.14-.37.54.54 0 0 0 -.4-.16"/><path d="m171.39 235.94a.69.69 0 1 0 0 1.37h5.9a.69.69 0 1 0 0-1.37z"/><path d="m174.35 225.39 8.16 17.9a.76.76 0 0 0 .69.44.77.77 0 0 0 .67-1.17l-8.52-18.56a.79.79 0 0 0 -.7-.44h-.6a.79.79 0 0 0 -.7.44l-8.53 18.57a.78.78 0 0 0 .68 1.17.76.76 0 0 0 .69-.44l8.16-17.9"/><path d="m229.66 235.94a.69.69 0 1 0 0 1.37h5.89a.69.69 0 1 0 0-1.37z"/><path d="m232.61 225.39 8.16 17.9a.77.77 0 0 0 .69.44.78.78 0 0 0 .68-1.17l-8.53-18.56a.79.79 0 0 0 -.7-.44h-.6a.79.79 0 0 0 -.7.44l-8.52 18.57a.78.78 0 0 0 .67 1.17.76.76 0 0 0 .69-.44l8.16-17.9"/><path d="m215.26 241.9-8.16-17.9a.77.77 0 0 0 -.69-.44.78.78 0 0 0 -.68 1.17l8.53 18.57a.78.78 0 0 0 .7.44h.6a.81.81 0 0 0 .7-.44l8.52-18.57a.78.78 0 0 0 -.67-1.17.76.76 0 0 0 -.69.44z"/></g></svg>