<svg viewBox="0 0 500 500" xmlns="http://www.w3.org/2000/svg"><g fill="#fff"><path d="m162.31 113.84h27l32.78 117.09 32.39-117.09h27.25l-42.81 143.55h-33.77z"/><path d="m118.25 329.61h9l10.93 39 10.8-39h9.08l-14.28 47.85h-11.25z"/><path d="m162.15 329.61h8.17v7.7h-8.17zm0 13.36h8.17v34.49h-8.17z"/><path d="m191.51 371.14a23 23 0 0 0 3.36-.26v6.71a33.59 33.59 0 0 1 -6.78.59c-5.67 0-8.09-2.49-8.09-8.09v-20.4h-4.49v-6.69h4.49v-11.08h8.15v11.08h6.72v6.72h-6.72v17.44c0 2.84.4 3.98 3.36 3.98z"/><path d="m217.52 374.43a17 17 0 0 1 -10.27 3.43c-5.79 0-9.22-3.49-9.22-9.22 0-7.7 6.39-11.78 19.55-13.42v-2.7c0-2.5-1.71-3.95-4.87-3.95a9 9 0 0 0 -7.57 3.95l-5.53-3.52q4.35-6.7 13.23-6.72c8.1 0 12.64 3.89 12.64 10.21v20.27a30.61 30.61 0 0 0 .52 4.67h-7.76zm-11.46-6.43a3.36 3.36 0 0 0 3.69 3.69c2.57 0 5.07-1.18 7.57-3.62v-7.37c-7.64 1.03-11.26 3.2-11.26 7.3z"/><path d="m234.05 343h7.5v4a12.38 12.38 0 0 1 9.75-4.68c4.07 0 6.77 1.65 8.48 5.14 3.49-3.49 6.78-5.14 11.12-5.14 5.73 0 9.22 3.36 9.22 8.76v26.39h-8.12v-23.77c0-3-1.32-4.67-3.75-4.67s-4.94 1.18-7.25 3.55v24.88h-8v-22.83c0-3.76-1.05-5.54-3.55-5.54a9.64 9.64 0 0 0 -7.31 3.56v24.81h-8.09z"/><path d="m288.69 329.61h8.16v7.7h-8.16zm0 13.36h8.16v34.49h-8.16z"/><path d="m305.47 343h7.53v4.08c3.81-3.09 6.84-4.74 10.66-4.74 6.38 0 9.68 3.75 9.68 11.19v24h-8.17v-22.44c0-4.22-1-6.13-3.95-6.13-2.44 0-4.87 1.25-7.63 3.82v24.68h-8.1z"/><path d="m340.76 217.05h-39.21v19.85h33.5v14.73h-33.5v20.55h39.21v14.74h-55.76v-84.6h55.73z"/><path d="m389.82 337.08h-23.6v11.92h20.17v8.87h-20.17v12.38h23.6v8.87h-33.55v-50.91h33.55z"/><path d="m488 487.38h-468v-468h468zm-457-10.91h446.1v-446.14h-446.1z"/></g></svg>