<svg viewBox="0 0 500 500" xmlns="http://www.w3.org/2000/svg"><g fill="#fff"><path d="m153 121.11h27l32.77 117.1 32.39-117.1h27.25l-42.84 143.55h-33.76z"/><path d="m299.31 205.62h19.69l25.22 83.73h-15.77l-5.18-18.35h-28.92l-5.29 18.31h-15zm20.16 52.06-10.71-37.44-10.61 37.44z"/><path d="m108.9 336.89h9l10.93 39 10.79-39h9.09l-14.28 47.85h-11.25z"/><path d="m152.81 336.89h8.19v7.7h-8.16zm0 13.35h8.19v34.5h-8.16z"/><path d="m182.17 378.42a24.57 24.57 0 0 0 3.36-.26v6.71a34.54 34.54 0 0 1 -6.78.59c-5.67 0-8.1-2.5-8.1-8.1v-20.36h-4.48v-6.72h4.48v-11.09h8.16v11.05h6.72v6.76h-6.72v17.4c0 2.9.4 4.02 3.36 4.02z"/><path d="m208.17 381.71a17.06 17.06 0 0 1 -10.27 3.42c-5.79 0-9.22-3.49-9.22-9.21 0-7.7 6.39-11.78 19.55-13.43v-2.7c0-2.5-1.7-4-4.86-4a9 9 0 0 0 -7.57 4l-5.53-3.49q4.35-6.71 13.23-6.71c8.09 0 12.63 3.88 12.63 10.2v20.27a30.81 30.81 0 0 0 .53 4.68h-7.77zm-11.45-6.45a3.36 3.36 0 0 0 3.69 3.68c2.57 0 5.06-1.18 7.56-3.62v-7.32c-7.63 1-11.25 3.18-11.25 7.26z"/><path d="m224.7 350.24h7.5v4a12.42 12.42 0 0 1 9.75-4.67c4.07 0 6.77 1.64 8.49 5.13 3.49-3.49 6.78-5.13 11.12-5.13 5.72 0 9.21 3.36 9.21 8.75v26.4h-8.16v-23.72c0-3-1.31-4.68-3.75-4.68s-4.93 1.19-7.24 3.56v24.88h-8v-22.86c0-3.75-1.06-5.53-3.56-5.53a9.69 9.69 0 0 0 -7.31 3.55v24.82h-8.05z"/><path d="m279.34 336.89h8.16v7.7h-8.16zm0 13.35h8.16v34.5h-8.16z"/><path d="m296.13 350.24h7.5v4.09c3.81-3.1 6.84-4.74 10.66-4.74 6.38 0 9.68 3.75 9.68 11.19v24h-8.16v-22.42c0-4.21-1-6.12-3.95-6.12-2.44 0-4.88 1.25-7.64 3.81v24.69h-8.09z"/><path d="m362.61 336.89h11.27l14.41 47.85h-9l-3-10.47h-16.5l-3 10.47h-8.59zm11.53 29.75-6.14-21.39-6 21.39z"/><path d="m482.58 487.38h-468v-468h468zm-457.06-10.91h446.15v-446.14h-446.15z"/></g></svg>