<svg viewBox="0 0 500 500" xmlns="http://www.w3.org/2000/svg"><g fill="#fff"><path d="m163.36 113.84h27l32.77 117.09 32.39-117.09h27.25l-42.77 143.55h-33.8z"/><path d="m119.3 329.61h9l10.94 39 10.79-39h9.08l-14.28 47.85h-11.25z"/><path d="m163.21 329.61h8.16v7.7h-8.16zm0 13.36h8.16v34.49h-8.16z"/><path d="m192.56 371.14a23 23 0 0 0 3.36-.26v6.71a33.59 33.59 0 0 1 -6.78.59c-5.66 0-8.09-2.49-8.09-8.09v-20.4h-4.48v-6.69h4.48v-11.08h8.15v11.08h6.72v6.72h-6.72v17.44c0 2.84.4 3.98 3.36 3.98z"/><path d="m218.57 374.43a17 17 0 0 1 -10.27 3.43c-5.79 0-9.22-3.49-9.22-9.22 0-7.7 6.39-11.78 19.55-13.42v-2.7c0-2.5-1.71-3.95-4.87-3.95a9 9 0 0 0 -7.57 3.95l-5.52-3.52q4.34-6.7 13.22-6.72c8.1 0 12.64 3.89 12.64 10.21v20.27a30.61 30.61 0 0 0 .52 4.67h-7.76zm-11.46-6.43a3.37 3.37 0 0 0 3.7 3.69c2.56 0 5.06-1.18 7.56-3.62v-7.37c-7.63 1.03-11.26 3.2-11.26 7.3z"/><path d="m235.1 343h7.5v4a12.4 12.4 0 0 1 9.75-4.68c4.07 0 6.77 1.65 8.48 5.14 3.49-3.49 6.78-5.14 11.12-5.14 5.73 0 9.22 3.36 9.22 8.76v26.39h-8.17v-23.77c0-3-1.32-4.67-3.75-4.67s-4.94 1.18-7.24 3.55v24.88h-8v-22.83c0-3.76-1.05-5.54-3.55-5.54a9.65 9.65 0 0 0 -7.31 3.56v24.81h-8.05z"/><path d="m289.74 329.61h8.16v7.7h-8.16zm0 13.36h8.16v34.49h-8.16z"/><path d="m306.53 343h7.47v4.08c3.81-3.09 6.84-4.74 10.66-4.74 6.38 0 9.68 3.75 9.68 11.19v24h-8.14v-22.44c0-4.22-1-6.13-3.95-6.13-2.44 0-4.87 1.25-7.63 3.82v24.68h-8.09z"/><path d="m345.49 228.34h-16.75c-1.66-6.89-6.06-12-14.26-12a13.62 13.62 0 0 0 -10.57 4.4c-3.09 3.56-4.16 7.72-4.16 23.88s1.07 20.32 4.16 23.88a13.65 13.65 0 0 0 10.57 4.4c8.2 0 12.6-5.11 14.26-12h16.75c-3 17.7-15.21 26.73-31 26.73-9.74 0-16.87-3.21-22.69-8.91-8.44-8.44-8.56-17.94-8.56-34.1s.12-25.67 8.56-34.1c5.82-5.71 12.95-8.91 22.69-8.91 15.79 0 28.03 9.03 31 26.73z"/><path d="m393.09 343.88h-10.09c-1-4.15-3.64-7.23-8.58-7.23a8.26 8.26 0 0 0 -6.37 2.65c-1.86 2.15-2.5 4.65-2.5 14.38s.64 12.23 2.5 14.38a8.26 8.26 0 0 0 6.37 2.65c4.94 0 7.58-3.08 8.58-7.23h10.09c-1.79 10.66-9.15 16.1-18.67 16.1a18.41 18.41 0 0 1 -13.66-5.37c-5.08-5.08-5.15-10.8-5.15-20.53s.07-15.45 5.15-20.53a18.41 18.41 0 0 1 13.66-5.36c9.52 0 16.88 5.43 18.67 16.09z"/><path d="m490.18 487.38h-468v-468h468zm-457.06-10.91h446.14v-446.14h-446.14z"/></g></svg>