<svg viewBox="0 0 500 500" xmlns="http://www.w3.org/2000/svg"><g fill="#fff"><path d="m247.33 496c-135.09 0-245-109.91-245-245s109.91-245 245-245 245 109.9 245 245-109.9 245-245 245zm0-483.18c-131.33-.04-238.18 106.8-238.18 238.18s106.85 238.14 238.18 238.14 238.18-106.85 238.18-238.14-106.84-238.22-238.18-238.22z"/><path d="m345.63 330.85h-1.59l-5.93-17.85.91-1a82.82 82.82 0 0 0 22.4-56.75 84.13 84.13 0 0 0 -60.2-80.46l-2.75-.8 16.4-28.42a3.87 3.87 0 0 0 -1.41-5.27l-7.24-4.18 8.35-14.47 7.24 4.18a3.89 3.89 0 0 0 2.93.39 3.82 3.82 0 0 0 2.34-1.8l12.22-21.16a3.87 3.87 0 0 0 -1.41-5.26l-42.32-24.4a3.87 3.87 0 0 0 -5.27 1.4l-12.22 21.17a3.88 3.88 0 0 0 1.41 5.28l7.24 4.17-8.36 14.47-7.23-4.17a3.8 3.8 0 0 0 -2.93-.39 3.87 3.87 0 0 0 -2.35 1.8l-46.93 81.29-7.23-4.17a3.86 3.86 0 0 0 -5.28 1.41l-12.22 21.14a3.84 3.84 0 0 0 -.38 2.93 3.76 3.76 0 0 0 1.8 2.34l63.47 36.65a3.86 3.86 0 0 0 5.28-1.41l12.21-21.16a3.85 3.85 0 0 0 -1.41-5.27l-7.24-4.18 6.24-10.79 1.18-.09a38.29 38.29 0 0 1 29.12 10.3 39.7 39.7 0 0 1 12.58 29 38.7 38.7 0 0 1 -5.21 19.44l-1.06 1.83-1.89-.95a54.68 54.68 0 0 0 -58.48 5.88l-.61.48h-60.39a28.15 28.15 0 0 0 -25.31 15.64l-5.46 10.93a3.83 3.83 0 0 0 .17 3.75 3.89 3.89 0 0 0 3.29 1.83h67.9l-5.57 16.71h-86.8a16.09 16.09 0 0 0 -16.08 16.08v30.54a3.86 3.86 0 0 0 3.86 3.86h232.15a3.87 3.87 0 0 0 3.86-3.86v-30.56a16.16 16.16 0 0 0 -15.79-16.07zm-58.93-234.16 8.35-14.47 35.63 20.57-8.35 14.47zm6.72 12.79 14.47 8.36-8.36 14.47-14.47-8.31zm-25.42 126.37-8.36 14.47-56.79-32.78 8.36-14.47zm-6.72-12.79-35.63-20.57 45-77.95 24 13.84 1.72 1 .32.19.34.19 1 .56h.08l.27.16 1 .56h.06l.22.13.65.37.13.08h.1l.17.1 3.46 2 1.94 1.13zm21.05-14.65-3.5-.31 15.59-27.1 1.64.4a75.63 75.63 0 0 1 57.63 73.86 74.56 74.56 0 0 1 -16.05 46.52l-2.26 2.87-1.54-3.31a55.11 55.11 0 0 0 -15.1-19.34l-1.5-1.23 1-1.67a46.32 46.32 0 0 0 6.54-23.82c-.01-24.14-18.66-44.73-42.48-46.87zm2 69.08a46.92 46.92 0 0 1 44.57 32.12l7.08 21.23h-103.37l7.08-21.23a46.92 46.92 0 0 1 44.57-32.12zm-117.23 28.92 3.11-3.72c5-10.79 13.21-13.05 19.2-13.05h52.4l-2.45 3.53a55 55 0 0 0 -6.21 11.8l-.55 1.44zm186.59 67.19h-224.38v-26.68a8.36 8.36 0 0 1 8.36-8.35h207.67a8.35 8.35 0 0 1 8.35 8.35z"/></g></svg>