<svg viewBox="0 0 500 500" xmlns="http://www.w3.org/2000/svg"><g fill="#fff"><path d="m241.58 488.82c-130 0-235.77-105.77-235.77-235.77s105.77-235.77 235.77-235.77 235.78 105.77 235.78 235.77-105.78 235.77-235.78 235.77zm0-460.32c-123.81 0-224.58 100.74-224.58 224.55s100.77 224.55 224.58 224.55 224.55-100.74 224.55-224.55-100.73-224.55-224.55-224.55z"/><path d="m128.85 227.42a15.06 15.06 0 0 0 -14.85 14.79c0 .57-.52 57.43 33.39 93.45 28.14 29.9 58.82 36.33 80 36.33h1.12a93 93 0 0 0 15.73-1.46 10.72 10.72 0 0 0 7.85-5.58 11.08 11.08 0 0 0 0-9.81c.9-35-19.06-122.21-122.16-127.68zm0 11h.57c41.07 2.21 71.8 18.31 91.34 47.85 15.64 23.67 20.69 51.73 20.24 68.58l-.06 2.41 1 2.23.11.25a83 83 0 0 1 -13.74 1.26h-1c-18.72 0-46.4-5.7-72-32.87-30.54-32.43-30.41-85.26-30.41-85.67a4.26 4.26 0 0 1 1.29-3 4.05 4.05 0 0 1 2.63-1.11"/><path d="m354.15 226.84h-1c-103.09 6.57-122.1 94.07-120.81 129a11 11 0 0 0 .08 9.81 10.73 10.73 0 0 0 7.91 5.5 94.57 94.57 0 0 0 15.75 1.29c21.18 0 52.39-6.45 80.69-37.18 33.67-36.52 32.41-93.24 32.4-93.86a15.18 15.18 0 0 0 -4.92-10.64 15 15 0 0 0 -10.14-3.93m.12 11a4.08 4.08 0 0 1 4 3.87c0 .54.87 53.2-29.49 86.14-25.62 27.81-53.63 33.64-72.62 33.64a82.17 82.17 0 0 1 -13.73-1.11 1.21 1.21 0 0 1 .05-.14l1-2.29-.09-2.48c-.61-16.82 4.13-44.92 19.53-68.76 19.22-29.75 49.78-46.19 90.84-48.85z"/><path d="m241.88 252a59.17 59.17 0 1 1 59.17-59.17 59.24 59.24 0 0 1 -59.17 59.17zm0-107.35a48.18 48.18 0 1 0 48.19 48.18 48.23 48.23 0 0 0 -48.19-48.19z"/><path d="m10.55 247.44h462.06v11.22h-462.06z" transform="matrix(.77262278 -.63486537 .63486537 .77262278 -105.73 210.91)"/></g></svg>