<svg viewBox="0 0 500 500" xmlns="http://www.w3.org/2000/svg"><path d="m247.33 16.79c-130.12 0-236 105.87-236 236s105.87 236 236 236 236-105.87 236-236-105.87-236-236-236zm53.83 176.35 122.37-79.46q6.9 8.71 12.92 18.12l-94.45 61.34zm150-34.53a222.5 222.5 0 0 1 12.68 34.53h-65.84zm-34.95-53.61-120.8 78.4v-150.07a224.69 224.69 0 0 1 120.8 71.67zm-319.51 88.14h-65.84a223.49 223.49 0 0 1 12.67-34.53zm-48.22-44.79q5.21-9.89 11.33-19.16l98.48 63.95h-40.84zm150.77-115v150.05l-120.78-78.46a224.68 224.68 0 0 1 120.78-71.61zm-174 186.84 113.2.07h.06 78.71l1.43-190.21a224.66 224.66 0 0 1 28.68-2.05 225.26 225.26 0 0 1 28.74 2.05l.68 190.1v.11h79.43l.17-.11h113.1a224.88 224.88 0 0 1 2.64 32.62 224.43 224.43 0 0 1 -3.32 37.08l-192 1.88-.69 183.75a225 225 0 0 1 -28.73 2.05 225 225 0 0 1 -28.72-2.05l-1.42-183.75-191.31-1.86a224.43 224.43 0 0 1 -3.33-37.08 223.48 223.48 0 0 1 2.65-32.62zm409.6 156.21-98.47-64h40.82l69 44.79q-5.2 9.93-11.35 19.21zm-36.89-64h65.84a221.82 221.82 0 0 1 -12.67 34.6zm69.63-14.91c-.09.46-.2.91-.3 1.36.1-.41.21-.85.3-1.32zm-409.37 76.29 94.45-61.34h40.84l-122.37 79.46q-6.9-8.73-12.92-18.12zm-14.69-26.78a223.87 223.87 0 0 1 -12.67-34.53h65.85zm-16.17-48.14c-.09-.44-.2-.87-.29-1.31.09.45.2.87.29 1.31zm51.11 101.77 120.78-78.45v150.06a224.68 224.68 0 0 1 -120.78-71.61zm216.94 71.61v-150.06l120.79 78.45a224.61 224.61 0 0 1 -120.79 71.61z" fill="#fff"/></svg>