<svg viewBox="0 0 500 500" xmlns="http://www.w3.org/2000/svg"><g fill="#fff"><path d="m250.59 496c-135.09 0-244.99-109.95-244.99-245s109.9-245 244.99-245 245 109.91 245 245-109.9 245-245 245zm0-484.24c-131.91-.04-239.23 107.24-239.23 239.24s107.32 239.19 239.23 239.19 239.24-107.31 239.24-239.19-107.32-239.28-239.24-239.28z"/><path d="m250.59 349.72h.01l-.01-.01z"/><path d="m406.76 241.87c-4.74-59.4-44-111.62-100.12-133a156.82 156.82 0 0 0 -56.29-10.74c-21.25 0-42.42 4.6-63.32 13.8a151 151 0 0 0 -45.95 31.82l-6.19 5 23.35 20-71.34 21.76 11.59-73.29 23.08 20.19 3.43-3.41c35.72-35.58 79.35-52.94 130-51.64 37.24 1 71.06 12.76 100.54 35.06s50.31 52 61.61 88.11c5.25 16.76 7.56 39.18 7.79 52.21-6.08-5.29-12.18-10.59-18.18-15.87z"/><path d="m402.37 392.82-23.83-21.08-3.45 3.49c-35 35.42-75 53-122.52 53.82-34 .61-65.06-7.87-92.33-25.11-55.35-35-82.91-84.57-84-151.26l.8.7c5.65 4.91 11.3 9.83 17.11 15.07 4 42.05 22 77.3 53.54 104.77 29.2 25.42 63.63 38.41 102.33 38.6 37.87.07 73.11-13.36 104-40.26 1.66-1.45 3.27-2.93 4.93-4.47l6.56-6-22.86-19.66 71.35-21.82z"/></g></svg>