<svg viewBox="0 0 500 500" xmlns="http://www.w3.org/2000/svg"><g fill="#fff"><path d="m248.64 496c-135.09 0-245-109.91-245-245s109.91-245 245-245 245 109.9 245 245-109.91 245-245 245zm0-483.18c-131.33-.04-238.18 106.8-238.18 238.18s106.85 238.14 238.18 238.14 238.18-106.85 238.18-238.14-106.82-238.22-238.18-238.22z"/><path d="m371.81 288a9.74 9.74 0 0 0 -11.81 7.2 117.49 117.49 0 0 1 -228.59-.12 9.79 9.79 0 1 0 -19 4.49 137.05 137.05 0 0 0 266.67.16 9.76 9.76 0 0 0 -7.27-11.73z"/><circle cx="167.45" cy="189.66" r="19.57"/><circle cx="324.05" cy="189.66" r="19.57"/></g></svg>