<svg viewBox="0 0 500 500" xmlns="http://www.w3.org/2000/svg"><g fill="#fff"><path d="m250.81 496c-135.09 0-245-109.91-245-245s109.91-245 245-245 245 109.91 245 245-109.91 245-245 245zm0-483.18c-131.34-.04-238.18 106.8-238.18 238.18s106.84 238.14 238.18 238.14 238.19-106.85 238.19-238.14-106.86-238.22-238.19-238.22z"/><path d="m65.34 286.76h375.97v13.64h-375.97z"/><path d="m95.27 354.37a4.93 4.93 0 0 1 -1.81-.34 5 5 0 0 1 -1.62-1.03 4.88 4.88 0 0 1 0-6.87 6 6 0 0 1 .76-.61 4.12 4.12 0 0 1 .8-.43 4.86 4.86 0 0 1 1-.29 4.76 4.76 0 0 1 1.84 0 3.9 3.9 0 0 1 .89.27 4.1 4.1 0 0 1 .93.52 4.2 4.2 0 0 1 .63.51 4.85 4.85 0 0 1 -3.4 8.3zm.16-5.67h-.05l-.6.11a.88.88 0 0 0 -.34.67.86.86 0 0 0 .25.6l.58.24a.79.79 0 0 0 .57-.25.8.8 0 0 0 .26-.59.82.82 0 0 0 -.23-.57z"/><path d="m130.89 394.72a4.82 4.82 0 0 1 -3.41-1.41 3.88 3.88 0 0 1 -.64-.79 4.71 4.71 0 0 1 -.43-.78 4.57 4.57 0 0 1 -.24-.82 5.17 5.17 0 0 1 -.12-1 4.93 4.93 0 0 1 .09-.87 4.76 4.76 0 0 1 .33-1.06 4.46 4.46 0 0 1 .37-.69 4.06 4.06 0 0 1 .69-.83 4.78 4.78 0 0 1 3.35-1.32 4.87 4.87 0 0 1 3.42 1.37 4.48 4.48 0 0 1 .6.7 5.72 5.72 0 0 1 .46.86 4 4 0 0 1 .29 1.08 2.86 2.86 0 0 1 .07.76 5.29 5.29 0 0 1 -.07.9 5.66 5.66 0 0 1 -.31 1 4.32 4.32 0 0 1 -.43.77 4.2 4.2 0 0 1 -.61.73 4.84 4.84 0 0 1 -3.41 1.4zm0-5.58a.84.84 0 0 0 -.57.2h-2.2l2 .57.16.46a.83.83 0 0 0 1.26.06l.22-.55-.18-.5a.89.89 0 0 0 -.68-.24z"/><path d="m160.1 354.37a4.85 4.85 0 0 1 -4.83-4.84 4.83 4.83 0 0 1 5.82-4.75 4.87 4.87 0 0 1 1.81.79 4.73 4.73 0 0 1 .67.56 4.94 4.94 0 0 1 1.4 3.4 4.94 4.94 0 0 1 -.38 1.84 5 5 0 0 1 -.42.8 5.21 5.21 0 0 1 -.66.8 4.23 4.23 0 0 1 -.68.56 5.72 5.72 0 0 1 -.78.45 4.4 4.4 0 0 1 -1 .29 5 5 0 0 1 -.95.1zm.23-4 2.14.77-1.7-1.06h2.13l-2-.56a.9.9 0 0 0 -.28-.61c-.67-.26-1-.17-1.16 0a.89.89 0 0 0 -.22.59.82.82 0 0 0 .23.58.83.83 0 0 0 .58.25z"/><path d="m195.74 394.72a4.85 4.85 0 0 1 -3.43-1.42 7.88 7.88 0 0 1 -.59-.72 4.39 4.39 0 0 1 -.46-.85 3.94 3.94 0 0 1 -.29-1.08 2.65 2.65 0 0 1 -.07-.78 4.09 4.09 0 0 1 .13-1.08 2.77 2.77 0 0 1 .23-.76 5.24 5.24 0 0 1 .47-.87 5.94 5.94 0 0 1 .5-.63 4.41 4.41 0 0 1 .88-.7 4.47 4.47 0 0 1 .76-.42 4.93 4.93 0 0 1 .88-.27 4.84 4.84 0 0 1 4.42 1.33 3.87 3.87 0 0 1 .63.77 5.05 5.05 0 0 1 .43.79 4.3 4.3 0 0 1 .29 1.12 2.57 2.57 0 0 1 .06.72 3.81 3.81 0 0 1 -.14 1.13 2 2 0 0 1 -.22.75 3.89 3.89 0 0 1 -.5.88 3.41 3.41 0 0 1 -.61.71 4.72 4.72 0 0 1 -3.37 1.38zm0-5.67h-.14l-.69.79-1.18 2 1.41-1.43a.84.84 0 0 0 1.17 0l.29-.61-.19-.49a1 1 0 0 0 -.68-.26z"/><path d="m224.93 354.37a4.8 4.8 0 0 1 -3.42-1.42 5.14 5.14 0 0 1 -.57-.68 5.54 5.54 0 0 1 -.49-.88 5.47 5.47 0 0 1 -.26-.9 3.89 3.89 0 0 1 -.1-1 4.93 4.93 0 0 1 1.4-3.41 5.32 5.32 0 0 1 .8-.65 4.82 4.82 0 0 1 1.76-.71 4.62 4.62 0 0 1 1.85 0 4.29 4.29 0 0 1 .89.27 3.8 3.8 0 0 1 .9.51 4.45 4.45 0 0 1 .61.49 5 5 0 0 1 1.47 3.48 4.86 4.86 0 0 1 -1.4 3.42 5.19 5.19 0 0 1 -.8.64 5.68 5.68 0 0 1 -.67.39 5.25 5.25 0 0 1 -1 .3 5.7 5.7 0 0 1 -.97.15zm0-3.91.06 1.9.16-2c.52-.36.61-.58.61-.8a1 1 0 0 0 -.25-.61l-.76-.2c-.5.36-.6.59-.6.8l-1.54 1.58 1.74-1a.87.87 0 0 0 .62.29z"/><path d="m260.59 394.72a4.79 4.79 0 0 1 -3.43-1.43 4.53 4.53 0 0 1 -.64-.78 4.34 4.34 0 0 1 -.41-.78 4.79 4.79 0 0 1 -.27-.86 5.22 5.22 0 0 1 -.09-1 5.1 5.1 0 0 1 .07-.87 5.65 5.65 0 0 1 .29-1 4.94 4.94 0 0 1 .41-.79 4.54 4.54 0 0 1 .65-.78 4.78 4.78 0 0 1 4.38-1.33 6.1 6.1 0 0 1 .88.27 5.16 5.16 0 0 1 .86.47 3.49 3.49 0 0 1 .77.64 3.55 3.55 0 0 1 .61.75 6.92 6.92 0 0 1 .39.77 5.27 5.27 0 0 1 .27.88 6.14 6.14 0 0 1 .1 1 5.3 5.3 0 0 1 -.09.91 5.94 5.94 0 0 1 -.29 1 5.25 5.25 0 0 1 -.43.81 4.22 4.22 0 0 1 -.61.73 4.77 4.77 0 0 1 -3.42 1.39zm0-5.67a.83.83 0 0 0 -.57.22l-.25.6.15.51a.81.81 0 0 0 1.25.08l.25-.59-.19-.53-.08-2.24-.4 2z"/><path d="m289.78 354.37a5.27 5.27 0 0 1 -.89-.09 5.66 5.66 0 0 1 -1-.26 5.55 5.55 0 0 1 -.84-.48 4.8 4.8 0 0 1 -.67-.54 4.87 4.87 0 0 1 -1.47-3.48 5 5 0 0 1 1.39-3.41 7.17 7.17 0 0 1 .81-.65 3.54 3.54 0 0 1 .78-.42 5.21 5.21 0 0 1 1-.29 4.62 4.62 0 0 1 1.85 0 4 4 0 0 1 .88.27 3.85 3.85 0 0 1 .92.51 3.62 3.62 0 0 1 .64.52 4.89 4.89 0 0 1 1.44 3.45 4.78 4.78 0 0 1 -.08.84 4.88 4.88 0 0 1 -.28 1 4.51 4.51 0 0 1 -.47.87 5.07 5.07 0 0 1 -.66.78 4.72 4.72 0 0 1 -3.35 1.38zm-.22-5.65c-.51.36-.61.58-.61.8a.86.86 0 0 0 .25.6l.58.24a.79.79 0 0 0 .57-.25l2.21-.07-1.95-.52a.89.89 0 0 0 -.26-.6z"/><path d="m325.41 394.72a4.81 4.81 0 0 1 -3.43-1.43 3.83 3.83 0 0 1 -.63-.78 3.68 3.68 0 0 1 -.43-.78 5.33 5.33 0 0 1 -.24-.83 3.75 3.75 0 0 1 -.12-1 4 4 0 0 1 .14-1.08 4.21 4.21 0 0 1 .22-.76 6.35 6.35 0 0 1 .41-.77 4.23 4.23 0 0 1 .71-.86 3.78 3.78 0 0 1 .71-.56 4.85 4.85 0 0 1 .82-.44 5.09 5.09 0 0 1 .84-.26 5.23 5.23 0 0 1 1.93 0 6.43 6.43 0 0 1 .93.28 5.07 5.07 0 0 1 .82.46 3.75 3.75 0 0 1 .74.6 3.84 3.84 0 0 1 .64.78 4.89 4.89 0 0 1 .42.79 4 4 0 0 1 .29 1.08 2.6 2.6 0 0 1 .07.76 4.17 4.17 0 0 1 -.14 1.13 2.39 2.39 0 0 1 -.23.75 4.9 4.9 0 0 1 -.42.78 4.17 4.17 0 0 1 -.63.76 4.77 4.77 0 0 1 -3.42 1.38zm.55-7.62-.39 2-.67.2-.33.58.18.52a.8.8 0 0 0 1.24.08l.26-.6-.19-.49z"/><path d="m354.6 354.37a4.87 4.87 0 0 1 -4.85-4.85 4.85 4.85 0 0 1 1.44-3.44 4.45 4.45 0 0 1 .77-.62 4.57 4.57 0 0 1 .78-.42 4.53 4.53 0 0 1 .95-.28 4.42 4.42 0 0 1 1.88 0 4.29 4.29 0 0 1 .89.27 3.87 3.87 0 0 1 1 .55 3.25 3.25 0 0 1 .65.54 4.8 4.8 0 0 1 1.38 3.39 6.36 6.36 0 0 1 -.06.87 5 5 0 0 1 -.3 1 6.8 6.8 0 0 1 -.42.8 5 5 0 0 1 -.64.78 4.78 4.78 0 0 1 -3.47 1.41zm-1.08-7.48.68 1.91a.93.93 0 0 0 -.43.72.78.78 0 0 0 .24.58.82.82 0 0 0 1.18 0l.23-.59a.82.82 0 0 0 -.23-.58l-.46-.24z"/><path d="m390.25 394.72a4.8 4.8 0 0 1 -3.41-1.41 4.73 4.73 0 0 1 -.61-.72 5.49 5.49 0 0 1 -.46-.85 3.72 3.72 0 0 1 -.28-1.07 2.46 2.46 0 0 1 -.08-.77 3.89 3.89 0 0 1 .14-1.08 2.38 2.38 0 0 1 .22-.76 6.15 6.15 0 0 1 .4-.76 4.67 4.67 0 0 1 .72-.85 4.8 4.8 0 0 1 3.36-1.32 4.8 4.8 0 0 1 3.41 1.38 3.8 3.8 0 0 1 .64.77 5.25 5.25 0 0 1 .4.78 6.44 6.44 0 0 1 .28.88 5.91 5.91 0 0 1 .1 1 3.86 3.86 0 0 1 -.08 1.06 4.89 4.89 0 0 1 -.24.78 4.71 4.71 0 0 1 -.47.82 3.75 3.75 0 0 1 -.63.73 4.76 4.76 0 0 1 -3.41 1.39zm0-5.58a.82.82 0 0 0 -.58.21l-.25.54-1.17 2 1.41-1.43a.84.84 0 0 0 1.18 0l.26-.57 1.51-1.54-1.7 1.07a.92.92 0 0 0 -.65-.27z"/><path d="m419.44 354.37a4.75 4.75 0 0 1 -3.43-1.44 4.06 4.06 0 0 1 -.56-.66 5.11 5.11 0 0 1 -.49-.88 4.73 4.73 0 0 1 -.29-1.08 2.84 2.84 0 0 1 -.07-.78 4.79 4.79 0 0 1 1.45-3.45 4.87 4.87 0 0 1 4.35-1.29 4.41 4.41 0 0 1 .92.27 4.13 4.13 0 0 1 .95.56 2.83 2.83 0 0 1 .57.46 4.82 4.82 0 0 1 1.45 3.45 4.26 4.26 0 0 1 -.13 1.07 2.88 2.88 0 0 1 -.23.77 6.25 6.25 0 0 1 -.45.85 6.63 6.63 0 0 1 -.69.8 4.71 4.71 0 0 1 -1.44 1 5.11 5.11 0 0 1 -1.91.35zm-.14-5.6a.58.58 0 0 0 -.44.17.82.82 0 0 0 -.24.59l-1.54 1.57 1.74-1a.82.82 0 0 0 1 .22l2.25.33-1.86-.77c.06-.52 0-.75-.17-.88a2.1 2.1 0 0 0 -.74-.23z"/><path d="m65.86 229.77h375.97v6.82h-375.97z"/><path d="m65.86 202.9h375.97v5.45h-375.97z"/><path d="m65.86 257.67h375.97v10.23h-375.97z"/></g></svg>