<svg viewBox="0 0 500 500" xmlns="http://www.w3.org/2000/svg"><g fill="#fff"><path d="m248.07 496c-135.1 0-245-109.91-245-245s109.93-245 245-245 245 109.9 245 245-109.91 245-245 245zm0-483.18c-131.34-.04-238.19 106.8-238.19 238.18s106.85 238.14 238.19 238.14 238.17-106.85 238.17-238.14-106.84-238.22-238.17-238.22z"/><path d="m400.55 253.53a432.84 432.84 0 0 0 -56.68-9.4c-10.34-1-21.06-1.75-30.26-6.59-12.89-6.76-18.57-22.35-30.23-31.06-53.36-39.91-78 4.08-102.63 28.71-12.31 12.32-68.64 9.37-96 18.82-5.68 2-12.25 7.79-8.83 12.74 2.23 3.22 7 2.93 10.85 2.28l87.86-14.7c6.66-1.11 13.52-2.3 19.22-5.92 10.53-6.7 20.57-25.24 29.12-34.34 18.07-19.21 50.07-5.42 58.17 19.68 2.73 8.44 3.8 19.43 12.14 22.47 3.62 1.31 7.62.57 11.42 0a160.51 160.51 0 0 1 90.86 11.92c4.23 1.9 8.64 4 13.27 3.69s9.34-4.34 8.57-8.91-6.17-6.72-10.74-7.86q-3.03-.8-6.11-1.53z"/><path d="m400.58 322.92a7.38 7.38 0 0 1 -5.27-2.21 7.49 7.49 0 0 1 -2.2-5.27 8.92 8.92 0 0 1 .15-1.45 8.74 8.74 0 0 1 .45-1.43 7.61 7.61 0 0 1 .67-1.26 7.88 7.88 0 0 1 .93-1.16 7.56 7.56 0 0 1 6.73-2 6.1 6.1 0 0 1 2.69 1.12 6.35 6.35 0 0 1 1.15.9 10.58 10.58 0 0 1 .94 1.16 7.66 7.66 0 0 1 .68 1.26 7 7 0 0 1 .4 1.43 6 6 0 0 1 .15 1.45 7.38 7.38 0 0 1 -2.17 5.27 4.89 4.89 0 0 1 -1.15.94 7.91 7.91 0 0 1 -1.27.71 8.29 8.29 0 0 1 -1.42.41 6.35 6.35 0 0 1 -1.46.15"/><path d="m97.06 322.92a6.55 6.55 0 0 1 -1.45-.15 7.61 7.61 0 0 1 -1.38-.41 7.5 7.5 0 0 1 -1.31-.71 5 5 0 0 1 -1.13-.94 7.49 7.49 0 0 1 -2.2-5.27 10.19 10.19 0 0 1 .15-1.45 8.8 8.8 0 0 1 .45-1.43 7.61 7.61 0 0 1 .67-1.26 7.88 7.88 0 0 1 .93-1.16 6.57 6.57 0 0 1 1.13-.9 6 6 0 0 1 1.31-.72 5.78 5.78 0 0 1 1.38-.4 7.42 7.42 0 0 1 8.93 7.32 7.48 7.48 0 0 1 -7.48 7.48"/><path d="m136.29 367.3a6 6 0 0 1 -1.46-.15 5.66 5.66 0 0 1 -1.42-.41 6.14 6.14 0 0 1 -1.27-.67 6.8 6.8 0 0 1 -2.09-2.09 6.78 6.78 0 0 1 -.68-1.28 6.1 6.1 0 0 1 -.4-1.42 5.84 5.84 0 0 1 -.15-1.46 7.5 7.5 0 0 1 2.16-5.27 7.64 7.64 0 0 1 6.76-2.06 8.09 8.09 0 0 1 1.39.46 7.27 7.27 0 0 1 1.3.67 6.36 6.36 0 0 1 1.13.93 7.58 7.58 0 0 1 2.2 5.27 9.75 9.75 0 0 1 -.15 1.46 8.11 8.11 0 0 1 -.45 1.42 6.75 6.75 0 0 1 -.67 1.28 9.09 9.09 0 0 1 -.93 1.16 7.54 7.54 0 0 1 -5.27 2.16"/><path d="m168.39 322.92a6.43 6.43 0 0 1 -1.45-.15 6.4 6.4 0 0 1 -2.7-1.12 6.22 6.22 0 0 1 -1.16-.94 6.88 6.88 0 0 1 -.89-1.11 5.71 5.71 0 0 1 -.71-1.31 7.81 7.81 0 0 1 -.56-2.85 6 6 0 0 1 .15-1.45 6.49 6.49 0 0 1 .41-1.43 6.06 6.06 0 0 1 .71-1.26 8.3 8.3 0 0 1 .89-1.16 8.82 8.82 0 0 1 1.16-.9 6.07 6.07 0 0 1 2.7-1.12 7.52 7.52 0 0 1 6.72 2 6.37 6.37 0 0 1 .94 1.16 8.66 8.66 0 0 1 .71 1.26 7.09 7.09 0 0 1 .41 1.43 6.48 6.48 0 0 1 .14 1.45 7.53 7.53 0 0 1 -.55 2.85 7.81 7.81 0 0 1 -.71 1.31 5.48 5.48 0 0 1 -.94 1.11 7.31 7.31 0 0 1 -5.27 2.21"/><path d="m207.58 367.39a7.49 7.49 0 0 1 -5.27-2.17 7.65 7.65 0 0 1 -.94-1.17 7.83 7.83 0 0 1 -.67-1.29 7.55 7.55 0 0 1 -.44-1.42 8.82 8.82 0 0 1 -.15-1.47 9.16 9.16 0 0 1 .15-1.47 8.27 8.27 0 0 1 .44-1.39 10.21 10.21 0 0 1 .67-1.32 7.32 7.32 0 0 1 .94-1.13 7.66 7.66 0 0 1 10.57 0 9.55 9.55 0 0 1 .94 1.13 9.14 9.14 0 0 1 .68 1.32 10.63 10.63 0 0 1 .44 1.39 9.09 9.09 0 0 1 .11 1.47 7.64 7.64 0 0 1 -2.17 5.35 7.51 7.51 0 0 1 -5.3 2.17"/><path d="m297.19 367.3a7.49 7.49 0 0 1 -5.31-12.75 6.57 6.57 0 0 1 1.16-.93 5.9 5.9 0 0 1 1.27-.67 8.94 8.94 0 0 1 1.38-.46 7.52 7.52 0 0 1 9 7.33 8.6 8.6 0 0 1 -.15 1.46 8.11 8.11 0 0 1 -.45 1.42 6.22 6.22 0 0 1 -.67 1.28 9.09 9.09 0 0 1 -.93 1.16 9.37 9.37 0 0 1 -1.12.93 7.44 7.44 0 0 1 -1.32.67 5.88 5.88 0 0 1 -1.38.41 6 6 0 0 1 -1.45.15"/><path d="m329.29 322.92a7.06 7.06 0 0 1 -1.45-.14 9.45 9.45 0 0 1 -1.43-.42 7.91 7.91 0 0 1 -1.27-.71 5.86 5.86 0 0 1 -1.15-.94 7 7 0 0 1 -.91-1.11 6.12 6.12 0 0 1 -.71-1.31 6.21 6.21 0 0 1 -.4-1.38 6.12 6.12 0 0 1 -.15-1.47 6 6 0 0 1 .18-1.44 6.47 6.47 0 0 1 .4-1.43 6.55 6.55 0 0 1 .71-1.26 6.72 6.72 0 0 1 .91-1.13 6.61 6.61 0 0 1 1.15-.93 6.68 6.68 0 0 1 1.27-.72 6.88 6.88 0 0 1 1.43-.4 7.5 7.5 0 0 1 2.91 0 6.44 6.44 0 0 1 1.38.4 7 7 0 0 1 1.31.72 5.49 5.49 0 0 1 1.12.93 6.88 6.88 0 0 1 .94 1.13 8.44 8.44 0 0 1 .67 1.26 7.89 7.89 0 0 1 .44 1.43 9 9 0 0 1 .15 1.45 9.16 9.16 0 0 1 -.15 1.47 8.91 8.91 0 0 1 -1.11 2.69 7.17 7.17 0 0 1 -.94 1.11 5 5 0 0 1 -1.12.94 8.3 8.3 0 0 1 -1.31.71 8.84 8.84 0 0 1 -1.38.42 7.22 7.22 0 0 1 -1.46.14"/><path d="m368.48 367.3a6 6 0 0 1 -1.46-.15 5.69 5.69 0 0 1 -1.39-.41 8.52 8.52 0 0 1 -1.31-.67 10.19 10.19 0 0 1 -1.11-.94 6.83 6.83 0 0 1 -.94-1.16 8.77 8.77 0 0 1 -.71-1.27 9.65 9.65 0 0 1 -.41-1.42 6.51 6.51 0 0 1 -.14-1.46 7.3 7.3 0 0 1 2.2-5.27 7.67 7.67 0 0 1 1.11-.94 8.52 8.52 0 0 1 1.31-.67 8.35 8.35 0 0 1 1.39-.45 8 8 0 0 1 2.92 0 9 9 0 0 1 1.42.45 7.23 7.23 0 0 1 1.26.67 6.88 6.88 0 0 1 1.13.94 7.38 7.38 0 0 1 2.2 5.27 6 6 0 0 1 -.15 1.46 5.91 5.91 0 0 1 -.41 1.42 6.08 6.08 0 0 1 -.7 1.27 6.83 6.83 0 0 1 -.94 1.16 8.8 8.8 0 0 1 -1.13.94 7.23 7.23 0 0 1 -1.26.67 8.25 8.25 0 0 1 -2.88.56"/></g></svg>