<svg viewBox="0 0 500 500" xmlns="http://www.w3.org/2000/svg"><g fill="#fff"><path d="m250.59 12.79c-87.56 0-164 48-204.7 119a193.65 193.65 0 0 0 -19.89-11.34l-.84-.26c-.73 1.28-1.5 2.54-2.21 3.84.71 1 1.63 2 2.77 3.31 2.81 3.17 5.49 6.25 8.1 9.31l-.11.23c1.66 2 3.69 4.42 5.82 7a234.17 234.17 0 0 0 -24.94 104.9c0 101.37 64.38 187.77 154.3 221.11l2.05 9.64c.21.07.4.2.63.26 1.79 8.15 3.34 14.6 4.2 17.59 6.15 1.85 12.4 3.45 18.72 4.85 4.89 0 9.49-.28 11.21-.72 3-.87 4.77-2.55 6.89-11.54h.52l1.16-8.33a235.1 235.1 0 0 0 36.32 3.09c130.14 0 236-105.86 236-236s-105.86-235.94-236-235.94zm-221.27 236a219.69 219.69 0 0 1 20.4-92.23c.34.45.63.89 1 1.34.94 1.23 1.62 2.21 2.44 3.33a432.83 432.83 0 0 1 43.21 67.72c16.63 32.56 28.16 64.92 49.03 139.15 5.2 18.62 16.57 65.58 20.52 85-80.1-33.28-136.6-112.3-136.6-204.32zm221.27 221.26a220.46 220.46 0 0 1 -34.3-2.94l1.77-12.72 1-2c.48-3.08.9-5.73 1.42-9.2 5.31-35.21 9.84-56.3 18.91-87.81 15.35-53.65 31.67-93 41.63-99.38 1.42-.89 8.51-2.63 15.89-3.87 28.73-4.74 51.8-17.45 68.17-37.65 10.92-13.48 13.78-23.42 16.55-56.55 1.43-17.56 2.32-22.54 5.64-33 2.09-6.87 3.51-13 3.3-13.82-.77-2-2.52-1.75-20.54 3-8.83 2.33-27.5 6.52-41.4 9.29-35.47 7-41.09 9-56.9 20.75-22.41 16.68-38.1 48.95-38 78.18.11 11.18 1.77 19.14 3.64 17a49.13 49.13 0 0 0 3.32-7.08c6.74-16.21 26.28-41 43-54.33 8.5-6.83 25.62-13.58 25.62-10 0 1.2-5.85 8.49-12.81 15.77-6.52 7-8.73 9.84-21 27.6-12.67 18.68-29.26 52.06-40.42 81.76-10.83 28.75-18.78 51.74-24.08 68.95-9 29.48-17 52.81-18.44 53.25-1.79.65-6.63-15.14-16.79-54.35-15.77-61.4-22.54-82.48-38.66-120.9-11.05-26.18-25.62-47.17-55.21-79.3-6.23-6.83-13.82-12.7-21.16-18.63-.91-.68-1.78-1.28-2.68-1.93 38.04-67.14 110.02-112.63 192.53-112.63 122 0 221.28 99.26 221.28 221.27s-99.26 221.27-221.28 221.27z"/><path d="m277.46 423.74c0 1.39.05 3.06.19 5 .06.6.14 1.56.25 2.84a33 33 0 0 0 .43 3.49c-.19-1.11-.4-2-.57-2.77s-.52-2-1-3.7-1-3.26-1.47-4.58l-8.8-23.57-7.39 1.31 16.81 43.64 8.31-1.48.48-46.73-7.15 1.28z"/><path d="m312.66 428.51-4.7-11.91 9.54-3.76-2.65-6.72-9.54 3.76-4.23-10.71 12.45-4.91-2.61-6.64-19.58 7.71 16.84 42.72 20.35-8.01-2.65-6.74z"/><path d="m341.37 398.09 3.33 5.2 4.33-2.78 2.4 3.74a8.64 8.64 0 0 1 1.65 5 3.92 3.92 0 0 1 -1.84 3.39c-1.84 1.19-3.91.89-6.24-.9s-5.11-5.21-8.35-10.28q-4.71-7.32-5.78-11.62c-.71-2.87-.22-4.84 1.45-5.92a4 4 0 0 1 4.34-.12 10.15 10.15 0 0 1 2.41 1.87 18.76 18.76 0 0 1 2.36 3l6-3.86-.07-.1-.06-.11-.06-.09c-2.55-4-5.49-6.5-8.88-7.63a11.5 11.5 0 0 0 -14.93 11.88c.27 4.63 2.53 10.23 6.74 16.81s8.45 11 12.55 13.2 8 2.06 11.74-.31a10.21 10.21 0 0 0 3.26-3.17 8.19 8.19 0 0 0 1.24-3.91l2.25 1.55 3-1.93-12.52-19.53z"/><path d="m378.73 388.46-8.84-9.26 7.42-7.07-5-5.24-7.4 7.07-7.96-8.33 9.68-9.23-4.91-5.17-15.24 14.52 31.69 33.23 15.82-15.09-4.98-5.24z"/><path d="m385.17 333.11-5.67-4.04-13.29 18.68 5.68 4.03 4.39-6.18 31.76 22.58 4.47-6.29-31.76-22.58z"/><path d="m384.93 319.39 38.4 26.54 3.05-6.75-8.44-5.46 3.53-7.81 9.59 2.92 3.11-6.9-45.24-11.39zm29.56 4.61-2.57 5.64-18.22-11.48z"/><path d="m420.54 278.64a15.69 15.69 0 0 0 -6.68-3.17 17.11 17.11 0 0 0 -6.61-.29 10.65 10.65 0 0 0 -5.14 2.14 10.78 10.78 0 0 0 -2.73 3.42 28.55 28.55 0 0 0 -2.05 6.38l-2.33 9.88 44.74 10.33 1.73-7.53-18.47-4.22.24-1.05.36-1.58.25-1.55 19.83-1 1.74-7.6-21.21 1.57a12 12 0 0 0 -3.67-5.73zm-3.17 13.82-.24 1.06-.24.64-14-3.24.06-.21.37-2c.58-2.51 1.53-4.21 2.88-5.11s3.24-1.07 5.62-.52c2.64.61 4.4 1.64 5.25 3.08s.93 3.52.3 6.3z"/><path d="m421 237.99h7.67v45.92h-7.67z" transform="matrix(.0251301 -.99968419 .99968419 .0251301 153.27 679.07)"/><path d="m402.17 239.53 46.6 2.5-.93-7.36-10-.23-1.08-8.5 9.69-2.53-.95-7.51-44.51 14zm27.61-11.53.76 6.15-21.54-.28z"/><path d="m415.79 190.09c1-.32 2.21-.83 3.76-1.53l4.71-2.4.08.22-4.06 2.45a35.56 35.56 0 0 0 -3.1 2.17l-20.36 16.32 2.24 6.66 43.5-14.72-2.15-6.36-22.9 7.75c-1 .33-1.86.64-2.63.95s-1.53.63-2.32 1c-1.65.78-3.17 1.54-4.55 2.35l-.07-.22c1.2-.67 2.4-1.35 3.56-2.1.71-.48 1.28-.88 1.73-1.21.67-.48 1.24-.91 1.71-1.28l22-17.52-2.06-6.07-43.5 14.72 2.16 6.37z"/></g></svg>